<?xml version="1.0" encoding="UTF-8" standalone="no"?><!-- Generator: Gravit.io --><svg xmlns="http://www.w3.org/2000/svg" xmlns:xlink="http://www.w3.org/1999/xlink" style="isolation:isolate" viewBox="0 0 5470 1250" width="5470pt" height="1250pt"><rect x="10940" y="2500" width="5470" height="1250" transform="matrix(1,0,0,1,0,0)" fill="none"/><g><g><rect x="11.667" y="892" width="5500" height="155.333" transform="matrix(1,0,0,1,0,0)" fill="rgb(157,153,153)"/><g><g><g><g><g><rect x="-0.268" y="306.137" width="351.96" height="607.908" transform="matrix(1,0,0,1,0,0)" fill="rgb(170,148,1)"/><rect x="349.011" y="208.625" width="599.525" height="699.95" transform="matrix(1,0,0,1,0,0)" fill="rgb(100,145,122)"/><rect x="468.832" y="111.333" width="355.441" height="125.691" transform="matrix(1,0,0,1,0,0)" fill="rgb(100,145,122)"/><rect x="519.186" y="43.333" width="254.733" height="73.515" transform="matrix(1,0,0,1,0,0)" fill="rgb(100,145,122)"/><rect x="1897.235" y="442.629" width="38.85" height="22.131" transform="matrix(1,0,0,1,0,0)" fill="rgb(235,235,235)"/><rect x="1897.235" y="473.863" width="38.85" height="22.131" transform="matrix(1,0,0,1,0,0)" fill="rgb(235,235,235)"/><rect x="1897.235" y="505.096" width="38.85" height="22.131" transform="matrix(1,0,0,1,0,0)" fill="rgb(235,235,235)"/><rect x="1897.235" y="536.329" width="38.85" height="22.131" transform="matrix(1,0,0,1,0,0)" fill="rgb(235,235,235)"/><rect x="1897.235" y="567.562" width="38.85" height="22.131" transform="matrix(1,0,0,1,0,0)" fill="rgb(235,235,235)"/><rect x="1897.235" y="598.798" width="38.85" height="22.131" transform="matrix(1,0,0,1,0,0)" fill="rgb(235,235,235)"/><rect x="1897.235" y="630.031" width="38.85" height="22.131" transform="matrix(1,0,0,1,0,0)" fill="rgb(235,235,235)"/><rect x="1897.235" y="661.264" width="38.85" height="22.131" transform="matrix(1,0,0,1,0,0)" fill="rgb(235,235,235)"/><rect x="1897.235" y="692.497" width="38.85" height="22.131" transform="matrix(1,0,0,1,0,0)" fill="rgb(235,235,235)"/><rect x="1897.235" y="723.731" width="38.85" height="22.131" transform="matrix(1,0,0,1,0,0)" fill="rgb(235,235,235)"/><rect x="1897.235" y="754.964" width="38.85" height="22.131" transform="matrix(1,0,0,1,0,0)" fill="rgb(235,235,235)"/><rect x="1897.235" y="786.199" width="38.85" height="22.131" transform="matrix(1,0,0,1,0,0)" fill="rgb(235,235,235)"/><rect x="947.056" y="371.065" width="465.036" height="536.164" transform="matrix(1,0,0,1,0,0)" fill="rgb(103,119,116)"/><rect x="1192.613" y="289.956" width="166.047" height="112.915" transform="matrix(1,0,0,1,0,0)" fill="rgb(103,119,116)"/><rect x="1075.93" y="327.289" width="121.17" height="82.398" transform="matrix(1,0,0,1,0,0)" fill="rgb(103,119,116)"/><rect x="1409.13" y="139.549" width="564.354" height="765.406" transform="matrix(1,0,0,1,0,0)" fill="rgb(255,134,105)"/><rect x="1970.49" y="156.373" width="400.907" height="749.719" transform="matrix(1,0,0,1,0,0)" fill="rgb(100,145,122)"/><rect x="1970.49" y="9.836" width="249.818" height="579.329" transform="matrix(1,0,0,1,0,0)" fill="rgb(100,145,122)"/><rect x="2368.406" y="328.131" width="365.005" height="579.329" transform="matrix(1,0,0,1,0,0)" fill="rgb(103,119,116)"/><rect x="2416.275" y="175.683" width="272.257" height="579.329" transform="matrix(1,0,0,1,0,0)" fill="rgb(103,119,116)"/><g><rect x="2731.915" y="402.56" width="629.179" height="503.882" transform="matrix(1,0,0,1,0,0)" fill="rgb(170,148,1)"/><rect x="3013.193" y="353.333" width="344.763" height="81.248" transform="matrix(-1,0,0,-1,6371.149,787.915)" fill="rgb(170,148,1)"/></g><rect x="1016.842" y="409.687" width="61.897" height="47.166" transform="matrix(1,0,0,1,0,0)" fill="rgb(235,235,235)"/><rect x="1016.842" y="479.087" width="61.897" height="47.166" transform="matrix(1,0,0,1,0,0)" fill="rgb(235,235,235)"/><rect x="1016.842" y="548.488" width="61.897" height="47.166" transform="matrix(1,0,0,1,0,0)" fill="rgb(235,235,235)"/><rect x="1016.842" y="617.89" width="61.897" height="47.166" transform="matrix(1,0,0,1,0,0)" fill="rgb(235,235,235)"/><rect x="1016.842" y="687.29" width="61.897" height="47.166" transform="matrix(1,0,0,1,0,0)" fill="rgb(235,235,235)"/><rect x="1016.842" y="756.692" width="61.897" height="47.166" transform="matrix(1,0,0,1,0,0)" fill="rgb(235,235,235)"/><rect x="1090.324" y="409.687" width="61.897" height="47.166" transform="matrix(1,0,0,1,0,0)" fill="rgb(235,235,235)"/><rect x="1090.324" y="479.087" width="61.897" height="47.166" transform="matrix(1,0,0,1,0,0)" fill="rgb(235,235,235)"/><rect x="1090.324" y="548.488" width="61.897" height="47.166" transform="matrix(1,0,0,1,0,0)" fill="rgb(235,235,235)"/><rect x="1090.324" y="617.89" width="61.897" height="47.166" transform="matrix(1,0,0,1,0,0)" fill="rgb(235,235,235)"/><rect x="1090.324" y="687.29" width="61.897" height="47.166" transform="matrix(1,0,0,1,0,0)" fill="rgb(235,235,235)"/><rect x="1090.324" y="756.692" width="61.897" height="47.166" transform="matrix(1,0,0,1,0,0)" fill="rgb(235,235,235)"/><rect x="1016.842" y="824.847" width="61.897" height="47.166" transform="matrix(1,0,0,1,0,0)" fill="rgb(235,235,235)"/><rect x="1090.324" y="824.847" width="61.897" height="47.166" transform="matrix(1,0,0,1,0,0)" fill="rgb(235,235,235)"/><rect x="1200.839" y="409.687" width="61.897" height="47.166" transform="matrix(1,0,0,1,0,0)" fill="rgb(235,235,235)"/><rect x="1200.839" y="479.087" width="61.897" height="47.166" transform="matrix(1,0,0,1,0,0)" fill="rgb(235,235,235)"/><rect x="1200.839" y="548.488" width="61.897" height="47.166" transform="matrix(1,0,0,1,0,0)" fill="rgb(235,235,235)"/><rect x="1200.839" y="617.89" width="61.897" height="47.166" transform="matrix(1,0,0,1,0,0)" fill="rgb(235,235,235)"/><rect x="1200.839" y="687.29" width="61.897" height="47.166" transform="matrix(1,0,0,1,0,0)" fill="rgb(235,235,235)"/><rect x="1274.323" y="409.687" width="61.897" height="47.166" transform="matrix(1,0,0,1,0,0)" fill="rgb(235,235,235)"/><rect x="1274.323" y="479.087" width="61.897" height="47.166" transform="matrix(1,0,0,1,0,0)" fill="rgb(235,235,235)"/><rect x="1274.323" y="548.488" width="61.897" height="47.166" transform="matrix(1,0,0,1,0,0)" fill="rgb(235,235,235)"/><rect x="1274.323" y="617.89" width="61.897" height="47.166" transform="matrix(1,0,0,1,0,0)" fill="rgb(235,235,235)"/><rect x="1274.323" y="687.29" width="61.897" height="47.166" transform="matrix(1,0,0,1,0,0)" fill="rgb(235,235,235)"/><g><rect x="38.779" y="582.501" width="59.205" height="51.655" transform="matrix(1,0,0,1,0,0)" fill="rgb(235,235,235)"/><rect x="38.779" y="509.762" width="59.205" height="51.655" transform="matrix(1,0,0,1,0,0)" fill="rgb(235,235,235)"/><rect x="144.728" y="582.131" width="59.205" height="51.655" transform="matrix(1,0,0,1,0,0)" fill="rgb(235,235,235)"/><rect x="38.779" y="655.24" width="59.205" height="51.655" transform="matrix(1,0,0,1,0,0)" fill="rgb(235,235,235)"/><rect x="144.728" y="655.056" width="59.205" height="51.655" transform="matrix(1,0,0,1,0,0)" fill="rgb(235,235,235)"/><rect x="38.779" y="727.979" width="59.205" height="51.655" transform="matrix(1,0,0,1,0,0)" fill="rgb(235,235,235)"/><rect x="144.728" y="727.979" width="59.205" height="51.655" transform="matrix(1,0,0,1,0,0)" fill="rgb(235,235,235)"/><rect x="252.079" y="582.131" width="59.205" height="51.655" transform="matrix(1,0,0,1,0,0)" fill="rgb(235,235,235)"/><rect x="252.079" y="655.056" width="59.205" height="51.655" transform="matrix(1,0,0,1,0,0)" fill="rgb(235,235,235)"/><rect x="252.079" y="727.979" width="59.205" height="51.655" transform="matrix(1,0,0,1,0,0)" fill="rgb(235,235,235)"/><rect x="144.728" y="797.958" width="59.205" height="51.655" transform="matrix(1,0,0,1,0,0)" fill="rgb(235,235,235)"/><rect x="252.079" y="797.958" width="59.205" height="51.655" transform="matrix(1,0,0,1,0,0)" fill="rgb(235,235,235)"/></g><g><rect x="38.779" y="364.284" width="59.205" height="51.655" transform="matrix(1,0,0,1,0,0)" fill="rgb(235,235,235)"/><rect x="144.728" y="364.284" width="59.205" height="51.655" transform="matrix(1,0,0,1,0,0)" fill="rgb(235,235,235)"/><rect x="38.779" y="437.023" width="59.205" height="51.655" transform="matrix(1,0,0,1,0,0)" fill="rgb(235,235,235)"/><rect x="144.728" y="437.207" width="59.205" height="51.655" transform="matrix(1,0,0,1,0,0)" fill="rgb(235,235,235)"/><rect x="252.079" y="364.284" width="59.205" height="51.655" transform="matrix(1,0,0,1,0,0)" fill="rgb(235,235,235)"/><rect x="252.079" y="437.207" width="59.205" height="51.655" transform="matrix(1,0,0,1,0,0)" fill="rgb(235,235,235)"/><rect x="144.728" y="507.186" width="59.205" height="51.655" transform="matrix(1,0,0,1,0,0)" fill="rgb(235,235,235)"/><rect x="252.079" y="507.186" width="59.205" height="51.655" transform="matrix(1,0,0,1,0,0)" fill="rgb(235,235,235)"/></g><g><rect x="1832.767" y="209.751" width="76.943" height="34.2" transform="matrix(1,0,0,1,0,0)" fill="rgb(235,235,235)"/><rect x="1832.767" y="258.017" width="76.943" height="34.2" transform="matrix(1,0,0,1,0,0)" fill="rgb(235,235,235)"/><rect x="1832.767" y="306.283" width="76.943" height="34.2" transform="matrix(1,0,0,1,0,0)" fill="rgb(235,235,235)"/><rect x="1832.767" y="354.548" width="76.943" height="34.2" transform="matrix(1,0,0,1,0,0)" fill="rgb(235,235,235)"/><rect x="1832.767" y="402.814" width="76.943" height="34.2" transform="matrix(1,0,0,1,0,0)" fill="rgb(235,235,235)"/><rect x="1832.767" y="451.083" width="76.943" height="34.2" transform="matrix(1,0,0,1,0,0)" fill="rgb(235,235,235)"/><rect x="1832.767" y="499.348" width="76.943" height="34.2" transform="matrix(1,0,0,1,0,0)" fill="rgb(235,235,235)"/><rect x="1832.767" y="547.614" width="76.943" height="34.2" transform="matrix(1,0,0,1,0,0)" fill="rgb(235,235,235)"/><rect x="1832.767" y="595.88" width="76.943" height="34.2" transform="matrix(1,0,0,1,0,0)" fill="rgb(235,235,235)"/><rect x="1832.767" y="644.146" width="76.943" height="34.2" transform="matrix(1,0,0,1,0,0)" fill="rgb(235,235,235)"/><rect x="1832.767" y="692.411" width="76.943" height="34.2" transform="matrix(1,0,0,1,0,0)" fill="rgb(235,235,235)"/><rect x="1832.767" y="740.68" width="76.943" height="34.2" transform="matrix(1,0,0,1,0,0)" fill="rgb(235,235,235)"/><rect x="1717.225" y="209.751" width="76.943" height="34.2" transform="matrix(1,0,0,1,0,0)" fill="rgb(235,235,235)"/><rect x="1717.225" y="258.017" width="76.943" height="34.2" transform="matrix(1,0,0,1,0,0)" fill="rgb(235,235,235)"/><rect x="1717.225" y="306.283" width="76.943" height="34.2" transform="matrix(1,0,0,1,0,0)" fill="rgb(235,235,235)"/><rect x="1717.225" y="354.548" width="76.943" height="34.2" transform="matrix(1,0,0,1,0,0)" fill="rgb(235,235,235)"/><rect x="1717.225" y="402.814" width="76.943" height="34.2" transform="matrix(1,0,0,1,0,0)" fill="rgb(235,235,235)"/><rect x="1717.225" y="451.083" width="76.943" height="34.2" transform="matrix(1,0,0,1,0,0)" fill="rgb(235,235,235)"/><rect x="1717.225" y="499.348" width="76.943" height="34.2" transform="matrix(1,0,0,1,0,0)" fill="rgb(235,235,235)"/><rect x="1717.225" y="547.614" width="76.943" height="34.2" transform="matrix(1,0,0,1,0,0)" fill="rgb(235,235,235)"/><rect x="1717.225" y="595.88" width="76.943" height="34.2" transform="matrix(1,0,0,1,0,0)" fill="rgb(235,235,235)"/><rect x="1717.225" y="644.146" width="76.943" height="34.2" transform="matrix(1,0,0,1,0,0)" fill="rgb(235,235,235)"/><rect x="1717.225" y="692.411" width="76.943" height="34.2" transform="matrix(1,0,0,1,0,0)" fill="rgb(235,235,235)"/><rect x="1601.684" y="209.751" width="76.943" height="34.2" transform="matrix(1,0,0,1,0,0)" fill="rgb(235,235,235)"/><rect x="1601.684" y="258.017" width="76.943" height="34.2" transform="matrix(1,0,0,1,0,0)" fill="rgb(235,235,235)"/><rect x="1601.684" y="306.283" width="76.943" height="34.2" transform="matrix(1,0,0,1,0,0)" fill="rgb(235,235,235)"/><rect x="1601.684" y="354.548" width="76.943" height="34.2" transform="matrix(1,0,0,1,0,0)" fill="rgb(235,235,235)"/><rect x="1601.684" y="402.814" width="76.943" height="34.2" transform="matrix(1,0,0,1,0,0)" fill="rgb(235,235,235)"/><rect x="1601.684" y="451.083" width="76.943" height="34.2" transform="matrix(1,0,0,1,0,0)" fill="rgb(235,235,235)"/><rect x="1601.684" y="499.348" width="76.943" height="34.2" transform="matrix(1,0,0,1,0,0)" fill="rgb(235,235,235)"/><rect x="1601.684" y="547.614" width="76.943" height="34.2" transform="matrix(1,0,0,1,0,0)" fill="rgb(235,235,235)"/><rect x="1601.684" y="595.88" width="76.943" height="34.2" transform="matrix(1,0,0,1,0,0)" fill="rgb(235,235,235)"/><rect x="1601.684" y="644.146" width="76.943" height="34.2" transform="matrix(1,0,0,1,0,0)" fill="rgb(235,235,235)"/><rect x="1601.684" y="692.411" width="76.943" height="34.2" transform="matrix(1,0,0,1,0,0)" fill="rgb(235,235,235)"/><rect x="1486.142" y="209.751" width="76.943" height="34.2" transform="matrix(1,0,0,1,0,0)" fill="rgb(235,235,235)"/><rect x="1486.142" y="258.017" width="76.943" height="34.2" transform="matrix(1,0,0,1,0,0)" fill="rgb(235,235,235)"/><rect x="1486.142" y="306.283" width="76.943" height="34.2" transform="matrix(1,0,0,1,0,0)" fill="rgb(235,235,235)"/><rect x="1486.142" y="354.548" width="76.943" height="34.2" transform="matrix(1,0,0,1,0,0)" fill="rgb(235,235,235)"/><rect x="1486.142" y="402.814" width="76.943" height="34.2" transform="matrix(1,0,0,1,0,0)" fill="rgb(235,235,235)"/><rect x="1486.142" y="451.083" width="76.943" height="34.2" transform="matrix(1,0,0,1,0,0)" fill="rgb(235,235,235)"/><rect x="1486.142" y="499.348" width="76.943" height="34.2" transform="matrix(1,0,0,1,0,0)" fill="rgb(235,235,235)"/><rect x="1486.142" y="547.614" width="76.943" height="34.2" transform="matrix(1,0,0,1,0,0)" fill="rgb(235,235,235)"/><rect x="1486.142" y="595.88" width="76.943" height="34.2" transform="matrix(1,0,0,1,0,0)" fill="rgb(235,235,235)"/><rect x="1486.142" y="644.146" width="76.943" height="34.2" transform="matrix(1,0,0,1,0,0)" fill="rgb(235,235,235)"/><rect x="1486.142" y="692.411" width="76.943" height="34.2" transform="matrix(1,0,0,1,0,0)" fill="rgb(235,235,235)"/><rect x="1486.142" y="740.68" width="76.943" height="34.2" transform="matrix(1,0,0,1,0,0)" fill="rgb(235,235,235)"/><rect x="1832.767" y="788.075" width="76.943" height="34.2" transform="matrix(1,0,0,1,0,0)" fill="rgb(235,235,235)"/><rect x="1486.142" y="788.075" width="76.943" height="34.2" transform="matrix(1,0,0,1,0,0)" fill="rgb(235,235,235)"/><rect x="1832.767" y="835.47" width="76.943" height="34.2" transform="matrix(1,0,0,1,0,0)" fill="rgb(235,235,235)"/><rect x="1832.767" y="740.68" width="76.943" height="34.2" transform="matrix(1,0,0,1,0,0)" fill="rgb(235,235,235)"/><rect x="1832.767" y="788.075" width="76.943" height="34.2" transform="matrix(1,0,0,1,0,0)" fill="rgb(235,235,235)"/><rect x="1832.767" y="835.47" width="76.943" height="34.2" transform="matrix(1,0,0,1,0,0)" fill="rgb(235,235,235)"/><rect x="1832.767" y="740.68" width="76.943" height="34.2" transform="matrix(1,0,0,1,0,0)" fill="rgb(235,235,235)"/><rect x="1832.767" y="788.075" width="76.943" height="34.2" transform="matrix(1,0,0,1,0,0)" fill="rgb(235,235,235)"/><rect x="1832.767" y="835.47" width="76.943" height="34.2" transform="matrix(1,0,0,1,0,0)" fill="rgb(235,235,235)"/><rect x="1486.142" y="835.47" width="76.943" height="34.2" transform="matrix(1,0,0,1,0,0)" fill="rgb(235,235,235)"/></g><g><g><rect x="549.316" y="114.485" width="39.941" height="131.818" transform="matrix(1,0,0,1,0,0)" fill="rgb(235,235,235)"/><rect x="628.4" y="114.485" width="39.941" height="131.818" transform="matrix(1,0,0,1,0,0)" fill="rgb(235,235,235)"/><rect x="705.089" y="114.485" width="39.941" height="131.818" transform="matrix(1,0,0,1,0,0)" fill="rgb(235,235,235)"/></g><g><g><rect x="384.758" y="612.087" width="40.589" height="129.819" transform="matrix(1,0,0,1,0,0)" fill="rgb(235,235,235)"/><rect x="464.085" y="612.087" width="40.589" height="129.819" transform="matrix(1,0,0,1,0,0)" fill="rgb(235,235,235)"/><rect x="543.413" y="612.087" width="40.589" height="129.819" transform="matrix(1,0,0,1,0,0)" fill="rgb(235,235,235)"/><rect x="622.741" y="612.087" width="40.589" height="129.819" transform="matrix(1,0,0,1,0,0)" fill="rgb(235,235,235)"/><rect x="702.07" y="612.087" width="40.589" height="129.819" transform="matrix(1,0,0,1,0,0)" fill="rgb(235,235,235)"/><rect x="781.398" y="612.087" width="40.589" height="129.819" transform="matrix(1,0,0,1,0,0)" fill="rgb(235,235,235)"/><rect x="860.726" y="612.087" width="40.589" height="129.819" transform="matrix(1,0,0,1,0,0)" fill="rgb(235,235,235)"/></g><g><rect x="387.115" y="445.087" width="40.589" height="129.819" transform="matrix(1,0,0,1,0,0)" fill="rgb(235,235,235)"/><rect x="466.442" y="445.087" width="40.589" height="129.819" transform="matrix(1,0,0,1,0,0)" fill="rgb(235,235,235)"/><rect x="545.771" y="445.087" width="40.589" height="129.819" transform="matrix(1,0,0,1,0,0)" fill="rgb(235,235,235)"/><rect x="625.099" y="445.087" width="40.589" height="129.819" transform="matrix(1,0,0,1,0,0)" fill="rgb(235,235,235)"/><rect x="704.427" y="445.087" width="40.589" height="129.819" transform="matrix(1,0,0,1,0,0)" fill="rgb(235,235,235)"/><rect x="783.755" y="445.087" width="40.589" height="129.819" transform="matrix(1,0,0,1,0,0)" fill="rgb(235,235,235)"/><rect x="863.084" y="445.087" width="40.589" height="129.819" transform="matrix(1,0,0,1,0,0)" fill="rgb(235,235,235)"/></g><g><rect x="389.473" y="278.087" width="40.589" height="129.819" transform="matrix(1,0,0,1,0,0)" fill="rgb(235,235,235)"/><rect x="468.8" y="278.087" width="40.589" height="129.819" transform="matrix(1,0,0,1,0,0)" fill="rgb(235,235,235)"/><rect x="548.128" y="278.087" width="40.589" height="129.819" transform="matrix(1,0,0,1,0,0)" fill="rgb(235,235,235)"/><rect x="627.457" y="278.087" width="40.589" height="129.819" transform="matrix(1,0,0,1,0,0)" fill="rgb(235,235,235)"/><rect x="706.785" y="278.087" width="40.589" height="129.819" transform="matrix(1,0,0,1,0,0)" fill="rgb(235,235,235)"/><rect x="786.113" y="278.087" width="40.589" height="129.819" transform="matrix(1,0,0,1,0,0)" fill="rgb(235,235,235)"/><rect x="865.441" y="278.087" width="40.589" height="129.819" transform="matrix(1,0,0,1,0,0)" fill="rgb(235,235,235)"/></g></g></g><g><rect x="2418.518" y="373.57" width="42.633" height="57.108" transform="matrix(1,0,0,1,0,0)" fill="rgb(235,235,235)"/><rect x="2494.811" y="373.57" width="42.633" height="57.108" transform="matrix(1,0,0,1,0,0)" fill="rgb(235,235,235)"/><rect x="2418.518" y="539.703" width="42.633" height="57.108" transform="matrix(1,0,0,1,0,0)" fill="rgb(235,235,235)"/><rect x="2494.811" y="539.703" width="42.633" height="57.108" transform="matrix(1,0,0,1,0,0)" fill="rgb(235,235,235)"/><rect x="2418.518" y="456.635" width="42.633" height="57.108" transform="matrix(1,0,0,1,0,0)" fill="rgb(235,235,235)"/><rect x="2494.811" y="456.635" width="42.633" height="57.108" transform="matrix(1,0,0,1,0,0)" fill="rgb(235,235,235)"/></g><g><rect x="2568.112" y="373.57" width="42.633" height="57.108" transform="matrix(1,0,0,1,0,0)" fill="rgb(235,235,235)"/><rect x="2494.811" y="293.964" width="42.633" height="57.108" transform="matrix(1,0,0,1,0,0)" fill="rgb(235,235,235)"/><rect x="2568.112" y="293.964" width="42.633" height="57.108" transform="matrix(1,0,0,1,0,0)" fill="rgb(235,235,235)"/><rect x="2494.811" y="210.898" width="42.633" height="57.108" transform="matrix(1,0,0,1,0,0)" fill="rgb(235,235,235)"/><rect x="2568.112" y="210.898" width="42.633" height="57.108" transform="matrix(1,0,0,1,0,0)" fill="rgb(235,235,235)"/><rect x="2644.403" y="373.57" width="42.633" height="57.108" transform="matrix(1,0,0,1,0,0)" fill="rgb(235,235,235)"/><rect x="2568.112" y="539.703" width="42.633" height="57.108" transform="matrix(1,0,0,1,0,0)" fill="rgb(235,235,235)"/><rect x="2644.403" y="539.703" width="42.633" height="57.108" transform="matrix(1,0,0,1,0,0)" fill="rgb(235,235,235)"/><rect x="2568.112" y="456.635" width="42.633" height="57.108" transform="matrix(1,0,0,1,0,0)" fill="rgb(235,235,235)"/><rect x="2644.403" y="456.635" width="42.633" height="57.108" transform="matrix(1,0,0,1,0,0)" fill="rgb(235,235,235)"/></g><g><rect x="2417.022" y="618.154" width="42.633" height="57.108" transform="matrix(1,0,0,1,0,0)" fill="rgb(235,235,235)"/><rect x="2493.315" y="618.154" width="42.633" height="57.108" transform="matrix(1,0,0,1,0,0)" fill="rgb(235,235,235)"/><rect x="2417.022" y="701.222" width="42.633" height="57.108" transform="matrix(1,0,0,1,0,0)" fill="rgb(235,235,235)"/><rect x="2493.315" y="701.222" width="42.633" height="57.108" transform="matrix(1,0,0,1,0,0)" fill="rgb(235,235,235)"/></g><g><rect x="2566.614" y="618.154" width="42.633" height="57.108" transform="matrix(1,0,0,1,0,0)" fill="rgb(235,235,235)"/><rect x="2642.907" y="618.154" width="42.633" height="57.108" transform="matrix(1,0,0,1,0,0)" fill="rgb(235,235,235)"/><rect x="2566.614" y="701.222" width="42.633" height="57.108" transform="matrix(1,0,0,1,0,0)" fill="rgb(235,235,235)"/><rect x="2642.907" y="701.222" width="42.633" height="57.108" transform="matrix(1,0,0,1,0,0)" fill="rgb(235,235,235)"/><rect x="2565.119" y="784.235" width="42.633" height="70.739" transform="matrix(1,0,0,1,0,0)" fill="rgb(235,235,235)"/><rect x="2641.411" y="784.235" width="42.633" height="69.604" transform="matrix(1,0,0,1,0,0)" fill="rgb(235,235,235)"/></g><rect x="38.575" y="804.532" width="60.005" height="100.674" transform="matrix(1,0,0,1,0,0)" fill="rgb(235,235,235)"/><rect x="537.133" y="776.8" width="92" height="122.681" transform="matrix(1,0,0,1,0,0)" fill="rgb(235,235,235)"/><rect x="631.376" y="776.8" width="92" height="122.681" transform="matrix(1,0,0,1,0,0)" fill="rgb(235,235,235)"/><rect x="2077.449" y="740.333" width="92" height="153.216" transform="matrix(1,0,0,1,0,0)" fill="rgb(235,235,235)"/><rect x="2171.692" y="740.333" width="92" height="153.216" transform="matrix(1,0,0,1,0,0)" fill="rgb(235,235,235)"/><rect x="1209" y="763.333" width="126" height="139.35" transform="matrix(1,0,0,1,0,0)" fill="rgb(235,235,235)"/><rect x="1637" y="756.236" width="130" height="150.642" transform="matrix(1,0,0,1,0,0)" fill="rgb(235,235,235)"/><rect x="2417" y="775.236" width="118" height="117.097" transform="matrix(1,0,0,1,0,0)" fill="rgb(235,235,235)"/><g><rect x="3357.988" y="208.542" width="361.806" height="699.95" transform="matrix(1,0,0,1,0,0)" fill="rgb(255,134,105)"/><rect x="3405.009" y="131.333" width="267.423" height="126.054" transform="matrix(1,0,0,1,0,0)" fill="rgb(255,134,105)"/><rect x="3719.281" y="370.981" width="476.697" height="536.164" transform="matrix(1,0,0,1,0,0)" fill="rgb(100,145,122)"/><rect x="3966.107" y="289.872" width="166.047" height="112.915" transform="matrix(1,0,0,1,0,0)" fill="rgb(100,145,122)"/><rect x="3849.427" y="327.205" width="121.17" height="82.398" transform="matrix(1,0,0,1,0,0)" fill="rgb(100,145,122)"/><rect x="4184.167" y="158.794" width="394.314" height="749.719" transform="matrix(1,0,0,1,0,0)" fill="rgb(255,134,105)"/><rect x="4184.167" y="12.257" width="249.818" height="579.329" transform="matrix(1,0,0,1,0,0)" fill="rgb(255,134,105)"/><rect x="4571.286" y="328.047" width="375.799" height="579.329" transform="matrix(1,0,0,1,0,0)" fill="rgb(170,148,1)"/><rect x="4611" y="178.104" width="291.208" height="579.329" transform="matrix(1,0,0,1,0,0)" fill="rgb(170,148,1)"/><rect x="3790.337" y="409.603" width="61.897" height="47.166" transform="matrix(1,0,0,1,0,0)" fill="rgb(235,235,235)"/><rect x="3790.337" y="479.003" width="61.897" height="47.166" transform="matrix(1,0,0,1,0,0)" fill="rgb(235,235,235)"/><rect x="3790.337" y="548.405" width="61.897" height="47.166" transform="matrix(1,0,0,1,0,0)" fill="rgb(235,235,235)"/><rect x="3790.337" y="617.806" width="61.897" height="47.166" transform="matrix(1,0,0,1,0,0)" fill="rgb(235,235,235)"/><rect x="3790.337" y="687.206" width="61.897" height="47.166" transform="matrix(1,0,0,1,0,0)" fill="rgb(235,235,235)"/><rect x="3790.337" y="756.608" width="61.897" height="47.166" transform="matrix(1,0,0,1,0,0)" fill="rgb(235,235,235)"/><rect x="3863.82" y="409.603" width="61.897" height="47.166" transform="matrix(1,0,0,1,0,0)" fill="rgb(235,235,235)"/><rect x="3863.82" y="479.003" width="61.897" height="47.166" transform="matrix(1,0,0,1,0,0)" fill="rgb(235,235,235)"/><rect x="3863.82" y="548.405" width="61.897" height="47.166" transform="matrix(1,0,0,1,0,0)" fill="rgb(235,235,235)"/><rect x="3863.82" y="617.806" width="61.897" height="47.166" transform="matrix(1,0,0,1,0,0)" fill="rgb(235,235,235)"/><rect x="3863.82" y="687.206" width="61.897" height="47.166" transform="matrix(1,0,0,1,0,0)" fill="rgb(235,235,235)"/><rect x="3863.82" y="756.608" width="61.897" height="47.166" transform="matrix(1,0,0,1,0,0)" fill="rgb(235,235,235)"/><rect x="3790.337" y="824.764" width="61.897" height="47.166" transform="matrix(1,0,0,1,0,0)" fill="rgb(235,235,235)"/><rect x="3863.82" y="824.764" width="61.897" height="47.166" transform="matrix(1,0,0,1,0,0)" fill="rgb(235,235,235)"/><rect x="3974.336" y="409.603" width="61.897" height="47.166" transform="matrix(1,0,0,1,0,0)" fill="rgb(235,235,235)"/><rect x="3974.336" y="479.003" width="61.897" height="47.166" transform="matrix(1,0,0,1,0,0)" fill="rgb(235,235,235)"/><rect x="3974.336" y="548.405" width="61.897" height="47.166" transform="matrix(1,0,0,1,0,0)" fill="rgb(235,235,235)"/><rect x="3974.336" y="617.806" width="61.897" height="47.166" transform="matrix(1,0,0,1,0,0)" fill="rgb(235,235,235)"/><rect x="3974.336" y="687.206" width="61.897" height="47.166" transform="matrix(1,0,0,1,0,0)" fill="rgb(235,235,235)"/><rect x="4047.817" y="409.603" width="61.897" height="47.166" transform="matrix(1,0,0,1,0,0)" fill="rgb(235,235,235)"/><rect x="4047.817" y="479.003" width="61.897" height="47.166" transform="matrix(1,0,0,1,0,0)" fill="rgb(235,235,235)"/><rect x="4047.817" y="548.405" width="61.897" height="47.166" transform="matrix(1,0,0,1,0,0)" fill="rgb(235,235,235)"/><rect x="4047.817" y="617.806" width="61.897" height="47.166" transform="matrix(1,0,0,1,0,0)" fill="rgb(235,235,235)"/><rect x="4047.817" y="687.206" width="61.897" height="47.166" transform="matrix(1,0,0,1,0,0)" fill="rgb(235,235,235)"/><g><g><rect x="3408.003" y="268.166" width="29.293" height="129.819" transform="matrix(1,0,0,1,0,0)" fill="rgb(235,235,235)"/><rect x="3466.004" y="268.166" width="29.293" height="129.819" transform="matrix(1,0,0,1,0,0)" fill="rgb(235,235,235)"/><rect x="3524.006" y="268.166" width="29.293" height="129.819" transform="matrix(1,0,0,1,0,0)" fill="rgb(235,235,235)"/><rect x="3582.007" y="268.166" width="29.293" height="129.819" transform="matrix(1,0,0,1,0,0)" fill="rgb(235,235,235)"/></g><g><rect x="3408.003" y="268.166" width="29.293" height="129.819" transform="matrix(1,0,0,1,0,0)" fill="rgb(235,235,235)"/><rect x="3466.004" y="268.166" width="29.293" height="129.819" transform="matrix(1,0,0,1,0,0)" fill="rgb(235,235,235)"/><rect x="3524.006" y="268.166" width="29.293" height="129.819" transform="matrix(1,0,0,1,0,0)" fill="rgb(235,235,235)"/><rect x="3524.006" y="268.166" width="29.293" height="129.819" transform="matrix(1,0,0,1,0,0)" fill="rgb(235,235,235)"/><rect x="3582.007" y="268.166" width="29.293" height="129.819" transform="matrix(1,0,0,1,0,0)" fill="rgb(235,235,235)"/><rect x="3638.251" y="268.166" width="29.293" height="129.819" transform="matrix(1,0,0,1,0,0)" fill="rgb(235,235,235)"/></g><g><rect x="3408.003" y="437.976" width="29.293" height="129.819" transform="matrix(1,0,0,1,0,0)" fill="rgb(235,235,235)"/><rect x="3466.004" y="437.976" width="29.293" height="129.819" transform="matrix(1,0,0,1,0,0)" fill="rgb(235,235,235)"/><rect x="3524.006" y="437.976" width="29.293" height="129.819" transform="matrix(1,0,0,1,0,0)" fill="rgb(235,235,235)"/><rect x="3582.007" y="437.976" width="29.293" height="129.819" transform="matrix(1,0,0,1,0,0)" fill="rgb(235,235,235)"/><rect x="3638.251" y="437.976" width="29.293" height="129.819" transform="matrix(1,0,0,1,0,0)" fill="rgb(235,235,235)"/></g><g><rect x="3408.003" y="611.478" width="29.293" height="129.819" transform="matrix(1,0,0,1,0,0)" fill="rgb(235,235,235)"/><rect x="3466.004" y="611.478" width="29.293" height="129.819" transform="matrix(1,0,0,1,0,0)" fill="rgb(235,235,235)"/><rect x="3524.006" y="611.478" width="29.293" height="129.819" transform="matrix(1,0,0,1,0,0)" fill="rgb(235,235,235)"/><rect x="3582.007" y="611.478" width="29.293" height="129.819" transform="matrix(1,0,0,1,0,0)" fill="rgb(235,235,235)"/><rect x="3638.251" y="611.478" width="29.293" height="129.819" transform="matrix(1,0,0,1,0,0)" fill="rgb(235,235,235)"/></g></g><g><rect x="4598.75" y="400.047" width="49.894" height="59.586" transform="matrix(1,0,0,1,0,0)" fill="rgb(235,235,235)"/><rect x="4688.037" y="400.047" width="49.894" height="59.586" transform="matrix(1,0,0,1,0,0)" fill="rgb(235,235,235)"/><rect x="4598.75" y="573.386" width="49.894" height="59.586" transform="matrix(1,0,0,1,0,0)" fill="rgb(235,235,235)"/><rect x="4688.037" y="573.386" width="49.894" height="59.586" transform="matrix(1,0,0,1,0,0)" fill="rgb(235,235,235)"/><rect x="4598.75" y="486.716" width="49.894" height="59.586" transform="matrix(1,0,0,1,0,0)" fill="rgb(235,235,235)"/><rect x="4688.037" y="486.716" width="49.894" height="59.586" transform="matrix(1,0,0,1,0,0)" fill="rgb(235,235,235)"/></g><g><rect x="4773.819" y="400.047" width="49.894" height="59.586" transform="matrix(1,0,0,1,0,0)" fill="rgb(235,235,235)"/><rect x="4688.037" y="316.988" width="49.894" height="59.586" transform="matrix(1,0,0,1,0,0)" fill="rgb(235,235,235)"/><rect x="4773.819" y="316.988" width="49.894" height="59.586" transform="matrix(1,0,0,1,0,0)" fill="rgb(235,235,235)"/><rect x="4688.037" y="230.319" width="49.894" height="59.586" transform="matrix(1,0,0,1,0,0)" fill="rgb(235,235,235)"/><rect x="4773.819" y="230.319" width="49.894" height="59.586" transform="matrix(1,0,0,1,0,0)" fill="rgb(235,235,235)"/><rect x="4863.106" y="400.047" width="49.894" height="59.586" transform="matrix(1,0,0,1,0,0)" fill="rgb(235,235,235)"/><rect x="4773.819" y="573.386" width="49.894" height="59.586" transform="matrix(1,0,0,1,0,0)" fill="rgb(235,235,235)"/><rect x="4863.106" y="573.386" width="49.894" height="59.586" transform="matrix(1,0,0,1,0,0)" fill="rgb(235,235,235)"/><rect x="4773.819" y="486.716" width="49.894" height="59.586" transform="matrix(1,0,0,1,0,0)" fill="rgb(235,235,235)"/><rect x="4863.106" y="486.716" width="49.894" height="59.586" transform="matrix(1,0,0,1,0,0)" fill="rgb(235,235,235)"/></g><g><rect x="4597" y="655.241" width="49.894" height="59.586" transform="matrix(1,0,0,1,0,0)" fill="rgb(235,235,235)"/><rect x="4686.286" y="655.241" width="49.894" height="59.586" transform="matrix(1,0,0,1,0,0)" fill="rgb(235,235,235)"/></g><g><rect x="4772.069" y="655.241" width="49.894" height="59.586" transform="matrix(1,0,0,1,0,0)" fill="rgb(235,235,235)"/><rect x="4861.355" y="655.241" width="49.894" height="59.586" transform="matrix(1,0,0,1,0,0)" fill="rgb(235,235,235)"/><rect x="4772.069" y="741.911" width="49.894" height="59.586" transform="matrix(1,0,0,1,0,0)" fill="rgb(235,235,235)"/><rect x="4861.355" y="741.911" width="49.894" height="59.586" transform="matrix(1,0,0,1,0,0)" fill="rgb(235,235,235)"/></g><rect x="3445.399" y="775.333" width="92" height="117.083" transform="matrix(1,0,0,1,0,0)" fill="rgb(235,235,235)"/><rect x="3539.642" y="775.333" width="92" height="117.083" transform="matrix(1,0,0,1,0,0)" fill="rgb(235,235,235)"/><rect x="4291.125" y="759.656" width="92" height="136.313" transform="matrix(1,0,0,1,0,0)" fill="rgb(235,235,235)"/><rect x="4217.824" y="777.312" width="49.832" height="117.001" transform="matrix(1,0,0,1,0,0)" fill="rgb(235,235,235)"/><rect x="4503.544" y="777.312" width="49.832" height="117.001" transform="matrix(1,0,0,1,0,0)" fill="rgb(235,235,235)"/><rect x="4385.368" y="767.656" width="92" height="136.313" transform="matrix(1,0,0,1,0,0)" fill="rgb(235,235,235)"/><rect x="4385.368" y="759.656" width="92" height="136.313" transform="matrix(1,0,0,1,0,0)" fill="rgb(235,235,235)"/><rect x="3975.506" y="772.333" width="67.494" height="123.266" transform="matrix(1,0,0,1,0,0)" fill="rgb(235,235,235)"/><rect x="4044.506" y="772.333" width="67.494" height="123.266" transform="matrix(1,0,0,1,0,0)" fill="rgb(235,235,235)"/><rect x="4622.782" y="753.333" width="111.882" height="137.771" transform="matrix(1,0,0,1,0,0)" fill="rgb(235,235,235)"/><g><rect x="2789.446" y="681.254" width="68.554" height="50.458" transform="matrix(1,0,0,1,0,0)" fill="rgb(235,235,235)"/><rect x="2789.446" y="754.877" width="68.554" height="50.458" transform="matrix(1,0,0,1,0,0)" fill="rgb(235,235,235)"/><rect x="2789.446" y="606.897" width="68.554" height="50.458" transform="matrix(1,0,0,1,0,0)" fill="rgb(235,235,235)"/><rect x="2789.446" y="532.539" width="68.554" height="50.458" transform="matrix(1,0,0,1,0,0)" fill="rgb(235,235,235)"/><rect x="2789.446" y="458.608" width="68.554" height="50.458" transform="matrix(1,0,0,1,0,0)" fill="rgb(235,235,235)"/></g><g><rect x="2899.446" y="681.254" width="68.554" height="50.458" transform="matrix(1,0,0,1,0,0)" fill="rgb(235,235,235)"/><rect x="2899.446" y="754.877" width="68.554" height="50.458" transform="matrix(1,0,0,1,0,0)" fill="rgb(235,235,235)"/><rect x="2899.446" y="606.897" width="68.554" height="50.458" transform="matrix(1,0,0,1,0,0)" fill="rgb(235,235,235)"/><rect x="2899.446" y="532.539" width="68.554" height="50.458" transform="matrix(1,0,0,1,0,0)" fill="rgb(235,235,235)"/><rect x="2899.446" y="458.608" width="68.554" height="50.458" transform="matrix(1,0,0,1,0,0)" fill="rgb(235,235,235)"/></g><g><rect x="3009.446" y="681.254" width="68.554" height="50.458" transform="matrix(1,0,0,1,0,0)" fill="rgb(235,235,235)"/><rect x="3009.446" y="606.897" width="68.554" height="50.458" transform="matrix(1,0,0,1,0,0)" fill="rgb(235,235,235)"/><rect x="3009.446" y="532.539" width="68.554" height="50.458" transform="matrix(1,0,0,1,0,0)" fill="rgb(235,235,235)"/><rect x="3009.446" y="458.608" width="68.554" height="50.458" transform="matrix(1,0,0,1,0,0)" fill="rgb(235,235,235)"/></g><g><rect x="3119.446" y="681.254" width="68.554" height="50.458" transform="matrix(1,0,0,1,0,0)" fill="rgb(235,235,235)"/><rect x="3119.446" y="754.877" width="68.554" height="50.458" transform="matrix(1,0,0,1,0,0)" fill="rgb(235,235,235)"/><rect x="3119.446" y="606.897" width="68.554" height="50.458" transform="matrix(1,0,0,1,0,0)" fill="rgb(235,235,235)"/><rect x="3119.446" y="532.539" width="68.554" height="50.458" transform="matrix(1,0,0,1,0,0)" fill="rgb(235,235,235)"/><rect x="3119.446" y="458.608" width="68.554" height="50.458" transform="matrix(1,0,0,1,0,0)" fill="rgb(235,235,235)"/></g><g><rect x="3229.446" y="681.254" width="68.554" height="50.458" transform="matrix(1,0,0,1,0,0)" fill="rgb(235,235,235)"/><rect x="3229.446" y="754.877" width="68.554" height="50.458" transform="matrix(1,0,0,1,0,0)" fill="rgb(235,235,235)"/><rect x="3229.446" y="606.897" width="68.554" height="50.458" transform="matrix(1,0,0,1,0,0)" fill="rgb(235,235,235)"/><rect x="3229.446" y="532.539" width="68.554" height="50.458" transform="matrix(1,0,0,1,0,0)" fill="rgb(235,235,235)"/><rect x="3229.446" y="458.608" width="68.554" height="50.458" transform="matrix(1,0,0,1,0,0)" fill="rgb(235,235,235)"/></g><rect x="2990.704" y="766.333" width="106.095" height="126.49" transform="matrix(1,0,0,1,0,0)" fill="rgb(235,235,235)"/></g><g><rect x="4945.22" y="120.967" width="533.512" height="773.71" transform="matrix(1,0,0,1,0,0)" fill="rgb(103,119,116)"/><g><rect x="4994.835" y="185.518" width="81.165" height="68.423" transform="matrix(1,0,0,1,0,0)" fill="rgb(235,235,235)"/><rect x="4994.835" y="286.195" width="81.165" height="68.423" transform="matrix(1,0,0,1,0,0)" fill="rgb(235,235,235)"/><rect x="4994.835" y="386.874" width="81.165" height="68.423" transform="matrix(1,0,0,1,0,0)" fill="rgb(235,235,235)"/><rect x="4994.835" y="487.554" width="81.165" height="68.423" transform="matrix(1,0,0,1,0,0)" fill="rgb(235,235,235)"/><rect x="4994.835" y="588.231" width="81.165" height="68.423" transform="matrix(1,0,0,1,0,0)" fill="rgb(235,235,235)"/><rect x="4994.835" y="688.91" width="81.165" height="68.423" transform="matrix(1,0,0,1,0,0)" fill="rgb(235,235,235)"/></g><g><rect x="5114.168" y="185.518" width="81.165" height="68.423" transform="matrix(1,0,0,1,0,0)" fill="rgb(235,235,235)"/><rect x="5114.168" y="286.195" width="81.165" height="68.423" transform="matrix(1,0,0,1,0,0)" fill="rgb(235,235,235)"/><rect x="5114.168" y="386.874" width="81.165" height="68.423" transform="matrix(1,0,0,1,0,0)" fill="rgb(235,235,235)"/><rect x="5114.168" y="487.554" width="81.165" height="68.423" transform="matrix(1,0,0,1,0,0)" fill="rgb(235,235,235)"/><rect x="5114.168" y="588.231" width="81.165" height="68.423" transform="matrix(1,0,0,1,0,0)" fill="rgb(235,235,235)"/></g><g><rect x="5233.502" y="185.518" width="81.165" height="68.423" transform="matrix(1,0,0,1,0,0)" fill="rgb(235,235,235)"/><rect x="5233.502" y="286.195" width="81.165" height="68.423" transform="matrix(1,0,0,1,0,0)" fill="rgb(235,235,235)"/><rect x="5233.502" y="386.874" width="81.165" height="68.423" transform="matrix(1,0,0,1,0,0)" fill="rgb(235,235,235)"/><rect x="5233.502" y="487.554" width="81.165" height="68.423" transform="matrix(1,0,0,1,0,0)" fill="rgb(235,235,235)"/><rect x="5233.502" y="588.231" width="81.165" height="68.423" transform="matrix(1,0,0,1,0,0)" fill="rgb(235,235,235)"/></g><g><rect x="5352.835" y="185.518" width="81.165" height="68.423" transform="matrix(1,0,0,1,0,0)" fill="rgb(235,235,235)"/><rect x="5352.835" y="286.195" width="81.165" height="68.423" transform="matrix(1,0,0,1,0,0)" fill="rgb(235,235,235)"/><rect x="5352.835" y="386.874" width="81.165" height="68.423" transform="matrix(1,0,0,1,0,0)" fill="rgb(235,235,235)"/><rect x="5352.835" y="487.554" width="81.165" height="68.423" transform="matrix(1,0,0,1,0,0)" fill="rgb(235,235,235)"/><rect x="5352.835" y="588.231" width="81.165" height="68.423" transform="matrix(1,0,0,1,0,0)" fill="rgb(235,235,235)"/><rect x="5352.835" y="688.91" width="81.165" height="68.423" transform="matrix(1,0,0,1,0,0)" fill="rgb(235,235,235)"/><rect x="4994.835" y="791.91" width="81.165" height="68.423" transform="matrix(1,0,0,1,0,0)" fill="rgb(235,235,235)"/><rect x="5352.835" y="791.91" width="81.165" height="68.423" transform="matrix(1,0,0,1,0,0)" fill="rgb(235,235,235)"/></g><rect x="5140.269" y="709.333" width="148.731" height="182.896" transform="matrix(1,0,0,1,0,0)" fill="rgb(235,235,235)"/></g></g><g><g><rect x="3284.267" y="1040.269" width="2194.464" height="209.064" transform="matrix(1,0,0,1,0,0)" fill="rgb(87,79,79)"/><path d=" M 5427.099 1140.865 L 5427.099 1151.97 L 5365.548 1151.97 L 5365.548 1140.865 L 5427.099 1140.865 L 5427.099 1140.865 Z  M 5295.358 1140.865 L 5295.358 1151.97 L 5233.806 1151.97 L 5233.806 1140.865 L 5295.358 1140.865 L 5295.358 1140.865 Z  M 5163.616 1140.865 L 5163.616 1151.97 L 5102.065 1151.97 L 5102.065 1140.865 L 5163.616 1140.865 L 5163.616 1140.865 Z  M 5031.873 1140.865 L 5031.873 1151.97 L 4970.324 1151.97 L 4970.324 1140.865 L 5031.873 1140.865 L 5031.873 1140.865 Z  M 4900.132 1140.865 L 4900.132 1151.97 L 4838.582 1151.97 L 4838.582 1140.865 L 4900.132 1140.865 L 4900.132 1140.865 Z  M 4768.39 1140.865 L 4768.39 1151.97 L 4706.839 1151.97 L 4706.839 1140.865 L 4768.39 1140.865 L 4768.39 1140.865 Z  M 4636.649 1140.865 L 4636.649 1151.97 L 4575.098 1151.97 L 4575.098 1140.865 L 4636.649 1140.865 L 4636.649 1140.865 Z  M 4504.908 1140.865 L 4504.908 1151.97 L 4443.356 1151.97 L 4443.356 1140.865 L 4504.908 1140.865 L 4504.908 1140.865 Z  M 4373.164 1140.865 L 4373.164 1151.97 L 4311.615 1151.97 L 4311.615 1140.865 L 4373.164 1140.865 L 4373.164 1140.865 Z  M 4241.423 1140.865 L 4241.423 1151.97 L 4179.874 1151.97 L 4179.874 1140.865 L 4241.423 1140.865 L 4241.423 1140.865 Z  M 4109.682 1140.865 L 4109.682 1151.97 L 4048.13 1151.97 L 4048.13 1140.865 L 4109.682 1140.865 L 4109.682 1140.865 Z  M 3977.94 1140.865 L 3977.94 1151.97 L 3916.389 1151.97 L 3916.389 1140.865 L 3977.94 1140.865 L 3977.94 1140.865 Z  M 3846.199 1140.865 L 3846.199 1151.97 L 3784.648 1151.97 L 3784.648 1140.865 L 3846.199 1140.865 L 3846.199 1140.865 Z  M 3714.455 1140.865 L 3714.455 1151.97 L 3652.906 1151.97 L 3652.906 1140.865 L 3714.455 1140.865 L 3714.455 1140.865 Z  M 3582.714 1140.865 L 3582.714 1151.97 L 3521.165 1151.97 L 3521.165 1140.865 L 3582.714 1140.865 L 3582.714 1140.865 Z  M 3450.973 1140.865 L 3450.973 1151.97 L 3389.421 1151.97 L 3389.421 1140.865 L 3450.973 1140.865 L 3450.973 1140.865 Z " fill-rule="evenodd" fill="rgb(255,255,255)"/></g><g><rect x="-28.117" y="1040.269" width="3313.413" height="209.064" transform="matrix(1,0,0,1,0,0)" fill="rgb(87,79,79)"/><path d=" M 2370.8 1140.865 L 2370.8 1151.97 L 2308.467 1151.97 L 2308.467 1140.865 L 2370.8 1140.865 L 2370.8 1140.865 Z  M 2237.384 1140.865 L 2237.384 1151.97 L 2175.053 1151.97 L 2175.053 1140.865 L 2237.384 1140.865 L 2237.384 1140.865 Z  M 2103.97 1140.865 L 2103.97 1151.97 L 2041.64 1151.97 L 2041.64 1140.865 L 2103.97 1140.865 L 2103.97 1140.865 Z  M 1970.556 1140.865 L 1970.556 1151.97 L 1908.224 1151.97 L 1908.224 1140.865 L 1970.556 1140.865 L 1970.556 1140.865 Z  M 1837.143 1140.865 L 1837.143 1151.97 L 1774.81 1151.97 L 1774.81 1140.865 L 1837.143 1140.865 L 1837.143 1140.865 Z  M 1703.729 1140.865 L 1703.729 1151.97 L 1641.396 1151.97 L 1641.396 1140.865 L 1703.729 1140.865 L 1703.729 1140.865 Z  M 1570.313 1140.865 L 1570.313 1151.97 L 1507.982 1151.97 L 1507.982 1140.865 L 1570.313 1140.865 L 1570.313 1140.865 Z  M 1436.899 1140.865 L 1436.899 1151.97 L 1374.568 1151.97 L 1374.568 1140.865 L 1436.899 1140.865 L 1436.899 1140.865 Z  M 1303.485 1140.865 L 1303.485 1151.97 L 1241.152 1151.97 L 1241.152 1140.865 L 1303.485 1140.865 L 1303.485 1140.865 Z  M 1170.071 1140.865 L 1170.071 1151.97 L 1107.739 1151.97 L 1107.739 1140.865 L 1170.071 1140.865 L 1170.071 1140.865 Z  M 1036.658 1140.865 L 1036.658 1151.97 L 974.325 1151.97 L 974.325 1140.865 L 1036.658 1140.865 L 1036.658 1140.865 Z  M 903.242 1140.865 L 903.242 1151.97 L 840.911 1151.97 L 840.911 1140.865 L 903.242 1140.865 L 903.242 1140.865 Z  M 769.828 1140.865 L 769.828 1151.97 L 707.498 1151.97 L 707.498 1140.865 L 769.828 1140.865 L 769.828 1140.865 Z  M 636.414 1140.865 L 636.414 1151.97 L 574.082 1151.97 L 574.082 1140.865 L 636.414 1140.865 L 636.414 1140.865 Z  M 503 1140.865 L 503 1151.97 L 440.668 1151.97 L 440.668 1140.865 L 503 1140.865 L 503 1140.865 Z  M 369.587 1140.865 L 369.587 1151.97 L 307.254 1151.97 L 307.254 1140.865 L 369.587 1140.865 L 369.587 1140.865 Z  M 236.171 1140.865 L 236.171 1151.97 L 173.84 1151.97 L 173.84 1140.865 L 236.171 1140.865 L 236.171 1140.865 Z  M 102.757 1140.865 L 102.757 1151.97 L 40.427 1151.97 L 40.427 1140.865 L 102.757 1140.865 L 102.757 1140.865 Z  M 3306.739 1140.865 L 3306.739 1151.97 L 3244.407 1151.97 L 3244.407 1140.865 L 3306.739 1140.865 L 3306.739 1140.865 Z  M 3173.326 1140.865 L 3173.326 1151.97 L 3110.993 1151.97 L 3110.993 1140.865 L 3173.326 1140.865 L 3173.326 1140.865 Z  M 3039.912 1140.865 L 3039.912 1151.97 L 2977.579 1151.97 L 2977.579 1140.865 L 3039.912 1140.865 L 3039.912 1140.865 Z  M 2906.496 1140.865 L 2906.496 1151.97 L 2844.165 1151.97 L 2844.165 1140.865 L 2906.496 1140.865 L 2906.496 1140.865 Z  M 2773.082 1140.865 L 2773.082 1151.97 L 2710.752 1151.97 L 2710.752 1140.865 L 2773.082 1140.865 L 2773.082 1140.865 Z  M 2639.668 1140.865 L 2639.668 1151.97 L 2577.336 1151.97 L 2577.336 1140.865 L 2639.668 1140.865 L 2639.668 1140.865 Z  M 2506.255 1140.865 L 2506.255 1151.97 L 2443.922 1151.97 L 2443.922 1140.865 L 2506.255 1140.865 L 2506.255 1140.865 Z " fill-rule="evenodd" fill="rgb(255,255,255)"/></g></g><g><g><clipPath id="_clipPath_NGXEYBlXhdxQgcJQ9msh3NlJZHuIQCan"><path d=" M -10937 -2500.667 L 10943 -2500.667 L 10943 2499.333 L -10937 2499.333 L -10937 -2500.667 Z  M 428.712 1046.513 L 161.29 1046.848 L 276.203 895.898 L 543.63 895.563 L 428.712 1046.513 L 428.712 1046.513 Z " fill-rule="evenodd" fill="rgb(255,255,255)"/></clipPath><g clip-path="url(#_clipPath_NGXEYBlXhdxQgcJQ9msh3NlJZHuIQCan)"><g><clipPath id="_clipPath_C6k2ut7IONtrUYgAGtDc9e7RWILAmnnc"><path d=" M -10937 -2500.667 L 10943 -2500.667 L 10943 2499.333 L -10937 2499.333 L -10937 -2500.667 Z  M 428.712 1046.513 L 161.29 1046.848 L 276.203 895.898 L 543.63 895.563 L 428.712 1046.513 L 428.712 1046.513 L 428.712 1046.513 Z " fill-rule="evenodd" fill="rgb(255,255,255)"/></clipPath><g clip-path="url(#_clipPath_C6k2ut7IONtrUYgAGtDc9e7RWILAmnnc)"><mask id="_mask_ICTBAh517NC9E4pf41yRFczrbYBfonft" x="-200%" y="-200%" width="400%" height="400%"><rect x="-200%" y="-200%" width="400%" height="400%" style="fill:white;"/><path d=" M 428.712 1046.513 L 161.29 1046.848 L 276.203 895.898 L 543.63 895.563 L 428.712 1046.513 L 428.712 1046.513 Z " fill="black" stroke="none"/></mask><path d=" M 428.712 1046.513 L 161.29 1046.848 L 276.203 895.898 L 543.63 895.563 L 428.712 1046.513 L 428.712 1046.513 Z " fill="rgb(157,153,153)" mask="url(#_mask_ICTBAh517NC9E4pf41yRFczrbYBfonft)" vector-effect="non-scaling-stroke" stroke-width="6" stroke="rgb(121,117,117)" stroke-opacity="1000000" stroke-linejoin="miter" stroke-linecap="square" stroke-miterlimit="3"/><path d=" M 428.712 1046.513 L 161.29 1046.848 L 276.203 895.898 L 543.63 895.563 L 428.712 1046.513 L 428.712 1046.513 Z " fill="rgb(157,153,153)"/></g><path d=" M 428.712 1046.513 L 161.29 1046.848 L 276.203 895.898 L 543.63 895.563 L 428.712 1046.513 L 428.712 1046.513 Z " fill="rgb(157,153,153)"/></g></g><path d=" M 428.712 1046.513 L 161.29 1046.848 L 276.203 895.898 L 543.63 895.563 L 428.712 1046.513 L 428.712 1046.513 Z " fill="rgb(157,153,153)"/><clipPath id="_clipPath_Lc4rxuWk4W1no6pAAaCBBoLkPMNAmXFv"><path d=" M -10937 -2500.667 L 10943 -2500.667 L 10943 2499.333 L -10937 2499.333 L -10937 -2500.667 Z  M 156.918 1046.513 L -116.333 1046.848 L 1.084 895.898 L 274.339 895.563 L 156.918 1046.513 L 156.918 1046.513 Z " fill-rule="evenodd" fill="rgb(255,255,255)"/></clipPath><g clip-path="url(#_clipPath_Lc4rxuWk4W1no6pAAaCBBoLkPMNAmXFv)"><g><clipPath id="_clipPath_hu5qz6QUYOeGhMW23qQ8nVOSI709a8Hs"><path d=" M -10937 -2500.667 L 10943 -2500.667 L 10943 2499.333 L -10937 2499.333 L -10937 -2500.667 Z  M 156.918 1046.513 L -116.333 1046.848 L 1.084 895.898 L 274.339 895.563 L 156.918 1046.513 L 156.918 1046.513 L 156.918 1046.513 Z " fill-rule="evenodd" fill="rgb(255,255,255)"/></clipPath><g clip-path="url(#_clipPath_hu5qz6QUYOeGhMW23qQ8nVOSI709a8Hs)"><mask id="_mask_nMQqrcpTj8zFO9jXE5hN5gXSTep7SL8i" x="-200%" y="-200%" width="400%" height="400%"><rect x="-200%" y="-200%" width="400%" height="400%" style="fill:white;"/><path d=" M 156.918 1046.513 L -116.333 1046.848 L 1.084 895.898 L 274.339 895.563 L 156.918 1046.513 L 156.918 1046.513 Z " fill="black" stroke="none"/></mask><path d=" M 156.918 1046.513 L -116.333 1046.848 L 1.084 895.898 L 274.339 895.563 L 156.918 1046.513 L 156.918 1046.513 Z " fill="rgb(157,153,153)" mask="url(#_mask_nMQqrcpTj8zFO9jXE5hN5gXSTep7SL8i)" vector-effect="non-scaling-stroke" stroke-width="6" stroke="rgb(121,117,117)" stroke-opacity="1000000" stroke-linejoin="miter" stroke-linecap="square" stroke-miterlimit="3"/><path d=" M 156.918 1046.513 L -116.333 1046.848 L 1.084 895.898 L 274.339 895.563 L 156.918 1046.513 L 156.918 1046.513 Z " fill="rgb(157,153,153)"/></g><path d=" M 156.918 1046.513 L -116.333 1046.848 L 1.084 895.898 L 274.339 895.563 L 156.918 1046.513 L 156.918 1046.513 Z " fill="rgb(157,153,153)"/></g></g><path d=" M 156.918 1046.513 L -116.333 1046.848 L 1.084 895.898 L 274.339 895.563 L 156.918 1046.513 L 156.918 1046.513 Z " fill="rgb(157,153,153)"/><clipPath id="_clipPath_fQCEFRBPIo8uIFk9kXo7T4TO3TWATZtZ"><path d=" M -10937 -2500.667 L 10943 -2500.667 L 10943 2499.333 L -10937 2499.333 L -10937 -2500.667 Z  M 699.25 1046.513 L 431.823 1046.848 L 546.74 895.898 L 814.167 895.563 L 699.25 1046.513 L 699.25 1046.513 Z " fill-rule="evenodd" fill="rgb(255,255,255)"/></clipPath><g clip-path="url(#_clipPath_fQCEFRBPIo8uIFk9kXo7T4TO3TWATZtZ)"><g><clipPath id="_clipPath_dtH0oD7tO2Zcwe4l1JiSOZHIlgDzk6xQ"><path d=" M -10937 -2500.667 L 10943 -2500.667 L 10943 2499.333 L -10937 2499.333 L -10937 -2500.667 Z  M 699.25 1046.513 L 431.823 1046.848 L 546.74 895.898 L 814.167 895.563 L 699.25 1046.513 L 699.25 1046.513 L 699.25 1046.513 Z " fill-rule="evenodd" fill="rgb(255,255,255)"/></clipPath><g clip-path="url(#_clipPath_dtH0oD7tO2Zcwe4l1JiSOZHIlgDzk6xQ)"><mask id="_mask_um7DqT7YVl919r3CteMZQuj2Q5c2BuGB" x="-200%" y="-200%" width="400%" height="400%"><rect x="-200%" y="-200%" width="400%" height="400%" style="fill:white;"/><path d=" M 699.25 1046.513 L 431.823 1046.848 L 546.74 895.898 L 814.167 895.563 L 699.25 1046.513 L 699.25 1046.513 Z " fill="black" stroke="none"/></mask><path d=" M 699.25 1046.513 L 431.823 1046.848 L 546.74 895.898 L 814.167 895.563 L 699.25 1046.513 L 699.25 1046.513 Z " fill="rgb(157,153,153)" mask="url(#_mask_um7DqT7YVl919r3CteMZQuj2Q5c2BuGB)" vector-effect="non-scaling-stroke" stroke-width="6" stroke="rgb(121,117,117)" stroke-opacity="1000000" stroke-linejoin="miter" stroke-linecap="square" stroke-miterlimit="3"/><path d=" M 699.25 1046.513 L 431.823 1046.848 L 546.74 895.898 L 814.167 895.563 L 699.25 1046.513 L 699.25 1046.513 Z " fill="rgb(157,153,153)"/></g><path d=" M 699.25 1046.513 L 431.823 1046.848 L 546.74 895.898 L 814.167 895.563 L 699.25 1046.513 L 699.25 1046.513 Z " fill="rgb(157,153,153)"/></g></g><path d=" M 699.25 1046.513 L 431.823 1046.848 L 546.74 895.898 L 814.167 895.563 L 699.25 1046.513 L 699.25 1046.513 Z " fill="rgb(157,153,153)"/><clipPath id="_clipPath_JGuLoJu5iwkHDCYyIRD6FOYxWXO3p8ku"><path d=" M -10937 -2500.667 L 10943 -2500.667 L 10943 2499.333 L -10937 2499.333 L -10937 -2500.667 Z  M 969.788 1046.513 L 702.361 1046.848 L 817.278 895.898 L 1084.7 895.563 L 969.788 1046.513 L 969.788 1046.513 Z " fill-rule="evenodd" fill="rgb(255,255,255)"/></clipPath><g clip-path="url(#_clipPath_JGuLoJu5iwkHDCYyIRD6FOYxWXO3p8ku)"><g><clipPath id="_clipPath_aN4RSfui87DOSBN73zkCwn95L5yFZIqA"><path d=" M -10937 -2500.667 L 10943 -2500.667 L 10943 2499.333 L -10937 2499.333 L -10937 -2500.667 Z  M 969.788 1046.513 L 702.361 1046.848 L 817.278 895.898 L 1084.7 895.563 L 969.788 1046.513 L 969.788 1046.513 L 969.788 1046.513 Z " fill-rule="evenodd" fill="rgb(255,255,255)"/></clipPath><g clip-path="url(#_clipPath_aN4RSfui87DOSBN73zkCwn95L5yFZIqA)"><mask id="_mask_uGCng2taiHHh4vYiLwJ3JbMs02oLAShM" x="-200%" y="-200%" width="400%" height="400%"><rect x="-200%" y="-200%" width="400%" height="400%" style="fill:white;"/><path d=" M 969.788 1046.513 L 702.361 1046.848 L 817.278 895.898 L 1084.7 895.563 L 969.788 1046.513 L 969.788 1046.513 Z " fill="black" stroke="none"/></mask><path d=" M 969.788 1046.513 L 702.361 1046.848 L 817.278 895.898 L 1084.7 895.563 L 969.788 1046.513 L 969.788 1046.513 Z " fill="rgb(157,153,153)" mask="url(#_mask_uGCng2taiHHh4vYiLwJ3JbMs02oLAShM)" vector-effect="non-scaling-stroke" stroke-width="6" stroke="rgb(121,117,117)" stroke-opacity="1000000" stroke-linejoin="miter" stroke-linecap="square" stroke-miterlimit="3"/><path d=" M 969.788 1046.513 L 702.361 1046.848 L 817.278 895.898 L 1084.7 895.563 L 969.788 1046.513 L 969.788 1046.513 Z " fill="rgb(157,153,153)"/></g><path d=" M 969.788 1046.513 L 702.361 1046.848 L 817.278 895.898 L 1084.7 895.563 L 969.788 1046.513 L 969.788 1046.513 Z " fill="rgb(157,153,153)"/></g></g><path d=" M 969.788 1046.513 L 702.361 1046.848 L 817.278 895.898 L 1084.7 895.563 L 969.788 1046.513 L 969.788 1046.513 Z " fill="rgb(157,153,153)"/><clipPath id="_clipPath_1MwtZYOhBe0hyGZXmRCQmhjCCk4E6Jt3"><path d=" M -10937 -2500.667 L 10943 -2500.667 L 10943 2499.333 L -10937 2499.333 L -10937 -2500.667 Z  M 1240.321 1046.513 L 972.899 1046.848 L 1087.811 895.898 L 1355.238 895.563 L 1240.321 1046.513 L 1240.321 1046.513 Z " fill-rule="evenodd" fill="rgb(255,255,255)"/></clipPath><g clip-path="url(#_clipPath_1MwtZYOhBe0hyGZXmRCQmhjCCk4E6Jt3)"><g><clipPath id="_clipPath_9Y9EQBRf53bZgII7zVYhZ1DoIKuWF61I"><path d=" M -10937 -2500.667 L 10943 -2500.667 L 10943 2499.333 L -10937 2499.333 L -10937 -2500.667 Z  M 1240.321 1046.513 L 972.899 1046.848 L 1087.811 895.898 L 1355.238 895.563 L 1240.321 1046.513 L 1240.321 1046.513 L 1240.321 1046.513 Z " fill-rule="evenodd" fill="rgb(255,255,255)"/></clipPath><g clip-path="url(#_clipPath_9Y9EQBRf53bZgII7zVYhZ1DoIKuWF61I)"><mask id="_mask_4J2q2hLo1ZgVQPcHXVNCserkH4v09agG" x="-200%" y="-200%" width="400%" height="400%"><rect x="-200%" y="-200%" width="400%" height="400%" style="fill:white;"/><path d=" M 1240.321 1046.513 L 972.899 1046.848 L 1087.811 895.898 L 1355.238 895.563 L 1240.321 1046.513 L 1240.321 1046.513 Z " fill="black" stroke="none"/></mask><path d=" M 1240.321 1046.513 L 972.899 1046.848 L 1087.811 895.898 L 1355.238 895.563 L 1240.321 1046.513 L 1240.321 1046.513 Z " fill="rgb(157,153,153)" mask="url(#_mask_4J2q2hLo1ZgVQPcHXVNCserkH4v09agG)" vector-effect="non-scaling-stroke" stroke-width="6" stroke="rgb(121,117,117)" stroke-opacity="1000000" stroke-linejoin="miter" stroke-linecap="square" stroke-miterlimit="3"/><path d=" M 1240.321 1046.513 L 972.899 1046.848 L 1087.811 895.898 L 1355.238 895.563 L 1240.321 1046.513 L 1240.321 1046.513 Z " fill="rgb(157,153,153)"/></g><path d=" M 1240.321 1046.513 L 972.899 1046.848 L 1087.811 895.898 L 1355.238 895.563 L 1240.321 1046.513 L 1240.321 1046.513 Z " fill="rgb(157,153,153)"/></g></g><path d=" M 1240.321 1046.513 L 972.899 1046.848 L 1087.811 895.898 L 1355.238 895.563 L 1240.321 1046.513 L 1240.321 1046.513 Z " fill="rgb(157,153,153)"/><clipPath id="_clipPath_JFHpj9SMjfc2YEvGciRL0yXsdHR9R49r"><path d=" M -10937 -2500.667 L 10943 -2500.667 L 10943 2499.333 L -10937 2499.333 L -10937 -2500.667 Z  M 1510.858 1046.513 L 1243.432 1046.848 L 1358.349 895.898 L 1625.776 895.563 L 1510.858 1046.513 L 1510.858 1046.513 Z " fill-rule="evenodd" fill="rgb(255,255,255)"/></clipPath><g clip-path="url(#_clipPath_JFHpj9SMjfc2YEvGciRL0yXsdHR9R49r)"><g><clipPath id="_clipPath_qwiKm1kEOQaT4LRPQRAyLXzT1fvjZSFv"><path d=" M -10937 -2500.667 L 10943 -2500.667 L 10943 2499.333 L -10937 2499.333 L -10937 -2500.667 Z  M 1510.858 1046.513 L 1243.432 1046.848 L 1358.349 895.898 L 1625.776 895.563 L 1510.858 1046.513 L 1510.858 1046.513 L 1510.858 1046.513 Z " fill-rule="evenodd" fill="rgb(255,255,255)"/></clipPath><g clip-path="url(#_clipPath_qwiKm1kEOQaT4LRPQRAyLXzT1fvjZSFv)"><mask id="_mask_Ypi2yODW4gmEaYuijLglKqHZ1gwqNnSM" x="-200%" y="-200%" width="400%" height="400%"><rect x="-200%" y="-200%" width="400%" height="400%" style="fill:white;"/><path d=" M 1510.858 1046.513 L 1243.432 1046.848 L 1358.349 895.898 L 1625.776 895.563 L 1510.858 1046.513 L 1510.858 1046.513 Z " fill="black" stroke="none"/></mask><path d=" M 1510.858 1046.513 L 1243.432 1046.848 L 1358.349 895.898 L 1625.776 895.563 L 1510.858 1046.513 L 1510.858 1046.513 Z " fill="rgb(157,153,153)" mask="url(#_mask_Ypi2yODW4gmEaYuijLglKqHZ1gwqNnSM)" vector-effect="non-scaling-stroke" stroke-width="6" stroke="rgb(121,117,117)" stroke-opacity="1000000" stroke-linejoin="miter" stroke-linecap="square" stroke-miterlimit="3"/><path d=" M 1510.858 1046.513 L 1243.432 1046.848 L 1358.349 895.898 L 1625.776 895.563 L 1510.858 1046.513 L 1510.858 1046.513 Z " fill="rgb(157,153,153)"/></g><path d=" M 1510.858 1046.513 L 1243.432 1046.848 L 1358.349 895.898 L 1625.776 895.563 L 1510.858 1046.513 L 1510.858 1046.513 Z " fill="rgb(157,153,153)"/></g></g><path d=" M 1510.858 1046.513 L 1243.432 1046.848 L 1358.349 895.898 L 1625.776 895.563 L 1510.858 1046.513 L 1510.858 1046.513 Z " fill="rgb(157,153,153)"/><clipPath id="_clipPath_hs70Dcdt1P86Y8BLVOWmvulRK7jnA6A7"><path d=" M -10937 -2500.667 L 10943 -2500.667 L 10943 2499.333 L -10937 2499.333 L -10937 -2500.667 Z  M 1510.858 1046.513 L 1243.432 1046.848 L 1358.349 895.898 L 1625.776 895.563 L 1510.858 1046.513 L 1510.858 1046.513 Z " fill-rule="evenodd" fill="rgb(255,255,255)"/></clipPath><g clip-path="url(#_clipPath_hs70Dcdt1P86Y8BLVOWmvulRK7jnA6A7)"><g><clipPath id="_clipPath_bHltnp2WD8NQsyDLDTQxdOPqzdsN7X9s"><path d=" M -10937 -2500.667 L 10943 -2500.667 L 10943 2499.333 L -10937 2499.333 L -10937 -2500.667 Z  M 1510.858 1046.513 L 1243.432 1046.848 L 1358.349 895.898 L 1625.776 895.563 L 1510.858 1046.513 L 1510.858 1046.513 L 1510.858 1046.513 Z " fill-rule="evenodd" fill="rgb(255,255,255)"/></clipPath><g clip-path="url(#_clipPath_bHltnp2WD8NQsyDLDTQxdOPqzdsN7X9s)"><mask id="_mask_Cp82soc3Lj0VyeHmQkDGEPTDl5oeomiJ" x="-200%" y="-200%" width="400%" height="400%"><rect x="-200%" y="-200%" width="400%" height="400%" style="fill:white;"/><path d=" M 1510.858 1046.513 L 1243.432 1046.848 L 1358.349 895.898 L 1625.776 895.563 L 1510.858 1046.513 L 1510.858 1046.513 Z " fill="black" stroke="none"/></mask><path d=" M 1510.858 1046.513 L 1243.432 1046.848 L 1358.349 895.898 L 1625.776 895.563 L 1510.858 1046.513 L 1510.858 1046.513 Z " fill="rgb(157,153,153)" mask="url(#_mask_Cp82soc3Lj0VyeHmQkDGEPTDl5oeomiJ)" vector-effect="non-scaling-stroke" stroke-width="6" stroke="rgb(121,117,117)" stroke-opacity="1000000" stroke-linejoin="miter" stroke-linecap="square" stroke-miterlimit="3"/><path d=" M 1510.858 1046.513 L 1243.432 1046.848 L 1358.349 895.898 L 1625.776 895.563 L 1510.858 1046.513 L 1510.858 1046.513 Z " fill="rgb(157,153,153)"/></g><path d=" M 1510.858 1046.513 L 1243.432 1046.848 L 1358.349 895.898 L 1625.776 895.563 L 1510.858 1046.513 L 1510.858 1046.513 Z " fill="rgb(157,153,153)"/></g></g><path d=" M 1510.858 1046.513 L 1243.432 1046.848 L 1358.349 895.898 L 1625.776 895.563 L 1510.858 1046.513 L 1510.858 1046.513 Z " fill="rgb(157,153,153)"/></g><g><clipPath id="_clipPath_CDUXqRxYayJpcAjuIrRANUHiNQSWaJ53"><path d=" M -10937 -2500.667 L 10943 -2500.667 L 10943 2499.333 L -10937 2499.333 L -10937 -2500.667 Z  M 3974.928 1046.513 L 3704.227 1046.848 L 3820.551 895.898 L 4091.252 895.563 L 3974.928 1046.513 L 3974.928 1046.513 Z " fill-rule="evenodd" fill="rgb(255,255,255)"/></clipPath><g clip-path="url(#_clipPath_CDUXqRxYayJpcAjuIrRANUHiNQSWaJ53)"><g><clipPath id="_clipPath_SNPPuZa7itbVQdASjDr1cU3NKlGruqUi"><path d=" M -10937 -2500.667 L 10943 -2500.667 L 10943 2499.333 L -10937 2499.333 L -10937 -2500.667 Z  M 3974.928 1046.513 L 3704.227 1046.848 L 3820.551 895.898 L 4091.252 895.563 L 3974.928 1046.513 L 3974.928 1046.513 L 3974.928 1046.513 Z " fill-rule="evenodd" fill="rgb(255,255,255)"/></clipPath><g clip-path="url(#_clipPath_SNPPuZa7itbVQdASjDr1cU3NKlGruqUi)"><mask id="_mask_LTambbOTzm0RIgsT4X8LJXmyUIiUGv2k" x="-200%" y="-200%" width="400%" height="400%"><rect x="-200%" y="-200%" width="400%" height="400%" style="fill:white;"/><path d=" M 3974.928 1046.513 L 3704.227 1046.848 L 3820.551 895.898 L 4091.252 895.563 L 3974.928 1046.513 L 3974.928 1046.513 Z " fill="black" stroke="none"/></mask><path d=" M 3974.928 1046.513 L 3704.227 1046.848 L 3820.551 895.898 L 4091.252 895.563 L 3974.928 1046.513 L 3974.928 1046.513 Z " fill="rgb(157,153,153)" mask="url(#_mask_LTambbOTzm0RIgsT4X8LJXmyUIiUGv2k)" vector-effect="non-scaling-stroke" stroke-width="6" stroke="rgb(121,117,117)" stroke-opacity="1000000" stroke-linejoin="miter" stroke-linecap="square" stroke-miterlimit="3"/><path d=" M 3974.928 1046.513 L 3704.227 1046.848 L 3820.551 895.898 L 4091.252 895.563 L 3974.928 1046.513 L 3974.928 1046.513 Z " fill="rgb(157,153,153)"/></g><path d=" M 3974.928 1046.513 L 3704.227 1046.848 L 3820.551 895.898 L 4091.252 895.563 L 3974.928 1046.513 L 3974.928 1046.513 Z " fill="rgb(157,153,153)"/></g></g><path d=" M 3974.928 1046.513 L 3704.227 1046.848 L 3820.551 895.898 L 4091.252 895.563 L 3974.928 1046.513 L 3974.928 1046.513 Z " fill="rgb(157,153,153)"/><clipPath id="_clipPath_refjXvanAlr8PPQJMVS7G4B37Ay5uSqo"><path d=" M -10937 -2500.667 L 10943 -2500.667 L 10943 2499.333 L -10937 2499.333 L -10937 -2500.667 Z  M 4248.779 1046.513 L 3978.078 1046.848 L 4094.402 895.898 L 4365.099 895.563 L 4248.779 1046.513 L 4248.779 1046.513 Z " fill-rule="evenodd" fill="rgb(255,255,255)"/></clipPath><g clip-path="url(#_clipPath_refjXvanAlr8PPQJMVS7G4B37Ay5uSqo)"><g><clipPath id="_clipPath_H8XMAnBSAv5LsTQt3f7zrvbHv3LWG4SZ"><path d=" M -10937 -2500.667 L 10943 -2500.667 L 10943 2499.333 L -10937 2499.333 L -10937 -2500.667 Z  M 4248.779 1046.513 L 3978.078 1046.848 L 4094.402 895.898 L 4365.099 895.563 L 4248.779 1046.513 L 4248.779 1046.513 L 4248.779 1046.513 Z " fill-rule="evenodd" fill="rgb(255,255,255)"/></clipPath><g clip-path="url(#_clipPath_H8XMAnBSAv5LsTQt3f7zrvbHv3LWG4SZ)"><mask id="_mask_4sXNNYIFTiWXgVmYkLMIKaxQuhJcazEj" x="-200%" y="-200%" width="400%" height="400%"><rect x="-200%" y="-200%" width="400%" height="400%" style="fill:white;"/><path d=" M 4248.779 1046.513 L 3978.078 1046.848 L 4094.402 895.898 L 4365.099 895.563 L 4248.779 1046.513 L 4248.779 1046.513 Z " fill="black" stroke="none"/></mask><path d=" M 4248.779 1046.513 L 3978.078 1046.848 L 4094.402 895.898 L 4365.099 895.563 L 4248.779 1046.513 L 4248.779 1046.513 Z " fill="rgb(157,153,153)" mask="url(#_mask_4sXNNYIFTiWXgVmYkLMIKaxQuhJcazEj)" vector-effect="non-scaling-stroke" stroke-width="6" stroke="rgb(121,117,117)" stroke-opacity="1000000" stroke-linejoin="miter" stroke-linecap="square" stroke-miterlimit="3"/><path d=" M 4248.779 1046.513 L 3978.078 1046.848 L 4094.402 895.898 L 4365.099 895.563 L 4248.779 1046.513 L 4248.779 1046.513 Z " fill="rgb(157,153,153)"/></g><path d=" M 4248.779 1046.513 L 3978.078 1046.848 L 4094.402 895.898 L 4365.099 895.563 L 4248.779 1046.513 L 4248.779 1046.513 Z " fill="rgb(157,153,153)"/></g></g><path d=" M 4248.779 1046.513 L 3978.078 1046.848 L 4094.402 895.898 L 4365.099 895.563 L 4248.779 1046.513 L 4248.779 1046.513 Z " fill="rgb(157,153,153)"/><clipPath id="_clipPath_caClIndObyqmMEWsDUhFBWSwTqe0LgRt"><path d=" M -10937 -2500.667 L 10943 -2500.667 L 10943 2499.333 L -10937 2499.333 L -10937 -2500.667 Z  M 4522.625 1046.513 L 4251.924 1046.848 L 4368.248 895.898 L 4638.95 895.563 L 4522.625 1046.513 L 4522.625 1046.513 Z " fill-rule="evenodd" fill="rgb(255,255,255)"/></clipPath><g clip-path="url(#_clipPath_caClIndObyqmMEWsDUhFBWSwTqe0LgRt)"><g><clipPath id="_clipPath_dwsXgQ3wuENmzCZQFkHRkbqLb4TnfZZ0"><path d=" M -10937 -2500.667 L 10943 -2500.667 L 10943 2499.333 L -10937 2499.333 L -10937 -2500.667 Z  M 4522.625 1046.513 L 4251.924 1046.848 L 4368.248 895.898 L 4638.95 895.563 L 4522.625 1046.513 L 4522.625 1046.513 L 4522.625 1046.513 Z " fill-rule="evenodd" fill="rgb(255,255,255)"/></clipPath><g clip-path="url(#_clipPath_dwsXgQ3wuENmzCZQFkHRkbqLb4TnfZZ0)"><mask id="_mask_PYy7LXrCrwkqcdQU2kAM96MgHhRXdhJy" x="-200%" y="-200%" width="400%" height="400%"><rect x="-200%" y="-200%" width="400%" height="400%" style="fill:white;"/><path d=" M 4522.625 1046.513 L 4251.924 1046.848 L 4368.248 895.898 L 4638.95 895.563 L 4522.625 1046.513 L 4522.625 1046.513 Z " fill="black" stroke="none"/></mask><path d=" M 4522.625 1046.513 L 4251.924 1046.848 L 4368.248 895.898 L 4638.95 895.563 L 4522.625 1046.513 L 4522.625 1046.513 Z " fill="rgb(157,153,153)" mask="url(#_mask_PYy7LXrCrwkqcdQU2kAM96MgHhRXdhJy)" vector-effect="non-scaling-stroke" stroke-width="6" stroke="rgb(121,117,117)" stroke-opacity="1000000" stroke-linejoin="miter" stroke-linecap="square" stroke-miterlimit="3"/><path d=" M 4522.625 1046.513 L 4251.924 1046.848 L 4368.248 895.898 L 4638.95 895.563 L 4522.625 1046.513 L 4522.625 1046.513 Z " fill="rgb(157,153,153)"/></g><path d=" M 4522.625 1046.513 L 4251.924 1046.848 L 4368.248 895.898 L 4638.95 895.563 L 4522.625 1046.513 L 4522.625 1046.513 Z " fill="rgb(157,153,153)"/></g></g><path d=" M 4522.625 1046.513 L 4251.924 1046.848 L 4368.248 895.898 L 4638.95 895.563 L 4522.625 1046.513 L 4522.625 1046.513 Z " fill="rgb(157,153,153)"/><clipPath id="_clipPath_Vc1h62Bs2WeUpykl2G7CwY3GOzUaC2Vm"><path d=" M -10937 -2500.667 L 10943 -2500.667 L 10943 2499.333 L -10937 2499.333 L -10937 -2500.667 Z  M 4796.476 1046.513 L 4525.774 1046.848 L 4642.098 895.898 L 4912.8 895.563 L 4796.476 1046.513 L 4796.476 1046.513 Z " fill-rule="evenodd" fill="rgb(255,255,255)"/></clipPath><g clip-path="url(#_clipPath_Vc1h62Bs2WeUpykl2G7CwY3GOzUaC2Vm)"><g><clipPath id="_clipPath_tqG4bXrlSv9ZrfG4LwvSx55jhVARs6AE"><path d=" M -10937 -2500.667 L 10943 -2500.667 L 10943 2499.333 L -10937 2499.333 L -10937 -2500.667 Z  M 4796.476 1046.513 L 4525.774 1046.848 L 4642.098 895.898 L 4912.8 895.563 L 4796.476 1046.513 L 4796.476 1046.513 L 4796.476 1046.513 Z " fill-rule="evenodd" fill="rgb(255,255,255)"/></clipPath><g clip-path="url(#_clipPath_tqG4bXrlSv9ZrfG4LwvSx55jhVARs6AE)"><mask id="_mask_beA5CHDUTRhxIZjCzuxwPZ3QQmLnHaKP" x="-200%" y="-200%" width="400%" height="400%"><rect x="-200%" y="-200%" width="400%" height="400%" style="fill:white;"/><path d=" M 4796.476 1046.513 L 4525.774 1046.848 L 4642.098 895.898 L 4912.8 895.563 L 4796.476 1046.513 L 4796.476 1046.513 Z " fill="black" stroke="none"/></mask><path d=" M 4796.476 1046.513 L 4525.774 1046.848 L 4642.098 895.898 L 4912.8 895.563 L 4796.476 1046.513 L 4796.476 1046.513 Z " fill="rgb(157,153,153)" mask="url(#_mask_beA5CHDUTRhxIZjCzuxwPZ3QQmLnHaKP)" vector-effect="non-scaling-stroke" stroke-width="6" stroke="rgb(121,117,117)" stroke-opacity="1000000" stroke-linejoin="miter" stroke-linecap="square" stroke-miterlimit="3"/><path d=" M 4796.476 1046.513 L 4525.774 1046.848 L 4642.098 895.898 L 4912.8 895.563 L 4796.476 1046.513 L 4796.476 1046.513 Z " fill="rgb(157,153,153)"/></g><path d=" M 4796.476 1046.513 L 4525.774 1046.848 L 4642.098 895.898 L 4912.8 895.563 L 4796.476 1046.513 L 4796.476 1046.513 Z " fill="rgb(157,153,153)"/></g></g><path d=" M 4796.476 1046.513 L 4525.774 1046.848 L 4642.098 895.898 L 4912.8 895.563 L 4796.476 1046.513 L 4796.476 1046.513 Z " fill="rgb(157,153,153)"/><clipPath id="_clipPath_YJ3gZF2g8z6veXFOYoovcqVPBGg63XAI"><path d=" M -10937 -2500.667 L 10943 -2500.667 L 10943 2499.333 L -10937 2499.333 L -10937 -2500.667 Z  M 5070.326 1046.513 L 4799.625 1046.848 L 4915.945 895.898 L 5186.646 895.563 L 5070.326 1046.513 L 5070.326 1046.513 Z " fill-rule="evenodd" fill="rgb(255,255,255)"/></clipPath><g clip-path="url(#_clipPath_YJ3gZF2g8z6veXFOYoovcqVPBGg63XAI)"><g><clipPath id="_clipPath_SQ5xW4fTosDw5Dz4815DxBcwtYN9Z5Qv"><path d=" M -10937 -2500.667 L 10943 -2500.667 L 10943 2499.333 L -10937 2499.333 L -10937 -2500.667 Z  M 5070.326 1046.513 L 4799.625 1046.848 L 4915.945 895.898 L 5186.646 895.563 L 5070.326 1046.513 L 5070.326 1046.513 L 5070.326 1046.513 Z " fill-rule="evenodd" fill="rgb(255,255,255)"/></clipPath><g clip-path="url(#_clipPath_SQ5xW4fTosDw5Dz4815DxBcwtYN9Z5Qv)"><mask id="_mask_pny1FNWIi5K8DGSTo7CoWvJVy44vZg8H" x="-200%" y="-200%" width="400%" height="400%"><rect x="-200%" y="-200%" width="400%" height="400%" style="fill:white;"/><path d=" M 5070.326 1046.513 L 4799.625 1046.848 L 4915.945 895.898 L 5186.646 895.563 L 5070.326 1046.513 L 5070.326 1046.513 Z " fill="black" stroke="none"/></mask><path d=" M 5070.326 1046.513 L 4799.625 1046.848 L 4915.945 895.898 L 5186.646 895.563 L 5070.326 1046.513 L 5070.326 1046.513 Z " fill="rgb(157,153,153)" mask="url(#_mask_pny1FNWIi5K8DGSTo7CoWvJVy44vZg8H)" vector-effect="non-scaling-stroke" stroke-width="6" stroke="rgb(121,117,117)" stroke-opacity="1000000" stroke-linejoin="miter" stroke-linecap="square" stroke-miterlimit="3"/><path d=" M 5070.326 1046.513 L 4799.625 1046.848 L 4915.945 895.898 L 5186.646 895.563 L 5070.326 1046.513 L 5070.326 1046.513 Z " fill="rgb(157,153,153)"/></g><path d=" M 5070.326 1046.513 L 4799.625 1046.848 L 4915.945 895.898 L 5186.646 895.563 L 5070.326 1046.513 L 5070.326 1046.513 Z " fill="rgb(157,153,153)"/></g></g><path d=" M 5070.326 1046.513 L 4799.625 1046.848 L 4915.945 895.898 L 5186.646 895.563 L 5070.326 1046.513 L 5070.326 1046.513 Z " fill="rgb(157,153,153)"/><clipPath id="_clipPath_8K3UCKjtsa4PQHHc6MxI7pptaOScxkXr"><path d=" M -10937 -2500.667 L 10943 -2500.667 L 10943 2499.333 L -10937 2499.333 L -10937 -2500.667 Z  M 5341.78 1047.51 L 5073.471 1046.848 L 5189.795 895.898 L 5448.329 895.6 L 5341.78 1047.51 L 5341.78 1047.51 Z " fill-rule="evenodd" fill="rgb(255,255,255)"/></clipPath><g clip-path="url(#_clipPath_8K3UCKjtsa4PQHHc6MxI7pptaOScxkXr)"><g><clipPath id="_clipPath_XBE4AX25RaGOl0qDhxneVhprorA4r4U2"><path d=" M -10937 -2500.667 L 10943 -2500.667 L 10943 2499.333 L -10937 2499.333 L -10937 -2500.667 Z  M 5341.78 1047.51 L 5073.471 1046.848 L 5189.795 895.898 L 5448.329 895.6 L 5341.78 1047.51 L 5341.78 1047.51 L 5341.78 1047.51 Z " fill-rule="evenodd" fill="rgb(255,255,255)"/></clipPath><g clip-path="url(#_clipPath_XBE4AX25RaGOl0qDhxneVhprorA4r4U2)"><mask id="_mask_erFXNkHO9HBMALNVhf4InBcr4rKVZm0p" x="-200%" y="-200%" width="400%" height="400%"><rect x="-200%" y="-200%" width="400%" height="400%" style="fill:white;"/><path d=" M 5341.78 1047.51 L 5073.471 1046.848 L 5189.795 895.898 L 5448.329 895.6 L 5341.78 1047.51 L 5341.78 1047.51 Z " fill="black" stroke="none"/></mask><path d=" M 5341.78 1047.51 L 5073.471 1046.848 L 5189.795 895.898 L 5448.329 895.6 L 5341.78 1047.51 L 5341.78 1047.51 Z " fill="rgb(157,153,153)" mask="url(#_mask_erFXNkHO9HBMALNVhf4InBcr4rKVZm0p)" vector-effect="non-scaling-stroke" stroke-width="6" stroke="rgb(121,117,117)" stroke-opacity="1000000" stroke-linejoin="miter" stroke-linecap="square" stroke-miterlimit="3"/><path d=" M 5341.78 1047.51 L 5073.471 1046.848 L 5189.795 895.898 L 5448.329 895.6 L 5341.78 1047.51 L 5341.78 1047.51 Z " fill="rgb(157,153,153)"/></g><path d=" M 5341.78 1047.51 L 5073.471 1046.848 L 5189.795 895.898 L 5448.329 895.6 L 5341.78 1047.51 L 5341.78 1047.51 Z " fill="rgb(157,153,153)"/></g></g><path d=" M 5341.78 1047.51 L 5073.471 1046.848 L 5189.795 895.898 L 5448.329 895.6 L 5341.78 1047.51 L 5341.78 1047.51 Z " fill="rgb(157,153,153)"/><clipPath id="_clipPath_hAVP9pSlbfUznocFDirnxSwDXwqUxM09"><path d=" M -10937 -2500.667 L 10943 -2500.667 L 10943 2499.333 L -10937 2499.333 L -10937 -2500.667 Z  M 5608.451 1047.51 L 5340.142 1046.848 L 5445.667 895 L 5715 895.6 L 5608.451 1047.51 L 5608.451 1047.51 Z " fill-rule="evenodd" fill="rgb(255,255,255)"/></clipPath><g clip-path="url(#_clipPath_hAVP9pSlbfUznocFDirnxSwDXwqUxM09)"><g><clipPath id="_clipPath_2dNuCMG5VIhS7yESSgxmcAMBiLe3MeEf"><path d=" M -10937 -2500.667 L 10943 -2500.667 L 10943 2499.333 L -10937 2499.333 L -10937 -2500.667 Z  M 5608.451 1047.51 L 5340.142 1046.848 L 5445.667 895 L 5715 895.6 L 5608.451 1047.51 L 5608.451 1047.51 L 5608.451 1047.51 Z " fill-rule="evenodd" fill="rgb(255,255,255)"/></clipPath><g clip-path="url(#_clipPath_2dNuCMG5VIhS7yESSgxmcAMBiLe3MeEf)"><mask id="_mask_yqASrmJozolzLXmHbImvGYGgW4TTMAdS" x="-200%" y="-200%" width="400%" height="400%"><rect x="-200%" y="-200%" width="400%" height="400%" style="fill:white;"/><path d=" M 5608.451 1047.51 L 5340.142 1046.848 L 5445.667 895 L 5715 895.6 L 5608.451 1047.51 L 5608.451 1047.51 Z " fill="black" stroke="none"/></mask><path d=" M 5608.451 1047.51 L 5340.142 1046.848 L 5445.667 895 L 5715 895.6 L 5608.451 1047.51 L 5608.451 1047.51 Z " fill="rgb(157,153,153)" mask="url(#_mask_yqASrmJozolzLXmHbImvGYGgW4TTMAdS)" vector-effect="non-scaling-stroke" stroke-width="6" stroke="rgb(121,117,117)" stroke-opacity="1000000" stroke-linejoin="miter" stroke-linecap="square" stroke-miterlimit="3"/><path d=" M 5608.451 1047.51 L 5340.142 1046.848 L 5445.667 895 L 5715 895.6 L 5608.451 1047.51 L 5608.451 1047.51 Z " fill="rgb(157,153,153)"/></g><path d=" M 5608.451 1047.51 L 5340.142 1046.848 L 5445.667 895 L 5715 895.6 L 5608.451 1047.51 L 5608.451 1047.51 Z " fill="rgb(157,153,153)"/></g></g><path d=" M 5608.451 1047.51 L 5340.142 1046.848 L 5445.667 895 L 5715 895.6 L 5608.451 1047.51 L 5608.451 1047.51 Z " fill="rgb(157,153,153)"/><clipPath id="_clipPath_j84vWniwUGaJ3W5tpioOXxUWup5sD2SM"><path d=" M -10937 -2500.667 L 10943 -2500.667 L 10943 2499.333 L -10937 2499.333 L -10937 -2500.667 Z  M 3974.928 1046.513 L 3704.227 1046.848 L 3820.551 895.898 L 4091.252 895.563 L 3974.928 1046.513 L 3974.928 1046.513 Z " fill-rule="evenodd" fill="rgb(255,255,255)"/></clipPath><g clip-path="url(#_clipPath_j84vWniwUGaJ3W5tpioOXxUWup5sD2SM)"><g><clipPath id="_clipPath_y3aVwDUwQSBMQSNI4h5LJ6ZvdKqdjmsZ"><path d=" M -10937 -2500.667 L 10943 -2500.667 L 10943 2499.333 L -10937 2499.333 L -10937 -2500.667 Z  M 3974.928 1046.513 L 3704.227 1046.848 L 3820.551 895.898 L 4091.252 895.563 L 3974.928 1046.513 L 3974.928 1046.513 L 3974.928 1046.513 Z " fill-rule="evenodd" fill="rgb(255,255,255)"/></clipPath><g clip-path="url(#_clipPath_y3aVwDUwQSBMQSNI4h5LJ6ZvdKqdjmsZ)"><mask id="_mask_fLPHLKxCIySsX4tXbfrpjlTxFrKYl1he" x="-200%" y="-200%" width="400%" height="400%"><rect x="-200%" y="-200%" width="400%" height="400%" style="fill:white;"/><path d=" M 3974.928 1046.513 L 3704.227 1046.848 L 3820.551 895.898 L 4091.252 895.563 L 3974.928 1046.513 L 3974.928 1046.513 Z " fill="black" stroke="none"/></mask><path d=" M 3974.928 1046.513 L 3704.227 1046.848 L 3820.551 895.898 L 4091.252 895.563 L 3974.928 1046.513 L 3974.928 1046.513 Z " fill="rgb(157,153,153)" mask="url(#_mask_fLPHLKxCIySsX4tXbfrpjlTxFrKYl1he)" vector-effect="non-scaling-stroke" stroke-width="6" stroke="rgb(121,117,117)" stroke-opacity="1000000" stroke-linejoin="miter" stroke-linecap="square" stroke-miterlimit="3"/><path d=" M 3974.928 1046.513 L 3704.227 1046.848 L 3820.551 895.898 L 4091.252 895.563 L 3974.928 1046.513 L 3974.928 1046.513 Z " fill="rgb(157,153,153)"/></g><path d=" M 3974.928 1046.513 L 3704.227 1046.848 L 3820.551 895.898 L 4091.252 895.563 L 3974.928 1046.513 L 3974.928 1046.513 Z " fill="rgb(157,153,153)"/></g></g><path d=" M 3974.928 1046.513 L 3704.227 1046.848 L 3820.551 895.898 L 4091.252 895.563 L 3974.928 1046.513 L 3974.928 1046.513 Z " fill="rgb(157,153,153)"/></g><g><clipPath id="_clipPath_HkfJUftOpZcRICF9kzRSS7ni51bdfGhz"><path d=" M -10937 -2500.667 L 10943 -2500.667 L 10943 2499.333 L -10937 2499.333 L -10937 -2500.667 Z  M 1784.005 1046.513 L 1513.304 1046.848 L 1629.628 895.898 L 1900.325 895.563 L 1784.005 1046.513 L 1784.005 1046.513 Z " fill-rule="evenodd" fill="rgb(255,255,255)"/></clipPath><g clip-path="url(#_clipPath_HkfJUftOpZcRICF9kzRSS7ni51bdfGhz)"><g><clipPath id="_clipPath_Y7iPEja9ydFr7iVSOtRUldyfisbYVHuU"><path d=" M -10937 -2500.667 L 10943 -2500.667 L 10943 2499.333 L -10937 2499.333 L -10937 -2500.667 Z  M 1784.005 1046.513 L 1513.304 1046.848 L 1629.628 895.898 L 1900.325 895.563 L 1784.005 1046.513 L 1784.005 1046.513 L 1784.005 1046.513 Z " fill-rule="evenodd" fill="rgb(255,255,255)"/></clipPath><g clip-path="url(#_clipPath_Y7iPEja9ydFr7iVSOtRUldyfisbYVHuU)"><mask id="_mask_X8FC56X2X2oXBvOtk0cKhMSmbMd8diLI" x="-200%" y="-200%" width="400%" height="400%"><rect x="-200%" y="-200%" width="400%" height="400%" style="fill:white;"/><path d=" M 1784.005 1046.513 L 1513.304 1046.848 L 1629.628 895.898 L 1900.325 895.563 L 1784.005 1046.513 L 1784.005 1046.513 Z " fill="black" stroke="none"/></mask><path d=" M 1784.005 1046.513 L 1513.304 1046.848 L 1629.628 895.898 L 1900.325 895.563 L 1784.005 1046.513 L 1784.005 1046.513 Z " fill="rgb(157,153,153)" mask="url(#_mask_X8FC56X2X2oXBvOtk0cKhMSmbMd8diLI)" vector-effect="non-scaling-stroke" stroke-width="6" stroke="rgb(121,117,117)" stroke-opacity="1000000" stroke-linejoin="miter" stroke-linecap="square" stroke-miterlimit="3"/><path d=" M 1784.005 1046.513 L 1513.304 1046.848 L 1629.628 895.898 L 1900.325 895.563 L 1784.005 1046.513 L 1784.005 1046.513 Z " fill="rgb(157,153,153)"/></g><path d=" M 1784.005 1046.513 L 1513.304 1046.848 L 1629.628 895.898 L 1900.325 895.563 L 1784.005 1046.513 L 1784.005 1046.513 Z " fill="rgb(157,153,153)"/></g></g><path d=" M 1784.005 1046.513 L 1513.304 1046.848 L 1629.628 895.898 L 1900.325 895.563 L 1784.005 1046.513 L 1784.005 1046.513 Z " fill="rgb(157,153,153)"/><clipPath id="_clipPath_TGUmQGxQezSNMqf9VI9rZpra4SSZLvG5"><path d=" M -10937 -2500.667 L 10943 -2500.667 L 10943 2499.333 L -10937 2499.333 L -10937 -2500.667 Z  M 2057.851 1046.513 L 1787.155 1046.848 L 1903.475 895.898 L 2174.176 895.563 L 2057.851 1046.513 L 2057.851 1046.513 Z " fill-rule="evenodd" fill="rgb(255,255,255)"/></clipPath><g clip-path="url(#_clipPath_TGUmQGxQezSNMqf9VI9rZpra4SSZLvG5)"><g><clipPath id="_clipPath_uM30EIVTUAtT7yfBXImuLUO7bSGUbHdO"><path d=" M -10937 -2500.667 L 10943 -2500.667 L 10943 2499.333 L -10937 2499.333 L -10937 -2500.667 Z  M 2057.851 1046.513 L 1787.155 1046.848 L 1903.475 895.898 L 2174.176 895.563 L 2057.851 1046.513 L 2057.851 1046.513 L 2057.851 1046.513 Z " fill-rule="evenodd" fill="rgb(255,255,255)"/></clipPath><g clip-path="url(#_clipPath_uM30EIVTUAtT7yfBXImuLUO7bSGUbHdO)"><mask id="_mask_dNoUYg0LNbdFw6eq2WWNWyMxqKdTyJu8" x="-200%" y="-200%" width="400%" height="400%"><rect x="-200%" y="-200%" width="400%" height="400%" style="fill:white;"/><path d=" M 2057.851 1046.513 L 1787.155 1046.848 L 1903.475 895.898 L 2174.176 895.563 L 2057.851 1046.513 L 2057.851 1046.513 Z " fill="black" stroke="none"/></mask><path d=" M 2057.851 1046.513 L 1787.155 1046.848 L 1903.475 895.898 L 2174.176 895.563 L 2057.851 1046.513 L 2057.851 1046.513 Z " fill="rgb(157,153,153)" mask="url(#_mask_dNoUYg0LNbdFw6eq2WWNWyMxqKdTyJu8)" vector-effect="non-scaling-stroke" stroke-width="6" stroke="rgb(121,117,117)" stroke-opacity="1000000" stroke-linejoin="miter" stroke-linecap="square" stroke-miterlimit="3"/><path d=" M 2057.851 1046.513 L 1787.155 1046.848 L 1903.475 895.898 L 2174.176 895.563 L 2057.851 1046.513 L 2057.851 1046.513 Z " fill="rgb(157,153,153)"/></g><path d=" M 2057.851 1046.513 L 1787.155 1046.848 L 1903.475 895.898 L 2174.176 895.563 L 2057.851 1046.513 L 2057.851 1046.513 Z " fill="rgb(157,153,153)"/></g></g><path d=" M 2057.851 1046.513 L 1787.155 1046.848 L 1903.475 895.898 L 2174.176 895.563 L 2057.851 1046.513 L 2057.851 1046.513 Z " fill="rgb(157,153,153)"/><clipPath id="_clipPath_gh8SRJHI3NAyHUWRpR9M8d8nmmEKZc1C"><path d=" M -10937 -2500.667 L 10943 -2500.667 L 10943 2499.333 L -10937 2499.333 L -10937 -2500.667 Z  M 2331.702 1046.513 L 2061.001 1046.848 L 2177.325 895.898 L 2448.026 895.563 L 2331.702 1046.513 L 2331.702 1046.513 Z " fill-rule="evenodd" fill="rgb(255,255,255)"/></clipPath><g clip-path="url(#_clipPath_gh8SRJHI3NAyHUWRpR9M8d8nmmEKZc1C)"><g><clipPath id="_clipPath_Pycx7IbAnBWq30DxSyWuAMvhTWkmmqjY"><path d=" M -10937 -2500.667 L 10943 -2500.667 L 10943 2499.333 L -10937 2499.333 L -10937 -2500.667 Z  M 2331.702 1046.513 L 2061.001 1046.848 L 2177.325 895.898 L 2448.026 895.563 L 2331.702 1046.513 L 2331.702 1046.513 L 2331.702 1046.513 Z " fill-rule="evenodd" fill="rgb(255,255,255)"/></clipPath><g clip-path="url(#_clipPath_Pycx7IbAnBWq30DxSyWuAMvhTWkmmqjY)"><mask id="_mask_3hEq6BSSiNqnkp3WLDi6XJzVTtgMlUQ3" x="-200%" y="-200%" width="400%" height="400%"><rect x="-200%" y="-200%" width="400%" height="400%" style="fill:white;"/><path d=" M 2331.702 1046.513 L 2061.001 1046.848 L 2177.325 895.898 L 2448.026 895.563 L 2331.702 1046.513 L 2331.702 1046.513 Z " fill="black" stroke="none"/></mask><path d=" M 2331.702 1046.513 L 2061.001 1046.848 L 2177.325 895.898 L 2448.026 895.563 L 2331.702 1046.513 L 2331.702 1046.513 Z " fill="rgb(157,153,153)" mask="url(#_mask_3hEq6BSSiNqnkp3WLDi6XJzVTtgMlUQ3)" vector-effect="non-scaling-stroke" stroke-width="6" stroke="rgb(121,117,117)" stroke-opacity="1000000" stroke-linejoin="miter" stroke-linecap="square" stroke-miterlimit="3"/><path d=" M 2331.702 1046.513 L 2061.001 1046.848 L 2177.325 895.898 L 2448.026 895.563 L 2331.702 1046.513 L 2331.702 1046.513 Z " fill="rgb(157,153,153)"/></g><path d=" M 2331.702 1046.513 L 2061.001 1046.848 L 2177.325 895.898 L 2448.026 895.563 L 2331.702 1046.513 L 2331.702 1046.513 Z " fill="rgb(157,153,153)"/></g></g><path d=" M 2331.702 1046.513 L 2061.001 1046.848 L 2177.325 895.898 L 2448.026 895.563 L 2331.702 1046.513 L 2331.702 1046.513 Z " fill="rgb(157,153,153)"/><clipPath id="_clipPath_yhdCaN3olixQwN3zaDDjS1IszF1VvET0"><path d=" M -10937 -2500.667 L 10943 -2500.667 L 10943 2499.333 L -10937 2499.333 L -10937 -2500.667 Z  M 2605.552 1046.513 L 2334.851 1046.848 L 2451.175 895.898 L 2721.872 895.563 L 2605.552 1046.513 L 2605.552 1046.513 Z " fill-rule="evenodd" fill="rgb(255,255,255)"/></clipPath><g clip-path="url(#_clipPath_yhdCaN3olixQwN3zaDDjS1IszF1VvET0)"><g><clipPath id="_clipPath_cUSzUg4n0oyay4pDxBdhtY0z0Ggf5TaP"><path d=" M -10937 -2500.667 L 10943 -2500.667 L 10943 2499.333 L -10937 2499.333 L -10937 -2500.667 Z  M 2605.552 1046.513 L 2334.851 1046.848 L 2451.175 895.898 L 2721.872 895.563 L 2605.552 1046.513 L 2605.552 1046.513 L 2605.552 1046.513 Z " fill-rule="evenodd" fill="rgb(255,255,255)"/></clipPath><g clip-path="url(#_clipPath_cUSzUg4n0oyay4pDxBdhtY0z0Ggf5TaP)"><mask id="_mask_plDOPvehyEQqLjqL2KsXo2rhqjxRaYWb" x="-200%" y="-200%" width="400%" height="400%"><rect x="-200%" y="-200%" width="400%" height="400%" style="fill:white;"/><path d=" M 2605.552 1046.513 L 2334.851 1046.848 L 2451.175 895.898 L 2721.872 895.563 L 2605.552 1046.513 L 2605.552 1046.513 Z " fill="black" stroke="none"/></mask><path d=" M 2605.552 1046.513 L 2334.851 1046.848 L 2451.175 895.898 L 2721.872 895.563 L 2605.552 1046.513 L 2605.552 1046.513 Z " fill="rgb(157,153,153)" mask="url(#_mask_plDOPvehyEQqLjqL2KsXo2rhqjxRaYWb)" vector-effect="non-scaling-stroke" stroke-width="6" stroke="rgb(121,117,117)" stroke-opacity="1000000" stroke-linejoin="miter" stroke-linecap="square" stroke-miterlimit="3"/><path d=" M 2605.552 1046.513 L 2334.851 1046.848 L 2451.175 895.898 L 2721.872 895.563 L 2605.552 1046.513 L 2605.552 1046.513 Z " fill="rgb(157,153,153)"/></g><path d=" M 2605.552 1046.513 L 2334.851 1046.848 L 2451.175 895.898 L 2721.872 895.563 L 2605.552 1046.513 L 2605.552 1046.513 Z " fill="rgb(157,153,153)"/></g></g><path d=" M 2605.552 1046.513 L 2334.851 1046.848 L 2451.175 895.898 L 2721.872 895.563 L 2605.552 1046.513 L 2605.552 1046.513 Z " fill="rgb(157,153,153)"/><clipPath id="_clipPath_uN5CSNMnbljcg1JHW7s5E9wWddvWJhsC"><path d=" M -10937 -2500.667 L 10943 -2500.667 L 10943 2499.333 L -10937 2499.333 L -10937 -2500.667 Z  M 2879.398 1046.513 L 2608.702 1046.848 L 2725.022 895.898 L 2995.723 895.563 L 2879.398 1046.513 L 2879.398 1046.513 Z " fill-rule="evenodd" fill="rgb(255,255,255)"/></clipPath><g clip-path="url(#_clipPath_uN5CSNMnbljcg1JHW7s5E9wWddvWJhsC)"><g><clipPath id="_clipPath_Wq25RWnbyLWVUquoL5TTZs6kfV2xlPsk"><path d=" M -10937 -2500.667 L 10943 -2500.667 L 10943 2499.333 L -10937 2499.333 L -10937 -2500.667 Z  M 2879.398 1046.513 L 2608.702 1046.848 L 2725.022 895.898 L 2995.723 895.563 L 2879.398 1046.513 L 2879.398 1046.513 L 2879.398 1046.513 Z " fill-rule="evenodd" fill="rgb(255,255,255)"/></clipPath><g clip-path="url(#_clipPath_Wq25RWnbyLWVUquoL5TTZs6kfV2xlPsk)"><mask id="_mask_qLy7R5pw6iF1LWnWVxuSDLfhMutM2mMx" x="-200%" y="-200%" width="400%" height="400%"><rect x="-200%" y="-200%" width="400%" height="400%" style="fill:white;"/><path d=" M 2879.398 1046.513 L 2608.702 1046.848 L 2725.022 895.898 L 2995.723 895.563 L 2879.398 1046.513 L 2879.398 1046.513 Z " fill="black" stroke="none"/></mask><path d=" M 2879.398 1046.513 L 2608.702 1046.848 L 2725.022 895.898 L 2995.723 895.563 L 2879.398 1046.513 L 2879.398 1046.513 Z " fill="rgb(157,153,153)" mask="url(#_mask_qLy7R5pw6iF1LWnWVxuSDLfhMutM2mMx)" vector-effect="non-scaling-stroke" stroke-width="6" stroke="rgb(121,117,117)" stroke-opacity="1000000" stroke-linejoin="miter" stroke-linecap="square" stroke-miterlimit="3"/><path d=" M 2879.398 1046.513 L 2608.702 1046.848 L 2725.022 895.898 L 2995.723 895.563 L 2879.398 1046.513 L 2879.398 1046.513 Z " fill="rgb(157,153,153)"/></g><path d=" M 2879.398 1046.513 L 2608.702 1046.848 L 2725.022 895.898 L 2995.723 895.563 L 2879.398 1046.513 L 2879.398 1046.513 Z " fill="rgb(157,153,153)"/></g></g><path d=" M 2879.398 1046.513 L 2608.702 1046.848 L 2725.022 895.898 L 2995.723 895.563 L 2879.398 1046.513 L 2879.398 1046.513 Z " fill="rgb(157,153,153)"/><clipPath id="_clipPath_cnujlfAbu6UEcp2ySHFGP6jtVmBNIMMH"><path d=" M -10937 -2500.667 L 10943 -2500.667 L 10943 2499.333 L -10937 2499.333 L -10937 -2500.667 Z  M 3153.249 1046.513 L 2882.548 1046.848 L 2998.872 895.898 L 3269.574 895.563 L 3153.249 1046.513 L 3153.249 1046.513 Z " fill-rule="evenodd" fill="rgb(255,255,255)"/></clipPath><g clip-path="url(#_clipPath_cnujlfAbu6UEcp2ySHFGP6jtVmBNIMMH)"><g><clipPath id="_clipPath_NUShiVdn3qBPlE1NePC8cBdBepQgWPxR"><path d=" M -10937 -2500.667 L 10943 -2500.667 L 10943 2499.333 L -10937 2499.333 L -10937 -2500.667 Z  M 3153.249 1046.513 L 2882.548 1046.848 L 2998.872 895.898 L 3269.574 895.563 L 3153.249 1046.513 L 3153.249 1046.513 L 3153.249 1046.513 Z " fill-rule="evenodd" fill="rgb(255,255,255)"/></clipPath><g clip-path="url(#_clipPath_NUShiVdn3qBPlE1NePC8cBdBepQgWPxR)"><mask id="_mask_R7esEpJGmFqUW4l3pw2VRSGZ27ORmxxg" x="-200%" y="-200%" width="400%" height="400%"><rect x="-200%" y="-200%" width="400%" height="400%" style="fill:white;"/><path d=" M 3153.249 1046.513 L 2882.548 1046.848 L 2998.872 895.898 L 3269.574 895.563 L 3153.249 1046.513 L 3153.249 1046.513 Z " fill="black" stroke="none"/></mask><path d=" M 3153.249 1046.513 L 2882.548 1046.848 L 2998.872 895.898 L 3269.574 895.563 L 3153.249 1046.513 L 3153.249 1046.513 Z " fill="rgb(157,153,153)" mask="url(#_mask_R7esEpJGmFqUW4l3pw2VRSGZ27ORmxxg)" vector-effect="non-scaling-stroke" stroke-width="6" stroke="rgb(121,117,117)" stroke-opacity="1000000" stroke-linejoin="miter" stroke-linecap="square" stroke-miterlimit="3"/><path d=" M 3153.249 1046.513 L 2882.548 1046.848 L 2998.872 895.898 L 3269.574 895.563 L 3153.249 1046.513 L 3153.249 1046.513 Z " fill="rgb(157,153,153)"/></g><path d=" M 3153.249 1046.513 L 2882.548 1046.848 L 2998.872 895.898 L 3269.574 895.563 L 3153.249 1046.513 L 3153.249 1046.513 Z " fill="rgb(157,153,153)"/></g></g><path d=" M 3153.249 1046.513 L 2882.548 1046.848 L 2998.872 895.898 L 3269.574 895.563 L 3153.249 1046.513 L 3153.249 1046.513 Z " fill="rgb(157,153,153)"/><clipPath id="_clipPath_1t6nSPRdYU4SeE3He87CwLUABxoyb7iJ"><path d=" M -10937 -2500.667 L 10943 -2500.667 L 10943 2499.333 L -10937 2499.333 L -10937 -2500.667 Z  M 3427.1 1046.513 L 3156.398 1046.848 L 3272.722 895.898 L 3543.42 895.563 L 3427.1 1046.513 L 3427.1 1046.513 Z " fill-rule="evenodd" fill="rgb(255,255,255)"/></clipPath><g clip-path="url(#_clipPath_1t6nSPRdYU4SeE3He87CwLUABxoyb7iJ)"><g><clipPath id="_clipPath_VjJvgObgxH2Bw3VX7HPbbTuQaUCl0mhO"><path d=" M -10937 -2500.667 L 10943 -2500.667 L 10943 2499.333 L -10937 2499.333 L -10937 -2500.667 Z  M 3427.1 1046.513 L 3156.398 1046.848 L 3272.722 895.898 L 3543.42 895.563 L 3427.1 1046.513 L 3427.1 1046.513 L 3427.1 1046.513 Z " fill-rule="evenodd" fill="rgb(255,255,255)"/></clipPath><g clip-path="url(#_clipPath_VjJvgObgxH2Bw3VX7HPbbTuQaUCl0mhO)"><mask id="_mask_SAptpD02Xtpqnv1W8lARLf06NV6DBScc" x="-200%" y="-200%" width="400%" height="400%"><rect x="-200%" y="-200%" width="400%" height="400%" style="fill:white;"/><path d=" M 3427.1 1046.513 L 3156.398 1046.848 L 3272.722 895.898 L 3543.42 895.563 L 3427.1 1046.513 L 3427.1 1046.513 Z " fill="black" stroke="none"/></mask><path d=" M 3427.1 1046.513 L 3156.398 1046.848 L 3272.722 895.898 L 3543.42 895.563 L 3427.1 1046.513 L 3427.1 1046.513 Z " fill="rgb(157,153,153)" mask="url(#_mask_SAptpD02Xtpqnv1W8lARLf06NV6DBScc)" vector-effect="non-scaling-stroke" stroke-width="6" stroke="rgb(121,117,117)" stroke-opacity="1000000" stroke-linejoin="miter" stroke-linecap="square" stroke-miterlimit="3"/><path d=" M 3427.1 1046.513 L 3156.398 1046.848 L 3272.722 895.898 L 3543.42 895.563 L 3427.1 1046.513 L 3427.1 1046.513 Z " fill="rgb(157,153,153)"/></g><path d=" M 3427.1 1046.513 L 3156.398 1046.848 L 3272.722 895.898 L 3543.42 895.563 L 3427.1 1046.513 L 3427.1 1046.513 Z " fill="rgb(157,153,153)"/></g></g><path d=" M 3427.1 1046.513 L 3156.398 1046.848 L 3272.722 895.898 L 3543.42 895.563 L 3427.1 1046.513 L 3427.1 1046.513 Z " fill="rgb(157,153,153)"/><clipPath id="_clipPath_ziieUcUK2IKQO6UTqjjrMhdw5GzVlsIf"><path d=" M -10937 -2500.667 L 10943 -2500.667 L 10943 2499.333 L -10937 2499.333 L -10937 -2500.667 Z  M 3700.946 1046.513 L 3430.244 1046.848 L 3546.569 895.898 L 3817.27 895.563 L 3700.946 1046.513 L 3700.946 1046.513 Z " fill-rule="evenodd" fill="rgb(255,255,255)"/></clipPath><g clip-path="url(#_clipPath_ziieUcUK2IKQO6UTqjjrMhdw5GzVlsIf)"><g><clipPath id="_clipPath_T0t9r5DeEj8m1ol2kAigIEHrbtjzSSpD"><path d=" M -10937 -2500.667 L 10943 -2500.667 L 10943 2499.333 L -10937 2499.333 L -10937 -2500.667 Z  M 3700.946 1046.513 L 3430.244 1046.848 L 3546.569 895.898 L 3817.27 895.563 L 3700.946 1046.513 L 3700.946 1046.513 L 3700.946 1046.513 Z " fill-rule="evenodd" fill="rgb(255,255,255)"/></clipPath><g clip-path="url(#_clipPath_T0t9r5DeEj8m1ol2kAigIEHrbtjzSSpD)"><mask id="_mask_tKd1X1fZ8BZ05lDxPV0ZprkpPde8WlS0" x="-200%" y="-200%" width="400%" height="400%"><rect x="-200%" y="-200%" width="400%" height="400%" style="fill:white;"/><path d=" M 3700.946 1046.513 L 3430.244 1046.848 L 3546.569 895.898 L 3817.27 895.563 L 3700.946 1046.513 L 3700.946 1046.513 Z " fill="black" stroke="none"/></mask><path d=" M 3700.946 1046.513 L 3430.244 1046.848 L 3546.569 895.898 L 3817.27 895.563 L 3700.946 1046.513 L 3700.946 1046.513 Z " fill="rgb(157,153,153)" mask="url(#_mask_tKd1X1fZ8BZ05lDxPV0ZprkpPde8WlS0)" vector-effect="non-scaling-stroke" stroke-width="6" stroke="rgb(121,117,117)" stroke-opacity="1000000" stroke-linejoin="miter" stroke-linecap="square" stroke-miterlimit="3"/><path d=" M 3700.946 1046.513 L 3430.244 1046.848 L 3546.569 895.898 L 3817.27 895.563 L 3700.946 1046.513 L 3700.946 1046.513 Z " fill="rgb(157,153,153)"/></g><path d=" M 3700.946 1046.513 L 3430.244 1046.848 L 3546.569 895.898 L 3817.27 895.563 L 3700.946 1046.513 L 3700.946 1046.513 Z " fill="rgb(157,153,153)"/></g></g><path d=" M 3700.946 1046.513 L 3430.244 1046.848 L 3546.569 895.898 L 3817.27 895.563 L 3700.946 1046.513 L 3700.946 1046.513 Z " fill="rgb(157,153,153)"/><clipPath id="_clipPath_R5RFm5FobF5H1u6KVIafYRIlxTD4BDWt"><path d=" M -10937 -2500.667 L 10943 -2500.667 L 10943 2499.333 L -10937 2499.333 L -10937 -2500.667 Z  M 1784.005 1046.513 L 1513.304 1046.848 L 1629.628 895.898 L 1900.325 895.563 L 1784.005 1046.513 L 1784.005 1046.513 Z " fill-rule="evenodd" fill="rgb(255,255,255)"/></clipPath><g clip-path="url(#_clipPath_R5RFm5FobF5H1u6KVIafYRIlxTD4BDWt)"><g><clipPath id="_clipPath_uy3kvWwwcwpGh5FbCzznZX4uYlPnLtvd"><path d=" M -10937 -2500.667 L 10943 -2500.667 L 10943 2499.333 L -10937 2499.333 L -10937 -2500.667 Z  M 1784.005 1046.513 L 1513.304 1046.848 L 1629.628 895.898 L 1900.325 895.563 L 1784.005 1046.513 L 1784.005 1046.513 L 1784.005 1046.513 Z " fill-rule="evenodd" fill="rgb(255,255,255)"/></clipPath><g clip-path="url(#_clipPath_uy3kvWwwcwpGh5FbCzznZX4uYlPnLtvd)"><mask id="_mask_yZzndFJYB00XcN7fJpVvta0y8N1Jkggf" x="-200%" y="-200%" width="400%" height="400%"><rect x="-200%" y="-200%" width="400%" height="400%" style="fill:white;"/><path d=" M 1784.005 1046.513 L 1513.304 1046.848 L 1629.628 895.898 L 1900.325 895.563 L 1784.005 1046.513 L 1784.005 1046.513 Z " fill="black" stroke="none"/></mask><path d=" M 1784.005 1046.513 L 1513.304 1046.848 L 1629.628 895.898 L 1900.325 895.563 L 1784.005 1046.513 L 1784.005 1046.513 Z " fill="rgb(157,153,153)" mask="url(#_mask_yZzndFJYB00XcN7fJpVvta0y8N1Jkggf)" vector-effect="non-scaling-stroke" stroke-width="6" stroke="rgb(121,117,117)" stroke-opacity="1000000" stroke-linejoin="miter" stroke-linecap="square" stroke-miterlimit="3"/><path d=" M 1784.005 1046.513 L 1513.304 1046.848 L 1629.628 895.898 L 1900.325 895.563 L 1784.005 1046.513 L 1784.005 1046.513 Z " fill="rgb(157,153,153)"/></g><path d=" M 1784.005 1046.513 L 1513.304 1046.848 L 1629.628 895.898 L 1900.325 895.563 L 1784.005 1046.513 L 1784.005 1046.513 Z " fill="rgb(157,153,153)"/></g></g><path d=" M 1784.005 1046.513 L 1513.304 1046.848 L 1629.628 895.898 L 1900.325 895.563 L 1784.005 1046.513 L 1784.005 1046.513 Z " fill="rgb(157,153,153)"/><clipPath id="_clipPath_H5LpLxrS0qsArstckI3U0xHnsZioUO0b"><path d=" M -10937 -2500.667 L 10943 -2500.667 L 10943 2499.333 L -10937 2499.333 L -10937 -2500.667 Z  M 3700.946 1046.513 L 3430.244 1046.848 L 3546.569 895.898 L 3817.27 895.563 L 3700.946 1046.513 L 3700.946 1046.513 Z " fill-rule="evenodd" fill="rgb(255,255,255)"/></clipPath><g clip-path="url(#_clipPath_H5LpLxrS0qsArstckI3U0xHnsZioUO0b)"><g><clipPath id="_clipPath_w2NQll3F7dFD1lWEDhEooXResvc3ebIA"><path d=" M -10937 -2500.667 L 10943 -2500.667 L 10943 2499.333 L -10937 2499.333 L -10937 -2500.667 Z  M 3700.946 1046.513 L 3430.244 1046.848 L 3546.569 895.898 L 3817.27 895.563 L 3700.946 1046.513 L 3700.946 1046.513 L 3700.946 1046.513 Z " fill-rule="evenodd" fill="rgb(255,255,255)"/></clipPath><g clip-path="url(#_clipPath_w2NQll3F7dFD1lWEDhEooXResvc3ebIA)"><mask id="_mask_ua5JdNF9Ob8mpB7rMwQxrtNowDckQzQX" x="-200%" y="-200%" width="400%" height="400%"><rect x="-200%" y="-200%" width="400%" height="400%" style="fill:white;"/><path d=" M 3700.946 1046.513 L 3430.244 1046.848 L 3546.569 895.898 L 3817.27 895.563 L 3700.946 1046.513 L 3700.946 1046.513 Z " fill="black" stroke="none"/></mask><path d=" M 3700.946 1046.513 L 3430.244 1046.848 L 3546.569 895.898 L 3817.27 895.563 L 3700.946 1046.513 L 3700.946 1046.513 Z " fill="rgb(157,153,153)" mask="url(#_mask_ua5JdNF9Ob8mpB7rMwQxrtNowDckQzQX)" vector-effect="non-scaling-stroke" stroke-width="6" stroke="rgb(121,117,117)" stroke-opacity="1000000" stroke-linejoin="miter" stroke-linecap="square" stroke-miterlimit="3"/><path d=" M 3700.946 1046.513 L 3430.244 1046.848 L 3546.569 895.898 L 3817.27 895.563 L 3700.946 1046.513 L 3700.946 1046.513 Z " fill="rgb(157,153,153)"/></g><path d=" M 3700.946 1046.513 L 3430.244 1046.848 L 3546.569 895.898 L 3817.27 895.563 L 3700.946 1046.513 L 3700.946 1046.513 Z " fill="rgb(157,153,153)"/></g></g><path d=" M 3700.946 1046.513 L 3430.244 1046.848 L 3546.569 895.898 L 3817.27 895.563 L 3700.946 1046.513 L 3700.946 1046.513 Z " fill="rgb(157,153,153)"/></g></g></g></g></g></g><g><rect x="2005.273" y="188.848" width="56.299" height="64.982" transform="matrix(1,0,0,1,0,0)" fill="rgb(235,235,235)"/><rect x="2005.273" y="279.452" width="56.299" height="64.982" transform="matrix(1,0,0,1,0,0)" fill="rgb(235,235,235)"/><rect x="2005.273" y="370.055" width="56.299" height="64.982" transform="matrix(1,0,0,1,0,0)" fill="rgb(235,235,235)"/><rect x="2005.273" y="460.659" width="56.299" height="64.982" transform="matrix(1,0,0,1,0,0)" fill="rgb(235,235,235)"/><rect x="2005.273" y="551.262" width="56.299" height="64.982" transform="matrix(1,0,0,1,0,0)" fill="rgb(235,235,235)"/><rect x="2005.273" y="641.866" width="56.299" height="64.982" transform="matrix(1,0,0,1,0,0)" fill="rgb(235,235,235)"/></g><g><rect x="2095.692" y="188.848" width="56.299" height="64.982" transform="matrix(1,0,0,1,0,0)" fill="rgb(235,235,235)"/><rect x="2095.692" y="279.452" width="56.299" height="64.982" transform="matrix(1,0,0,1,0,0)" fill="rgb(235,235,235)"/><rect x="2095.692" y="370.055" width="56.299" height="64.982" transform="matrix(1,0,0,1,0,0)" fill="rgb(235,235,235)"/><rect x="2095.692" y="460.659" width="56.299" height="64.982" transform="matrix(1,0,0,1,0,0)" fill="rgb(235,235,235)"/><rect x="2095.692" y="551.262" width="56.299" height="64.982" transform="matrix(1,0,0,1,0,0)" fill="rgb(235,235,235)"/><rect x="2095.692" y="641.866" width="56.299" height="64.982" transform="matrix(1,0,0,1,0,0)" fill="rgb(235,235,235)"/></g><g><rect x="2186.111" y="188.848" width="56.299" height="64.982" transform="matrix(1,0,0,1,0,0)" fill="rgb(235,235,235)"/><rect x="2186.111" y="279.452" width="56.299" height="64.982" transform="matrix(1,0,0,1,0,0)" fill="rgb(235,235,235)"/><rect x="2186.111" y="370.055" width="56.299" height="64.982" transform="matrix(1,0,0,1,0,0)" fill="rgb(235,235,235)"/><rect x="2186.111" y="460.659" width="56.299" height="64.982" transform="matrix(1,0,0,1,0,0)" fill="rgb(235,235,235)"/><rect x="2186.111" y="551.262" width="56.299" height="64.982" transform="matrix(1,0,0,1,0,0)" fill="rgb(235,235,235)"/><rect x="2186.111" y="641.866" width="56.299" height="64.982" transform="matrix(1,0,0,1,0,0)" fill="rgb(235,235,235)"/></g><g><rect x="2276.004" y="188.848" width="56.299" height="64.982" transform="matrix(1,0,0,1,0,0)" fill="rgb(235,235,235)"/><rect x="2276.004" y="279.452" width="56.299" height="64.982" transform="matrix(1,0,0,1,0,0)" fill="rgb(235,235,235)"/><rect x="2276.004" y="370.055" width="56.299" height="64.982" transform="matrix(1,0,0,1,0,0)" fill="rgb(235,235,235)"/><rect x="2276.004" y="460.659" width="56.299" height="64.982" transform="matrix(1,0,0,1,0,0)" fill="rgb(235,235,235)"/><rect x="2276.004" y="551.262" width="56.299" height="64.982" transform="matrix(1,0,0,1,0,0)" fill="rgb(235,235,235)"/><rect x="2276.004" y="641.866" width="56.299" height="64.982" transform="matrix(1,0,0,1,0,0)" fill="rgb(235,235,235)"/><rect x="2005.273" y="729.262" width="56.299" height="64.982" transform="matrix(1,0,0,1,0,0)" fill="rgb(235,235,235)"/><rect x="2005.273" y="819.866" width="56.299" height="64.982" transform="matrix(1,0,0,1,0,0)" fill="rgb(235,235,235)"/><rect x="2276.004" y="729.262" width="56.299" height="64.982" transform="matrix(1,0,0,1,0,0)" fill="rgb(235,235,235)"/><rect x="2276.004" y="819.866" width="56.299" height="64.982" transform="matrix(1,0,0,1,0,0)" fill="rgb(235,235,235)"/></g><g><rect x="4239" y="201.333" width="66" height="64.982" transform="matrix(1,0,0,1,0,0)" fill="rgb(235,235,235)"/><rect x="4239" y="291.937" width="66" height="64.982" transform="matrix(1,0,0,1,0,0)" fill="rgb(235,235,235)"/><rect x="4239" y="382.54" width="66" height="64.982" transform="matrix(1,0,0,1,0,0)" fill="rgb(235,235,235)"/><rect x="4239" y="473.144" width="66" height="64.982" transform="matrix(1,0,0,1,0,0)" fill="rgb(235,235,235)"/><rect x="4239" y="563.747" width="66" height="64.982" transform="matrix(1,0,0,1,0,0)" fill="rgb(235,235,235)"/><rect x="4239" y="654.351" width="66" height="64.982" transform="matrix(1,0,0,1,0,0)" fill="rgb(235,235,235)"/></g><g><rect x="4345" y="201.333" width="66" height="64.982" transform="matrix(1,0,0,1,0,0)" fill="rgb(235,235,235)"/><rect x="4345" y="291.937" width="66" height="64.982" transform="matrix(1,0,0,1,0,0)" fill="rgb(235,235,235)"/><rect x="4345" y="382.54" width="66" height="64.982" transform="matrix(1,0,0,1,0,0)" fill="rgb(235,235,235)"/><rect x="4345" y="473.144" width="66" height="64.982" transform="matrix(1,0,0,1,0,0)" fill="rgb(235,235,235)"/><rect x="4345" y="563.747" width="66" height="64.982" transform="matrix(1,0,0,1,0,0)" fill="rgb(235,235,235)"/><rect x="4345" y="654.351" width="66" height="64.982" transform="matrix(1,0,0,1,0,0)" fill="rgb(235,235,235)"/></g><g><rect x="4451" y="201.333" width="66" height="64.982" transform="matrix(1,0,0,1,0,0)" fill="rgb(235,235,235)"/><rect x="4451" y="291.937" width="66" height="64.982" transform="matrix(1,0,0,1,0,0)" fill="rgb(235,235,235)"/><rect x="4451" y="382.54" width="66" height="64.982" transform="matrix(1,0,0,1,0,0)" fill="rgb(235,235,235)"/><rect x="4451" y="473.144" width="66" height="64.982" transform="matrix(1,0,0,1,0,0)" fill="rgb(235,235,235)"/><rect x="4451" y="563.747" width="66" height="64.982" transform="matrix(1,0,0,1,0,0)" fill="rgb(235,235,235)"/><rect x="4451" y="654.351" width="66" height="64.982" transform="matrix(1,0,0,1,0,0)" fill="rgb(235,235,235)"/></g></g></g></svg>