<?xml version="1.0" encoding="UTF-8" standalone="no"?><!-- Generator: Gravit.io --><svg xmlns="http://www.w3.org/2000/svg" xmlns:xlink="http://www.w3.org/1999/xlink" style="isolation:isolate" viewBox="0 0 5470 1250" width="5470pt" height="1250pt"><defs><clipPath id="_clipPath_BrwaFZWnv15AohGikmHdFzd0CeXevg7I"><rect width="5470" height="1250"/></clipPath></defs><g clip-path="url(#_clipPath_BrwaFZWnv15AohGikmHdFzd0CeXevg7I)"><rect width="5470" height="1250" style="fill:rgb(72,238,238)"/><rect x="8.667" y="892.667" width="5500" height="155.333" transform="matrix(1,0,0,1,0,0)" fill="rgb(157,153,153)"/><g><g><g><g><g><rect x="-3.268" y="306.804" width="351.96" height="607.908" transform="matrix(1,0,0,1,0,0)" fill="rgb(170,148,1)"/><rect x="346.011" y="209.292" width="599.525" height="699.95" transform="matrix(1,0,0,1,0,0)" fill="rgb(100,145,122)"/><rect x="465.832" y="112" width="355.441" height="125.691" transform="matrix(1,0,0,1,0,0)" fill="rgb(100,145,122)"/><rect x="516.186" y="44" width="254.733" height="73.515" transform="matrix(1,0,0,1,0,0)" fill="rgb(100,145,122)"/><rect x="1894.235" y="443.296" width="38.85" height="22.131" transform="matrix(1,0,0,1,0,0)" fill="rgb(235,235,235)"/><rect x="1894.235" y="474.53" width="38.85" height="22.131" transform="matrix(1,0,0,1,0,0)" fill="rgb(235,235,235)"/><rect x="1894.235" y="505.763" width="38.85" height="22.131" transform="matrix(1,0,0,1,0,0)" fill="rgb(235,235,235)"/><rect x="1894.235" y="536.996" width="38.85" height="22.131" transform="matrix(1,0,0,1,0,0)" fill="rgb(235,235,235)"/><rect x="1894.235" y="568.229" width="38.85" height="22.131" transform="matrix(1,0,0,1,0,0)" fill="rgb(235,235,235)"/><rect x="1894.235" y="599.465" width="38.85" height="22.131" transform="matrix(1,0,0,1,0,0)" fill="rgb(235,235,235)"/><rect x="1894.235" y="630.698" width="38.85" height="22.131" transform="matrix(1,0,0,1,0,0)" fill="rgb(235,235,235)"/><rect x="1894.235" y="661.931" width="38.85" height="22.131" transform="matrix(1,0,0,1,0,0)" fill="rgb(235,235,235)"/><rect x="1894.235" y="693.164" width="38.85" height="22.131" transform="matrix(1,0,0,1,0,0)" fill="rgb(235,235,235)"/><rect x="1894.235" y="724.398" width="38.85" height="22.131" transform="matrix(1,0,0,1,0,0)" fill="rgb(235,235,235)"/><rect x="1894.235" y="755.631" width="38.85" height="22.131" transform="matrix(1,0,0,1,0,0)" fill="rgb(235,235,235)"/><rect x="1894.235" y="786.866" width="38.85" height="22.131" transform="matrix(1,0,0,1,0,0)" fill="rgb(235,235,235)"/><rect x="944.056" y="371.732" width="465.036" height="536.164" transform="matrix(1,0,0,1,0,0)" fill="rgb(77,66,64)"/><rect x="1189.613" y="290.623" width="166.047" height="112.915" transform="matrix(1,0,0,1,0,0)" fill="rgb(77,66,64)"/><rect x="1072.93" y="327.956" width="121.17" height="82.398" transform="matrix(1,0,0,1,0,0)" fill="rgb(77,66,64)"/><rect x="1406.13" y="140.216" width="564.354" height="765.406" transform="matrix(1,0,0,1,0,0)" fill="rgb(172,96,49)"/><rect x="1967.49" y="157.04" width="400.907" height="749.719" transform="matrix(1,0,0,1,0,0)" fill="rgb(100,145,122)"/><rect x="1967.49" y="10.503" width="249.818" height="579.329" transform="matrix(1,0,0,1,0,0)" fill="rgb(100,145,122)"/><rect x="2365.406" y="328.798" width="365.005" height="579.329" transform="matrix(1,0,0,1,0,0)" fill="rgb(77,66,64)"/><rect x="2413.275" y="176.35" width="272.257" height="579.329" transform="matrix(1,0,0,1,0,0)" fill="rgb(77,66,64)"/><g><rect x="2728.915" y="403.227" width="629.179" height="503.882" transform="matrix(1,0,0,1,0,0)" fill="rgb(170,148,1)"/><rect x="3010.193" y="354" width="344.763" height="81.248" transform="matrix(-1,0,0,-1,6365.149,789.248)" fill="rgb(170,148,1)"/></g><rect x="1013.842" y="410.354" width="61.897" height="47.166" transform="matrix(1,0,0,1,0,0)" fill="rgb(235,235,235)"/><rect x="1013.842" y="479.754" width="61.897" height="47.166" transform="matrix(1,0,0,1,0,0)" fill="rgb(235,235,235)"/><rect x="1013.842" y="549.155" width="61.897" height="47.166" transform="matrix(1,0,0,1,0,0)" fill="rgb(235,235,235)"/><rect x="1013.842" y="618.557" width="61.897" height="47.166" transform="matrix(1,0,0,1,0,0)" fill="rgb(235,235,235)"/><rect x="1013.842" y="687.957" width="61.897" height="47.166" transform="matrix(1,0,0,1,0,0)" fill="rgb(235,235,235)"/><rect x="1013.842" y="757.359" width="61.897" height="47.166" transform="matrix(1,0,0,1,0,0)" fill="rgb(235,235,235)"/><rect x="1087.324" y="410.354" width="61.897" height="47.166" transform="matrix(1,0,0,1,0,0)" fill="rgb(235,235,235)"/><rect x="1087.324" y="479.754" width="61.897" height="47.166" transform="matrix(1,0,0,1,0,0)" fill="rgb(235,235,235)"/><rect x="1087.324" y="549.155" width="61.897" height="47.166" transform="matrix(1,0,0,1,0,0)" fill="rgb(235,235,235)"/><rect x="1087.324" y="618.557" width="61.897" height="47.166" transform="matrix(1,0,0,1,0,0)" fill="rgb(235,235,235)"/><rect x="1087.324" y="687.957" width="61.897" height="47.166" transform="matrix(1,0,0,1,0,0)" fill="rgb(235,235,235)"/><rect x="1087.324" y="757.359" width="61.897" height="47.166" transform="matrix(1,0,0,1,0,0)" fill="rgb(235,235,235)"/><rect x="1013.842" y="825.514" width="61.897" height="47.166" transform="matrix(1,0,0,1,0,0)" fill="rgb(235,235,235)"/><rect x="1087.324" y="825.514" width="61.897" height="47.166" transform="matrix(1,0,0,1,0,0)" fill="rgb(235,235,235)"/><rect x="1197.839" y="410.354" width="61.897" height="47.166" transform="matrix(1,0,0,1,0,0)" fill="rgb(235,235,235)"/><rect x="1197.839" y="479.754" width="61.897" height="47.166" transform="matrix(1,0,0,1,0,0)" fill="rgb(235,235,235)"/><rect x="1197.839" y="549.155" width="61.897" height="47.166" transform="matrix(1,0,0,1,0,0)" fill="rgb(235,235,235)"/><rect x="1197.839" y="618.557" width="61.897" height="47.166" transform="matrix(1,0,0,1,0,0)" fill="rgb(235,235,235)"/><rect x="1197.839" y="687.957" width="61.897" height="47.166" transform="matrix(1,0,0,1,0,0)" fill="rgb(235,235,235)"/><rect x="1271.323" y="410.354" width="61.897" height="47.166" transform="matrix(1,0,0,1,0,0)" fill="rgb(235,235,235)"/><rect x="1271.323" y="479.754" width="61.897" height="47.166" transform="matrix(1,0,0,1,0,0)" fill="rgb(235,235,235)"/><rect x="1271.323" y="549.155" width="61.897" height="47.166" transform="matrix(1,0,0,1,0,0)" fill="rgb(235,235,235)"/><rect x="1271.323" y="618.557" width="61.897" height="47.166" transform="matrix(1,0,0,1,0,0)" fill="rgb(235,235,235)"/><rect x="1271.323" y="687.957" width="61.897" height="47.166" transform="matrix(1,0,0,1,0,0)" fill="rgb(235,235,235)"/><g><rect x="35.779" y="583.168" width="59.205" height="51.655" transform="matrix(1,0,0,1,0,0)" fill="rgb(235,235,235)"/><rect x="35.779" y="510.429" width="59.205" height="51.655" transform="matrix(1,0,0,1,0,0)" fill="rgb(235,235,235)"/><rect x="141.728" y="582.798" width="59.205" height="51.655" transform="matrix(1,0,0,1,0,0)" fill="rgb(235,235,235)"/><rect x="35.779" y="655.907" width="59.205" height="51.655" transform="matrix(1,0,0,1,0,0)" fill="rgb(235,235,235)"/><rect x="141.728" y="655.723" width="59.205" height="51.655" transform="matrix(1,0,0,1,0,0)" fill="rgb(235,235,235)"/><rect x="35.779" y="728.646" width="59.205" height="51.655" transform="matrix(1,0,0,1,0,0)" fill="rgb(235,235,235)"/><rect x="141.728" y="728.646" width="59.205" height="51.655" transform="matrix(1,0,0,1,0,0)" fill="rgb(235,235,235)"/><rect x="249.079" y="582.798" width="59.205" height="51.655" transform="matrix(1,0,0,1,0,0)" fill="rgb(235,235,235)"/><rect x="249.079" y="655.723" width="59.205" height="51.655" transform="matrix(1,0,0,1,0,0)" fill="rgb(235,235,235)"/><rect x="249.079" y="728.646" width="59.205" height="51.655" transform="matrix(1,0,0,1,0,0)" fill="rgb(235,235,235)"/><rect x="141.728" y="798.625" width="59.205" height="51.655" transform="matrix(1,0,0,1,0,0)" fill="rgb(235,235,235)"/><rect x="249.079" y="798.625" width="59.205" height="51.655" transform="matrix(1,0,0,1,0,0)" fill="rgb(235,235,235)"/></g><g><rect x="35.779" y="364.951" width="59.205" height="51.655" transform="matrix(1,0,0,1,0,0)" fill="rgb(235,235,235)"/><rect x="141.728" y="364.951" width="59.205" height="51.655" transform="matrix(1,0,0,1,0,0)" fill="rgb(235,235,235)"/><rect x="35.779" y="437.69" width="59.205" height="51.655" transform="matrix(1,0,0,1,0,0)" fill="rgb(235,235,235)"/><rect x="141.728" y="437.874" width="59.205" height="51.655" transform="matrix(1,0,0,1,0,0)" fill="rgb(235,235,235)"/><rect x="249.079" y="364.951" width="59.205" height="51.655" transform="matrix(1,0,0,1,0,0)" fill="rgb(235,235,235)"/><rect x="249.079" y="437.874" width="59.205" height="51.655" transform="matrix(1,0,0,1,0,0)" fill="rgb(235,235,235)"/><rect x="141.728" y="507.853" width="59.205" height="51.655" transform="matrix(1,0,0,1,0,0)" fill="rgb(235,235,235)"/><rect x="249.079" y="507.853" width="59.205" height="51.655" transform="matrix(1,0,0,1,0,0)" fill="rgb(235,235,235)"/></g><g><rect x="1829.767" y="210.418" width="76.943" height="34.2" transform="matrix(1,0,0,1,0,0)" fill="rgb(235,235,235)"/><rect x="1829.767" y="258.684" width="76.943" height="34.2" transform="matrix(1,0,0,1,0,0)" fill="rgb(235,235,235)"/><rect x="1829.767" y="306.95" width="76.943" height="34.2" transform="matrix(1,0,0,1,0,0)" fill="rgb(235,235,235)"/><rect x="1829.767" y="355.215" width="76.943" height="34.2" transform="matrix(1,0,0,1,0,0)" fill="rgb(235,235,235)"/><rect x="1829.767" y="403.481" width="76.943" height="34.2" transform="matrix(1,0,0,1,0,0)" fill="rgb(235,235,235)"/><rect x="1829.767" y="451.75" width="76.943" height="34.2" transform="matrix(1,0,0,1,0,0)" fill="rgb(235,235,235)"/><rect x="1829.767" y="500.015" width="76.943" height="34.2" transform="matrix(1,0,0,1,0,0)" fill="rgb(235,235,235)"/><rect x="1829.767" y="548.281" width="76.943" height="34.2" transform="matrix(1,0,0,1,0,0)" fill="rgb(235,235,235)"/><rect x="1829.767" y="596.547" width="76.943" height="34.2" transform="matrix(1,0,0,1,0,0)" fill="rgb(235,235,235)"/><rect x="1829.767" y="644.813" width="76.943" height="34.2" transform="matrix(1,0,0,1,0,0)" fill="rgb(235,235,235)"/><rect x="1829.767" y="693.078" width="76.943" height="34.2" transform="matrix(1,0,0,1,0,0)" fill="rgb(235,235,235)"/><rect x="1829.767" y="741.347" width="76.943" height="34.2" transform="matrix(1,0,0,1,0,0)" fill="rgb(235,235,235)"/><rect x="1714.225" y="210.418" width="76.943" height="34.2" transform="matrix(1,0,0,1,0,0)" fill="rgb(235,235,235)"/><rect x="1714.225" y="258.684" width="76.943" height="34.2" transform="matrix(1,0,0,1,0,0)" fill="rgb(235,235,235)"/><rect x="1714.225" y="306.95" width="76.943" height="34.2" transform="matrix(1,0,0,1,0,0)" fill="rgb(235,235,235)"/><rect x="1714.225" y="355.215" width="76.943" height="34.2" transform="matrix(1,0,0,1,0,0)" fill="rgb(235,235,235)"/><rect x="1714.225" y="403.481" width="76.943" height="34.2" transform="matrix(1,0,0,1,0,0)" fill="rgb(235,235,235)"/><rect x="1714.225" y="451.75" width="76.943" height="34.2" transform="matrix(1,0,0,1,0,0)" fill="rgb(235,235,235)"/><rect x="1714.225" y="500.015" width="76.943" height="34.2" transform="matrix(1,0,0,1,0,0)" fill="rgb(235,235,235)"/><rect x="1714.225" y="548.281" width="76.943" height="34.2" transform="matrix(1,0,0,1,0,0)" fill="rgb(235,235,235)"/><rect x="1714.225" y="596.547" width="76.943" height="34.2" transform="matrix(1,0,0,1,0,0)" fill="rgb(235,235,235)"/><rect x="1714.225" y="644.813" width="76.943" height="34.2" transform="matrix(1,0,0,1,0,0)" fill="rgb(235,235,235)"/><rect x="1714.225" y="693.078" width="76.943" height="34.2" transform="matrix(1,0,0,1,0,0)" fill="rgb(235,235,235)"/><rect x="1598.684" y="210.418" width="76.943" height="34.2" transform="matrix(1,0,0,1,0,0)" fill="rgb(235,235,235)"/><rect x="1598.684" y="258.684" width="76.943" height="34.2" transform="matrix(1,0,0,1,0,0)" fill="rgb(235,235,235)"/><rect x="1598.684" y="306.95" width="76.943" height="34.2" transform="matrix(1,0,0,1,0,0)" fill="rgb(235,235,235)"/><rect x="1598.684" y="355.215" width="76.943" height="34.2" transform="matrix(1,0,0,1,0,0)" fill="rgb(235,235,235)"/><rect x="1598.684" y="403.481" width="76.943" height="34.2" transform="matrix(1,0,0,1,0,0)" fill="rgb(235,235,235)"/><rect x="1598.684" y="451.75" width="76.943" height="34.2" transform="matrix(1,0,0,1,0,0)" fill="rgb(235,235,235)"/><rect x="1598.684" y="500.015" width="76.943" height="34.2" transform="matrix(1,0,0,1,0,0)" fill="rgb(235,235,235)"/><rect x="1598.684" y="548.281" width="76.943" height="34.2" transform="matrix(1,0,0,1,0,0)" fill="rgb(235,235,235)"/><rect x="1598.684" y="596.547" width="76.943" height="34.2" transform="matrix(1,0,0,1,0,0)" fill="rgb(235,235,235)"/><rect x="1598.684" y="644.813" width="76.943" height="34.2" transform="matrix(1,0,0,1,0,0)" fill="rgb(235,235,235)"/><rect x="1598.684" y="693.078" width="76.943" height="34.2" transform="matrix(1,0,0,1,0,0)" fill="rgb(235,235,235)"/><rect x="1483.142" y="210.418" width="76.943" height="34.2" transform="matrix(1,0,0,1,0,0)" fill="rgb(235,235,235)"/><rect x="1483.142" y="258.684" width="76.943" height="34.2" transform="matrix(1,0,0,1,0,0)" fill="rgb(235,235,235)"/><rect x="1483.142" y="306.95" width="76.943" height="34.2" transform="matrix(1,0,0,1,0,0)" fill="rgb(235,235,235)"/><rect x="1483.142" y="355.215" width="76.943" height="34.2" transform="matrix(1,0,0,1,0,0)" fill="rgb(235,235,235)"/><rect x="1483.142" y="403.481" width="76.943" height="34.2" transform="matrix(1,0,0,1,0,0)" fill="rgb(235,235,235)"/><rect x="1483.142" y="451.75" width="76.943" height="34.2" transform="matrix(1,0,0,1,0,0)" fill="rgb(235,235,235)"/><rect x="1483.142" y="500.015" width="76.943" height="34.2" transform="matrix(1,0,0,1,0,0)" fill="rgb(235,235,235)"/><rect x="1483.142" y="548.281" width="76.943" height="34.2" transform="matrix(1,0,0,1,0,0)" fill="rgb(235,235,235)"/><rect x="1483.142" y="596.547" width="76.943" height="34.2" transform="matrix(1,0,0,1,0,0)" fill="rgb(235,235,235)"/><rect x="1483.142" y="644.813" width="76.943" height="34.2" transform="matrix(1,0,0,1,0,0)" fill="rgb(235,235,235)"/><rect x="1483.142" y="693.078" width="76.943" height="34.2" transform="matrix(1,0,0,1,0,0)" fill="rgb(235,235,235)"/><rect x="1483.142" y="741.347" width="76.943" height="34.2" transform="matrix(1,0,0,1,0,0)" fill="rgb(235,235,235)"/><rect x="1829.767" y="788.742" width="76.943" height="34.2" transform="matrix(1,0,0,1,0,0)" fill="rgb(235,235,235)"/><rect x="1483.142" y="788.742" width="76.943" height="34.2" transform="matrix(1,0,0,1,0,0)" fill="rgb(235,235,235)"/><rect x="1829.767" y="836.137" width="76.943" height="34.2" transform="matrix(1,0,0,1,0,0)" fill="rgb(235,235,235)"/><rect x="1829.767" y="741.347" width="76.943" height="34.2" transform="matrix(1,0,0,1,0,0)" fill="rgb(235,235,235)"/><rect x="1829.767" y="788.742" width="76.943" height="34.2" transform="matrix(1,0,0,1,0,0)" fill="rgb(235,235,235)"/><rect x="1829.767" y="836.137" width="76.943" height="34.2" transform="matrix(1,0,0,1,0,0)" fill="rgb(235,235,235)"/><rect x="1829.767" y="741.347" width="76.943" height="34.2" transform="matrix(1,0,0,1,0,0)" fill="rgb(235,235,235)"/><rect x="1829.767" y="788.742" width="76.943" height="34.2" transform="matrix(1,0,0,1,0,0)" fill="rgb(235,235,235)"/><rect x="1829.767" y="836.137" width="76.943" height="34.2" transform="matrix(1,0,0,1,0,0)" fill="rgb(235,235,235)"/><rect x="1483.142" y="836.137" width="76.943" height="34.2" transform="matrix(1,0,0,1,0,0)" fill="rgb(235,235,235)"/></g><g><g><rect x="559.974" y="132" width="33.882" height="95.231" transform="matrix(1,0,0,1,0,0)" fill="rgb(235,235,235)"/><rect x="627.062" y="132" width="33.882" height="95.231" transform="matrix(1,0,0,1,0,0)" fill="rgb(235,235,235)"/><rect x="692.118" y="132" width="33.882" height="95.231" transform="matrix(1,0,0,1,0,0)" fill="rgb(235,235,235)"/></g><g><g><rect x="434.799" y="609.724" width="34.432" height="129.819" transform="matrix(1,0,0,1,0,0)" fill="rgb(235,235,235)"/><rect x="502.093" y="609.724" width="34.432" height="129.819" transform="matrix(1,0,0,1,0,0)" fill="rgb(235,235,235)"/><rect x="569.388" y="609.724" width="34.432" height="129.819" transform="matrix(1,0,0,1,0,0)" fill="rgb(235,235,235)"/><rect x="636.683" y="609.724" width="34.432" height="129.819" transform="matrix(1,0,0,1,0,0)" fill="rgb(235,235,235)"/><rect x="703.978" y="609.724" width="34.432" height="129.819" transform="matrix(1,0,0,1,0,0)" fill="rgb(235,235,235)"/><rect x="771.273" y="609.724" width="34.432" height="129.819" transform="matrix(1,0,0,1,0,0)" fill="rgb(235,235,235)"/><rect x="838.568" y="609.724" width="34.432" height="129.819" transform="matrix(1,0,0,1,0,0)" fill="rgb(235,235,235)"/></g><g><rect x="436.799" y="442.724" width="34.432" height="129.819" transform="matrix(1,0,0,1,0,0)" fill="rgb(235,235,235)"/><rect x="504.093" y="442.724" width="34.432" height="129.819" transform="matrix(1,0,0,1,0,0)" fill="rgb(235,235,235)"/><rect x="571.388" y="442.724" width="34.432" height="129.819" transform="matrix(1,0,0,1,0,0)" fill="rgb(235,235,235)"/><rect x="638.683" y="442.724" width="34.432" height="129.819" transform="matrix(1,0,0,1,0,0)" fill="rgb(235,235,235)"/><rect x="705.978" y="442.724" width="34.432" height="129.819" transform="matrix(1,0,0,1,0,0)" fill="rgb(235,235,235)"/><rect x="773.273" y="442.724" width="34.432" height="129.819" transform="matrix(1,0,0,1,0,0)" fill="rgb(235,235,235)"/><rect x="840.568" y="442.724" width="34.432" height="129.819" transform="matrix(1,0,0,1,0,0)" fill="rgb(235,235,235)"/></g><g><rect x="438.799" y="275.724" width="34.432" height="129.819" transform="matrix(1,0,0,1,0,0)" fill="rgb(235,235,235)"/><rect x="506.093" y="275.724" width="34.432" height="129.819" transform="matrix(1,0,0,1,0,0)" fill="rgb(235,235,235)"/><rect x="573.388" y="275.724" width="34.432" height="129.819" transform="matrix(1,0,0,1,0,0)" fill="rgb(235,235,235)"/><rect x="640.683" y="275.724" width="34.432" height="129.819" transform="matrix(1,0,0,1,0,0)" fill="rgb(235,235,235)"/><rect x="707.978" y="275.724" width="34.432" height="129.819" transform="matrix(1,0,0,1,0,0)" fill="rgb(235,235,235)"/><rect x="775.273" y="275.724" width="34.432" height="129.819" transform="matrix(1,0,0,1,0,0)" fill="rgb(235,235,235)"/><rect x="842.568" y="275.724" width="34.432" height="129.819" transform="matrix(1,0,0,1,0,0)" fill="rgb(235,235,235)"/></g></g></g><g><rect x="2415.518" y="374.237" width="42.633" height="57.108" transform="matrix(1,0,0,1,0,0)" fill="rgb(235,235,235)"/><rect x="2491.811" y="374.237" width="42.633" height="57.108" transform="matrix(1,0,0,1,0,0)" fill="rgb(235,235,235)"/><rect x="2415.518" y="540.37" width="42.633" height="57.108" transform="matrix(1,0,0,1,0,0)" fill="rgb(235,235,235)"/><rect x="2491.811" y="540.37" width="42.633" height="57.108" transform="matrix(1,0,0,1,0,0)" fill="rgb(235,235,235)"/><rect x="2415.518" y="457.302" width="42.633" height="57.108" transform="matrix(1,0,0,1,0,0)" fill="rgb(235,235,235)"/><rect x="2491.811" y="457.302" width="42.633" height="57.108" transform="matrix(1,0,0,1,0,0)" fill="rgb(235,235,235)"/></g><g><rect x="2565.112" y="374.237" width="42.633" height="57.108" transform="matrix(1,0,0,1,0,0)" fill="rgb(235,235,235)"/><rect x="2491.811" y="294.631" width="42.633" height="57.108" transform="matrix(1,0,0,1,0,0)" fill="rgb(235,235,235)"/><rect x="2565.112" y="294.631" width="42.633" height="57.108" transform="matrix(1,0,0,1,0,0)" fill="rgb(235,235,235)"/><rect x="2491.811" y="211.565" width="42.633" height="57.108" transform="matrix(1,0,0,1,0,0)" fill="rgb(235,235,235)"/><rect x="2565.112" y="211.565" width="42.633" height="57.108" transform="matrix(1,0,0,1,0,0)" fill="rgb(235,235,235)"/><rect x="2641.403" y="374.237" width="42.633" height="57.108" transform="matrix(1,0,0,1,0,0)" fill="rgb(235,235,235)"/><rect x="2565.112" y="540.37" width="42.633" height="57.108" transform="matrix(1,0,0,1,0,0)" fill="rgb(235,235,235)"/><rect x="2641.403" y="540.37" width="42.633" height="57.108" transform="matrix(1,0,0,1,0,0)" fill="rgb(235,235,235)"/><rect x="2565.112" y="457.302" width="42.633" height="57.108" transform="matrix(1,0,0,1,0,0)" fill="rgb(235,235,235)"/><rect x="2641.403" y="457.302" width="42.633" height="57.108" transform="matrix(1,0,0,1,0,0)" fill="rgb(235,235,235)"/></g><g><rect x="2414.022" y="618.821" width="42.633" height="57.108" transform="matrix(1,0,0,1,0,0)" fill="rgb(235,235,235)"/><rect x="2490.315" y="618.821" width="42.633" height="57.108" transform="matrix(1,0,0,1,0,0)" fill="rgb(235,235,235)"/><rect x="2414.022" y="701.889" width="42.633" height="57.108" transform="matrix(1,0,0,1,0,0)" fill="rgb(235,235,235)"/><rect x="2490.315" y="701.889" width="42.633" height="57.108" transform="matrix(1,0,0,1,0,0)" fill="rgb(235,235,235)"/></g><g><rect x="2563.614" y="618.821" width="42.633" height="57.108" transform="matrix(1,0,0,1,0,0)" fill="rgb(235,235,235)"/><rect x="2639.907" y="618.821" width="42.633" height="57.108" transform="matrix(1,0,0,1,0,0)" fill="rgb(235,235,235)"/><rect x="2563.614" y="701.889" width="42.633" height="57.108" transform="matrix(1,0,0,1,0,0)" fill="rgb(235,235,235)"/><rect x="2639.907" y="701.889" width="42.633" height="57.108" transform="matrix(1,0,0,1,0,0)" fill="rgb(235,235,235)"/><rect x="2562.119" y="784.902" width="42.633" height="70.739" transform="matrix(1,0,0,1,0,0)" fill="rgb(235,235,235)"/><rect x="2638.411" y="784.902" width="42.633" height="69.604" transform="matrix(1,0,0,1,0,0)" fill="rgb(235,235,235)"/></g><rect x="35.575" y="805.199" width="60.005" height="100.674" transform="matrix(1,0,0,1,0,0)" fill="rgb(235,235,235)"/><rect x="534.133" y="777.467" width="92" height="122.681" transform="matrix(1,0,0,1,0,0)" fill="rgb(235,235,235)"/><rect x="628.376" y="777.467" width="92" height="122.681" transform="matrix(1,0,0,1,0,0)" fill="rgb(235,235,235)"/><rect x="2074.449" y="756.903" width="92" height="136.313" transform="matrix(1,0,0,1,0,0)" fill="rgb(235,235,235)"/><rect x="2001.15" y="775.559" width="49.832" height="117.001" transform="matrix(1,0,0,1,0,0)" fill="rgb(235,235,235)"/><rect x="2286.87" y="775.559" width="49.832" height="117.001" transform="matrix(1,0,0,1,0,0)" fill="rgb(235,235,235)"/><rect x="2168.692" y="765.903" width="92" height="136.313" transform="matrix(1,0,0,1,0,0)" fill="rgb(235,235,235)"/><rect x="2168.692" y="756.903" width="92" height="136.313" transform="matrix(1,0,0,1,0,0)" fill="rgb(235,235,235)"/><rect x="1206" y="764" width="126" height="139.35" transform="matrix(1,0,0,1,0,0)" fill="rgb(235,235,235)"/><rect x="1634" y="758" width="130" height="150.642" transform="matrix(1,0,0,1,0,0)" fill="rgb(235,235,235)"/><rect x="2434.966" y="800" width="83.023" height="93.85" transform="matrix(1,0,0,1,0,0)" fill="rgb(235,235,235)"/><g><rect x="3354.988" y="209.209" width="361.806" height="699.95" transform="matrix(1,0,0,1,0,0)" fill="rgb(70,62,50)"/><rect x="3402.009" y="132" width="267.423" height="126.054" transform="matrix(1,0,0,1,0,0)" fill="rgb(70,62,50)"/><rect x="3716.281" y="371.648" width="476.697" height="536.164" transform="matrix(1,0,0,1,0,0)" fill="rgb(100,145,122)"/><rect x="3963.107" y="290.539" width="166.047" height="112.915" transform="matrix(1,0,0,1,0,0)" fill="rgb(100,145,122)"/><rect x="3846.427" y="327.872" width="121.17" height="82.398" transform="matrix(1,0,0,1,0,0)" fill="rgb(100,145,122)"/><rect x="4181.167" y="159.461" width="394.314" height="749.719" transform="matrix(1,0,0,1,0,0)" fill="rgb(172,96,49)"/><rect x="4181.167" y="12.924" width="249.818" height="579.329" transform="matrix(1,0,0,1,0,0)" fill="rgb(172,96,49)"/><rect x="4568.286" y="328.714" width="375.799" height="579.329" transform="matrix(1,0,0,1,0,0)" fill="rgb(170,148,1)"/><rect x="4608" y="178.771" width="291.208" height="579.329" transform="matrix(1,0,0,1,0,0)" fill="rgb(170,148,1)"/><rect x="3787.337" y="410.27" width="61.897" height="47.166" transform="matrix(1,0,0,1,0,0)" fill="rgb(235,235,235)"/><rect x="3787.337" y="479.67" width="61.897" height="47.166" transform="matrix(1,0,0,1,0,0)" fill="rgb(235,235,235)"/><rect x="3787.337" y="549.072" width="61.897" height="47.166" transform="matrix(1,0,0,1,0,0)" fill="rgb(235,235,235)"/><rect x="3787.337" y="618.473" width="61.897" height="47.166" transform="matrix(1,0,0,1,0,0)" fill="rgb(235,235,235)"/><rect x="3787.337" y="687.873" width="61.897" height="47.166" transform="matrix(1,0,0,1,0,0)" fill="rgb(235,235,235)"/><rect x="3787.337" y="757.275" width="61.897" height="47.166" transform="matrix(1,0,0,1,0,0)" fill="rgb(235,235,235)"/><rect x="3860.82" y="410.27" width="61.897" height="47.166" transform="matrix(1,0,0,1,0,0)" fill="rgb(235,235,235)"/><rect x="3860.82" y="479.67" width="61.897" height="47.166" transform="matrix(1,0,0,1,0,0)" fill="rgb(235,235,235)"/><rect x="3860.82" y="549.072" width="61.897" height="47.166" transform="matrix(1,0,0,1,0,0)" fill="rgb(235,235,235)"/><rect x="3860.82" y="618.473" width="61.897" height="47.166" transform="matrix(1,0,0,1,0,0)" fill="rgb(235,235,235)"/><rect x="3860.82" y="687.873" width="61.897" height="47.166" transform="matrix(1,0,0,1,0,0)" fill="rgb(235,235,235)"/><rect x="3860.82" y="757.275" width="61.897" height="47.166" transform="matrix(1,0,0,1,0,0)" fill="rgb(235,235,235)"/><rect x="3787.337" y="825.431" width="61.897" height="47.166" transform="matrix(1,0,0,1,0,0)" fill="rgb(235,235,235)"/><rect x="3860.82" y="825.431" width="61.897" height="47.166" transform="matrix(1,0,0,1,0,0)" fill="rgb(235,235,235)"/><rect x="3971.336" y="410.27" width="61.897" height="47.166" transform="matrix(1,0,0,1,0,0)" fill="rgb(235,235,235)"/><rect x="3971.336" y="479.67" width="61.897" height="47.166" transform="matrix(1,0,0,1,0,0)" fill="rgb(235,235,235)"/><rect x="3971.336" y="549.072" width="61.897" height="47.166" transform="matrix(1,0,0,1,0,0)" fill="rgb(235,235,235)"/><rect x="3971.336" y="618.473" width="61.897" height="47.166" transform="matrix(1,0,0,1,0,0)" fill="rgb(235,235,235)"/><rect x="3971.336" y="687.873" width="61.897" height="47.166" transform="matrix(1,0,0,1,0,0)" fill="rgb(235,235,235)"/><rect x="4044.817" y="410.27" width="61.897" height="47.166" transform="matrix(1,0,0,1,0,0)" fill="rgb(235,235,235)"/><rect x="4044.817" y="479.67" width="61.897" height="47.166" transform="matrix(1,0,0,1,0,0)" fill="rgb(235,235,235)"/><rect x="4044.817" y="549.072" width="61.897" height="47.166" transform="matrix(1,0,0,1,0,0)" fill="rgb(235,235,235)"/><rect x="4044.817" y="618.473" width="61.897" height="47.166" transform="matrix(1,0,0,1,0,0)" fill="rgb(235,235,235)"/><rect x="4044.817" y="687.873" width="61.897" height="47.166" transform="matrix(1,0,0,1,0,0)" fill="rgb(235,235,235)"/><g><g><rect x="3405.003" y="268.833" width="29.293" height="129.819" transform="matrix(1,0,0,1,0,0)" fill="rgb(235,235,235)"/><rect x="3463.004" y="268.833" width="29.293" height="129.819" transform="matrix(1,0,0,1,0,0)" fill="rgb(235,235,235)"/><rect x="3521.006" y="268.833" width="29.293" height="129.819" transform="matrix(1,0,0,1,0,0)" fill="rgb(235,235,235)"/><rect x="3579.007" y="268.833" width="29.293" height="129.819" transform="matrix(1,0,0,1,0,0)" fill="rgb(235,235,235)"/></g><g><rect x="3405.003" y="268.833" width="29.293" height="129.819" transform="matrix(1,0,0,1,0,0)" fill="rgb(235,235,235)"/><rect x="3463.004" y="268.833" width="29.293" height="129.819" transform="matrix(1,0,0,1,0,0)" fill="rgb(235,235,235)"/><rect x="3521.006" y="268.833" width="29.293" height="129.819" transform="matrix(1,0,0,1,0,0)" fill="rgb(235,235,235)"/><rect x="3521.006" y="268.833" width="29.293" height="129.819" transform="matrix(1,0,0,1,0,0)" fill="rgb(235,235,235)"/><rect x="3579.007" y="268.833" width="29.293" height="129.819" transform="matrix(1,0,0,1,0,0)" fill="rgb(235,235,235)"/><rect x="3635.251" y="268.833" width="29.293" height="129.819" transform="matrix(1,0,0,1,0,0)" fill="rgb(235,235,235)"/></g><g><rect x="3405.003" y="438.643" width="29.293" height="129.819" transform="matrix(1,0,0,1,0,0)" fill="rgb(235,235,235)"/><rect x="3463.004" y="438.643" width="29.293" height="129.819" transform="matrix(1,0,0,1,0,0)" fill="rgb(235,235,235)"/><rect x="3521.006" y="438.643" width="29.293" height="129.819" transform="matrix(1,0,0,1,0,0)" fill="rgb(235,235,235)"/><rect x="3579.007" y="438.643" width="29.293" height="129.819" transform="matrix(1,0,0,1,0,0)" fill="rgb(235,235,235)"/><rect x="3635.251" y="438.643" width="29.293" height="129.819" transform="matrix(1,0,0,1,0,0)" fill="rgb(235,235,235)"/></g><g><rect x="3405.003" y="612.145" width="29.293" height="129.819" transform="matrix(1,0,0,1,0,0)" fill="rgb(235,235,235)"/><rect x="3463.004" y="612.145" width="29.293" height="129.819" transform="matrix(1,0,0,1,0,0)" fill="rgb(235,235,235)"/><rect x="3521.006" y="612.145" width="29.293" height="129.819" transform="matrix(1,0,0,1,0,0)" fill="rgb(235,235,235)"/><rect x="3579.007" y="612.145" width="29.293" height="129.819" transform="matrix(1,0,0,1,0,0)" fill="rgb(235,235,235)"/><rect x="3635.251" y="612.145" width="29.293" height="129.819" transform="matrix(1,0,0,1,0,0)" fill="rgb(235,235,235)"/></g></g><g><rect x="4595.75" y="400.714" width="49.894" height="59.586" transform="matrix(1,0,0,1,0,0)" fill="rgb(235,235,235)"/><rect x="4685.037" y="400.714" width="49.894" height="59.586" transform="matrix(1,0,0,1,0,0)" fill="rgb(235,235,235)"/><rect x="4595.75" y="574.053" width="49.894" height="59.586" transform="matrix(1,0,0,1,0,0)" fill="rgb(235,235,235)"/><rect x="4685.037" y="574.053" width="49.894" height="59.586" transform="matrix(1,0,0,1,0,0)" fill="rgb(235,235,235)"/><rect x="4595.75" y="487.383" width="49.894" height="59.586" transform="matrix(1,0,0,1,0,0)" fill="rgb(235,235,235)"/><rect x="4685.037" y="487.383" width="49.894" height="59.586" transform="matrix(1,0,0,1,0,0)" fill="rgb(235,235,235)"/></g><g><rect x="4770.819" y="400.714" width="49.894" height="59.586" transform="matrix(1,0,0,1,0,0)" fill="rgb(235,235,235)"/><rect x="4685.037" y="317.655" width="49.894" height="59.586" transform="matrix(1,0,0,1,0,0)" fill="rgb(235,235,235)"/><rect x="4770.819" y="317.655" width="49.894" height="59.586" transform="matrix(1,0,0,1,0,0)" fill="rgb(235,235,235)"/><rect x="4685.037" y="230.986" width="49.894" height="59.586" transform="matrix(1,0,0,1,0,0)" fill="rgb(235,235,235)"/><rect x="4770.819" y="230.986" width="49.894" height="59.586" transform="matrix(1,0,0,1,0,0)" fill="rgb(235,235,235)"/><rect x="4860.106" y="400.714" width="49.894" height="59.586" transform="matrix(1,0,0,1,0,0)" fill="rgb(235,235,235)"/><rect x="4770.819" y="574.053" width="49.894" height="59.586" transform="matrix(1,0,0,1,0,0)" fill="rgb(235,235,235)"/><rect x="4860.106" y="574.053" width="49.894" height="59.586" transform="matrix(1,0,0,1,0,0)" fill="rgb(235,235,235)"/><rect x="4770.819" y="487.383" width="49.894" height="59.586" transform="matrix(1,0,0,1,0,0)" fill="rgb(235,235,235)"/><rect x="4860.106" y="487.383" width="49.894" height="59.586" transform="matrix(1,0,0,1,0,0)" fill="rgb(235,235,235)"/></g><g><rect x="4594" y="655.908" width="49.894" height="59.586" transform="matrix(1,0,0,1,0,0)" fill="rgb(235,235,235)"/><rect x="4683.286" y="655.908" width="49.894" height="59.586" transform="matrix(1,0,0,1,0,0)" fill="rgb(235,235,235)"/></g><g><rect x="4769.069" y="655.908" width="49.894" height="59.586" transform="matrix(1,0,0,1,0,0)" fill="rgb(235,235,235)"/><rect x="4858.355" y="655.908" width="49.894" height="59.586" transform="matrix(1,0,0,1,0,0)" fill="rgb(235,235,235)"/><rect x="4769.069" y="742.578" width="49.894" height="59.586" transform="matrix(1,0,0,1,0,0)" fill="rgb(235,235,235)"/><rect x="4858.355" y="742.578" width="49.894" height="59.586" transform="matrix(1,0,0,1,0,0)" fill="rgb(235,235,235)"/></g><rect x="3442.399" y="776" width="92" height="117.083" transform="matrix(1,0,0,1,0,0)" fill="rgb(235,235,235)"/><rect x="3536.642" y="776" width="92" height="117.083" transform="matrix(1,0,0,1,0,0)" fill="rgb(235,235,235)"/><rect x="4288.125" y="760.323" width="92" height="136.313" transform="matrix(1,0,0,1,0,0)" fill="rgb(235,235,235)"/><rect x="4214.824" y="777.979" width="49.832" height="117.001" transform="matrix(1,0,0,1,0,0)" fill="rgb(235,235,235)"/><rect x="4500.544" y="777.979" width="49.832" height="117.001" transform="matrix(1,0,0,1,0,0)" fill="rgb(235,235,235)"/><rect x="4382.368" y="768.323" width="92" height="136.313" transform="matrix(1,0,0,1,0,0)" fill="rgb(235,235,235)"/><rect x="4382.368" y="760.323" width="92" height="136.313" transform="matrix(1,0,0,1,0,0)" fill="rgb(235,235,235)"/><rect x="3972.506" y="773" width="67.494" height="123.266" transform="matrix(1,0,0,1,0,0)" fill="rgb(235,235,235)"/><rect x="4041.506" y="773" width="67.494" height="123.266" transform="matrix(1,0,0,1,0,0)" fill="rgb(235,235,235)"/><rect x="4619.782" y="754" width="111.882" height="137.771" transform="matrix(1,0,0,1,0,0)" fill="rgb(235,235,235)"/><g><rect x="2786.446" y="681.921" width="68.554" height="50.458" transform="matrix(1,0,0,1,0,0)" fill="rgb(235,235,235)"/><rect x="2786.446" y="755.544" width="68.554" height="50.458" transform="matrix(1,0,0,1,0,0)" fill="rgb(235,235,235)"/><rect x="2786.446" y="607.564" width="68.554" height="50.458" transform="matrix(1,0,0,1,0,0)" fill="rgb(235,235,235)"/><rect x="2786.446" y="533.206" width="68.554" height="50.458" transform="matrix(1,0,0,1,0,0)" fill="rgb(235,235,235)"/><rect x="2786.446" y="459.275" width="68.554" height="50.458" transform="matrix(1,0,0,1,0,0)" fill="rgb(235,235,235)"/></g><g><rect x="2896.446" y="681.921" width="68.554" height="50.458" transform="matrix(1,0,0,1,0,0)" fill="rgb(235,235,235)"/><rect x="2896.446" y="755.544" width="68.554" height="50.458" transform="matrix(1,0,0,1,0,0)" fill="rgb(235,235,235)"/><rect x="2896.446" y="607.564" width="68.554" height="50.458" transform="matrix(1,0,0,1,0,0)" fill="rgb(235,235,235)"/><rect x="2896.446" y="533.206" width="68.554" height="50.458" transform="matrix(1,0,0,1,0,0)" fill="rgb(235,235,235)"/><rect x="2896.446" y="459.275" width="68.554" height="50.458" transform="matrix(1,0,0,1,0,0)" fill="rgb(235,235,235)"/></g><g><rect x="3006.446" y="681.921" width="68.554" height="50.458" transform="matrix(1,0,0,1,0,0)" fill="rgb(235,235,235)"/><rect x="3006.446" y="607.564" width="68.554" height="50.458" transform="matrix(1,0,0,1,0,0)" fill="rgb(235,235,235)"/><rect x="3006.446" y="533.206" width="68.554" height="50.458" transform="matrix(1,0,0,1,0,0)" fill="rgb(235,235,235)"/><rect x="3006.446" y="459.275" width="68.554" height="50.458" transform="matrix(1,0,0,1,0,0)" fill="rgb(235,235,235)"/></g><g><rect x="3116.446" y="681.921" width="68.554" height="50.458" transform="matrix(1,0,0,1,0,0)" fill="rgb(235,235,235)"/><rect x="3116.446" y="755.544" width="68.554" height="50.458" transform="matrix(1,0,0,1,0,0)" fill="rgb(235,235,235)"/><rect x="3116.446" y="607.564" width="68.554" height="50.458" transform="matrix(1,0,0,1,0,0)" fill="rgb(235,235,235)"/><rect x="3116.446" y="533.206" width="68.554" height="50.458" transform="matrix(1,0,0,1,0,0)" fill="rgb(235,235,235)"/><rect x="3116.446" y="459.275" width="68.554" height="50.458" transform="matrix(1,0,0,1,0,0)" fill="rgb(235,235,235)"/></g><g><rect x="3226.446" y="681.921" width="68.554" height="50.458" transform="matrix(1,0,0,1,0,0)" fill="rgb(235,235,235)"/><rect x="3226.446" y="755.544" width="68.554" height="50.458" transform="matrix(1,0,0,1,0,0)" fill="rgb(235,235,235)"/><rect x="3226.446" y="607.564" width="68.554" height="50.458" transform="matrix(1,0,0,1,0,0)" fill="rgb(235,235,235)"/><rect x="3226.446" y="533.206" width="68.554" height="50.458" transform="matrix(1,0,0,1,0,0)" fill="rgb(235,235,235)"/><rect x="3226.446" y="459.275" width="68.554" height="50.458" transform="matrix(1,0,0,1,0,0)" fill="rgb(235,235,235)"/></g><rect x="2984.704" y="767" width="106.095" height="126.49" transform="matrix(1,0,0,1,0,0)" fill="rgb(235,235,235)"/></g><g><rect x="4942.22" y="121.634" width="533.512" height="773.71" transform="matrix(1,0,0,1,0,0)" fill="rgb(77,66,64)"/><g><rect x="4991.835" y="186.185" width="81.165" height="68.423" transform="matrix(1,0,0,1,0,0)" fill="rgb(235,235,235)"/><rect x="4991.835" y="286.862" width="81.165" height="68.423" transform="matrix(1,0,0,1,0,0)" fill="rgb(235,235,235)"/><rect x="4991.835" y="387.541" width="81.165" height="68.423" transform="matrix(1,0,0,1,0,0)" fill="rgb(235,235,235)"/><rect x="4991.835" y="488.221" width="81.165" height="68.423" transform="matrix(1,0,0,1,0,0)" fill="rgb(235,235,235)"/><rect x="4991.835" y="588.898" width="81.165" height="68.423" transform="matrix(1,0,0,1,0,0)" fill="rgb(235,235,235)"/><rect x="4991.835" y="689.577" width="81.165" height="68.423" transform="matrix(1,0,0,1,0,0)" fill="rgb(235,235,235)"/></g><g><rect x="5111.168" y="186.185" width="81.165" height="68.423" transform="matrix(1,0,0,1,0,0)" fill="rgb(235,235,235)"/><rect x="5111.168" y="286.862" width="81.165" height="68.423" transform="matrix(1,0,0,1,0,0)" fill="rgb(235,235,235)"/><rect x="5111.168" y="387.541" width="81.165" height="68.423" transform="matrix(1,0,0,1,0,0)" fill="rgb(235,235,235)"/><rect x="5111.168" y="488.221" width="81.165" height="68.423" transform="matrix(1,0,0,1,0,0)" fill="rgb(235,235,235)"/><rect x="5111.168" y="588.898" width="81.165" height="68.423" transform="matrix(1,0,0,1,0,0)" fill="rgb(235,235,235)"/></g><g><rect x="5230.502" y="186.185" width="81.165" height="68.423" transform="matrix(1,0,0,1,0,0)" fill="rgb(235,235,235)"/><rect x="5230.502" y="286.862" width="81.165" height="68.423" transform="matrix(1,0,0,1,0,0)" fill="rgb(235,235,235)"/><rect x="5230.502" y="387.541" width="81.165" height="68.423" transform="matrix(1,0,0,1,0,0)" fill="rgb(235,235,235)"/><rect x="5230.502" y="488.221" width="81.165" height="68.423" transform="matrix(1,0,0,1,0,0)" fill="rgb(235,235,235)"/><rect x="5230.502" y="588.898" width="81.165" height="68.423" transform="matrix(1,0,0,1,0,0)" fill="rgb(235,235,235)"/></g><g><rect x="5349.835" y="186.185" width="81.165" height="68.423" transform="matrix(1,0,0,1,0,0)" fill="rgb(235,235,235)"/><rect x="5349.835" y="286.862" width="81.165" height="68.423" transform="matrix(1,0,0,1,0,0)" fill="rgb(235,235,235)"/><rect x="5349.835" y="387.541" width="81.165" height="68.423" transform="matrix(1,0,0,1,0,0)" fill="rgb(235,235,235)"/><rect x="5349.835" y="488.221" width="81.165" height="68.423" transform="matrix(1,0,0,1,0,0)" fill="rgb(235,235,235)"/><rect x="5349.835" y="588.898" width="81.165" height="68.423" transform="matrix(1,0,0,1,0,0)" fill="rgb(235,235,235)"/><rect x="5349.835" y="689.577" width="81.165" height="68.423" transform="matrix(1,0,0,1,0,0)" fill="rgb(235,235,235)"/></g><rect x="5137.269" y="710" width="148.731" height="182.896" transform="matrix(1,0,0,1,0,0)" fill="rgb(235,235,235)"/></g></g><g><g><rect x="3281.267" y="1040.936" width="2194.464" height="209.064" transform="matrix(1,0,0,1,0,0)" fill="rgb(87,79,79)"/><path d=" M 5424.099 1141.532 L 5424.099 1152.637 L 5362.548 1152.637 L 5362.548 1141.532 L 5424.099 1141.532 Z  M 5292.358 1141.532 L 5292.358 1152.637 L 5230.806 1152.637 L 5230.806 1141.532 L 5292.358 1141.532 Z  M 5160.616 1141.532 L 5160.616 1152.637 L 5099.065 1152.637 L 5099.065 1141.532 L 5160.616 1141.532 Z  M 5028.873 1141.532 L 5028.873 1152.637 L 4967.324 1152.637 L 4967.324 1141.532 L 5028.873 1141.532 Z  M 4897.132 1141.532 L 4897.132 1152.637 L 4835.582 1152.637 L 4835.582 1141.532 L 4897.132 1141.532 Z  M 4765.39 1141.532 L 4765.39 1152.637 L 4703.839 1152.637 L 4703.839 1141.532 L 4765.39 1141.532 Z  M 4633.649 1141.532 L 4633.649 1152.637 L 4572.098 1152.637 L 4572.098 1141.532 L 4633.649 1141.532 Z  M 4501.908 1141.532 L 4501.908 1152.637 L 4440.356 1152.637 L 4440.356 1141.532 L 4501.908 1141.532 Z  M 4370.164 1141.532 L 4370.164 1152.637 L 4308.615 1152.637 L 4308.615 1141.532 L 4370.164 1141.532 Z  M 4238.423 1141.532 L 4238.423 1152.637 L 4176.874 1152.637 L 4176.874 1141.532 L 4238.423 1141.532 Z  M 4106.682 1141.532 L 4106.682 1152.637 L 4045.13 1152.637 L 4045.13 1141.532 L 4106.682 1141.532 Z  M 3974.94 1141.532 L 3974.94 1152.637 L 3913.389 1152.637 L 3913.389 1141.532 L 3974.94 1141.532 Z  M 3843.199 1141.532 L 3843.199 1152.637 L 3781.648 1152.637 L 3781.648 1141.532 L 3843.199 1141.532 Z  M 3711.455 1141.532 L 3711.455 1152.637 L 3649.906 1152.637 L 3649.906 1141.532 L 3711.455 1141.532 Z  M 3579.714 1141.532 L 3579.714 1152.637 L 3518.165 1152.637 L 3518.165 1141.532 L 3579.714 1141.532 Z  M 3447.973 1141.532 L 3447.973 1152.637 L 3386.421 1152.637 L 3386.421 1141.532 L 3447.973 1141.532 Z " fill-rule="evenodd" fill="rgb(255,255,255)"/></g><g><rect x="-31.117" y="1040.936" width="3313.413" height="209.064" transform="matrix(1,0,0,1,0,0)" fill="rgb(87,79,79)"/><path d=" M 2367.8 1141.532 L 2367.8 1152.637 L 2305.467 1152.637 L 2305.467 1141.532 L 2367.8 1141.532 Z  M 2234.384 1141.532 L 2234.384 1152.637 L 2172.053 1152.637 L 2172.053 1141.532 L 2234.384 1141.532 Z  M 2100.97 1141.532 L 2100.97 1152.637 L 2038.64 1152.637 L 2038.64 1141.532 L 2100.97 1141.532 Z  M 1967.556 1141.532 L 1967.556 1152.637 L 1905.224 1152.637 L 1905.224 1141.532 L 1967.556 1141.532 Z  M 1834.143 1141.532 L 1834.143 1152.637 L 1771.81 1152.637 L 1771.81 1141.532 L 1834.143 1141.532 Z  M 1700.729 1141.532 L 1700.729 1152.637 L 1638.396 1152.637 L 1638.396 1141.532 L 1700.729 1141.532 Z  M 1567.313 1141.532 L 1567.313 1152.637 L 1504.982 1152.637 L 1504.982 1141.532 L 1567.313 1141.532 Z  M 1433.899 1141.532 L 1433.899 1152.637 L 1371.568 1152.637 L 1371.568 1141.532 L 1433.899 1141.532 Z  M 1300.485 1141.532 L 1300.485 1152.637 L 1238.152 1152.637 L 1238.152 1141.532 L 1300.485 1141.532 Z  M 1167.071 1141.532 L 1167.071 1152.637 L 1104.739 1152.637 L 1104.739 1141.532 L 1167.071 1141.532 Z  M 1033.658 1141.532 L 1033.658 1152.637 L 971.325 1152.637 L 971.325 1141.532 L 1033.658 1141.532 Z  M 900.242 1141.532 L 900.242 1152.637 L 837.911 1152.637 L 837.911 1141.532 L 900.242 1141.532 Z  M 766.828 1141.532 L 766.828 1152.637 L 704.498 1152.637 L 704.498 1141.532 L 766.828 1141.532 Z  M 633.414 1141.532 L 633.414 1152.637 L 571.082 1152.637 L 571.082 1141.532 L 633.414 1141.532 Z  M 500 1141.532 L 500 1152.637 L 437.668 1152.637 L 437.668 1141.532 L 500 1141.532 Z  M 366.587 1141.532 L 366.587 1152.637 L 304.254 1152.637 L 304.254 1141.532 L 366.587 1141.532 Z  M 233.171 1141.532 L 233.171 1152.637 L 170.84 1152.637 L 170.84 1141.532 L 233.171 1141.532 Z  M 99.757 1141.532 L 99.757 1152.637 L 37.427 1152.637 L 37.427 1141.532 L 99.757 1141.532 Z  M 3303.739 1141.532 L 3303.739 1152.637 L 3241.407 1152.637 L 3241.407 1141.532 L 3303.739 1141.532 Z  M 3170.326 1141.532 L 3170.326 1152.637 L 3107.993 1152.637 L 3107.993 1141.532 L 3170.326 1141.532 Z  M 3036.912 1141.532 L 3036.912 1152.637 L 2974.579 1152.637 L 2974.579 1141.532 L 3036.912 1141.532 Z  M 2903.496 1141.532 L 2903.496 1152.637 L 2841.165 1152.637 L 2841.165 1141.532 L 2903.496 1141.532 Z  M 2770.082 1141.532 L 2770.082 1152.637 L 2707.752 1152.637 L 2707.752 1141.532 L 2770.082 1141.532 Z  M 2636.668 1141.532 L 2636.668 1152.637 L 2574.336 1152.637 L 2574.336 1141.532 L 2636.668 1141.532 Z  M 2503.255 1141.532 L 2503.255 1152.637 L 2440.922 1152.637 L 2440.922 1141.532 L 2503.255 1141.532 Z " fill-rule="evenodd" fill="rgb(255,255,255)"/></g></g><g><g><mask id="_mask_2syATBs4QoySm2tF1Y0XJtVRLH6D3DSt" x="-200%" y="-200%" width="400%" height="400%"><rect x="-200%" y="-200%" width="400%" height="400%" style="fill:white;"/><path d=" M 425.712 1047.18 L 158.29 1047.515 L 273.203 896.565 L 540.63 896.23 L 425.712 1047.18 Z " fill="black" stroke="none"/></mask><path d=" M 425.712 1047.18 L 158.29 1047.515 L 273.203 896.565 L 540.63 896.23 L 425.712 1047.18 Z " fill="rgb(157,153,153)" mask="url(#_mask_2syATBs4QoySm2tF1Y0XJtVRLH6D3DSt)" vector-effect="non-scaling-stroke" stroke-width="6" stroke="rgb(121,117,117)" stroke-opacity="100" stroke-linejoin="miter" stroke-linecap="square" stroke-miterlimit="3"/><path d=" M 425.712 1047.18 L 158.29 1047.515 L 273.203 896.565 L 540.63 896.23 L 425.712 1047.18 Z " fill="rgb(157,153,153)"/><mask id="_mask_Ka1tritGpPrYg4kfBQyTd0kDnvTMi2mW" x="-200%" y="-200%" width="400%" height="400%"><rect x="-200%" y="-200%" width="400%" height="400%" style="fill:white;"/><path d=" M 153.918 1047.18 L -119.333 1047.515 L -1.916 896.565 L 271.339 896.23 L 153.918 1047.18 Z " fill="black" stroke="none"/></mask><path d=" M 153.918 1047.18 L -119.333 1047.515 L -1.916 896.565 L 271.339 896.23 L 153.918 1047.18 Z " fill="rgb(157,153,153)" mask="url(#_mask_Ka1tritGpPrYg4kfBQyTd0kDnvTMi2mW)" vector-effect="non-scaling-stroke" stroke-width="6" stroke="rgb(121,117,117)" stroke-opacity="100" stroke-linejoin="miter" stroke-linecap="square" stroke-miterlimit="3"/><path d=" M 153.918 1047.18 L -119.333 1047.515 L -1.916 896.565 L 271.339 896.23 L 153.918 1047.18 Z " fill="rgb(157,153,153)"/><mask id="_mask_9iNQ7XTZiGg2DYF0blm6nJoTKAZ1IFpe" x="-200%" y="-200%" width="400%" height="400%"><rect x="-200%" y="-200%" width="400%" height="400%" style="fill:white;"/><path d=" M 696.25 1047.18 L 428.823 1047.515 L 543.74 896.565 L 811.167 896.23 L 696.25 1047.18 Z " fill="black" stroke="none"/></mask><path d=" M 696.25 1047.18 L 428.823 1047.515 L 543.74 896.565 L 811.167 896.23 L 696.25 1047.18 Z " fill="rgb(157,153,153)" mask="url(#_mask_9iNQ7XTZiGg2DYF0blm6nJoTKAZ1IFpe)" vector-effect="non-scaling-stroke" stroke-width="6" stroke="rgb(121,117,117)" stroke-opacity="100" stroke-linejoin="miter" stroke-linecap="square" stroke-miterlimit="3"/><path d=" M 696.25 1047.18 L 428.823 1047.515 L 543.74 896.565 L 811.167 896.23 L 696.25 1047.18 Z " fill="rgb(157,153,153)"/><mask id="_mask_PpqXgU2RPHRMd5cFShvwtTfPkHvJ1WaF" x="-200%" y="-200%" width="400%" height="400%"><rect x="-200%" y="-200%" width="400%" height="400%" style="fill:white;"/><path d=" M 966.788 1047.18 L 699.361 1047.515 L 814.278 896.565 L 1081.7 896.23 L 966.788 1047.18 Z " fill="black" stroke="none"/></mask><path d=" M 966.788 1047.18 L 699.361 1047.515 L 814.278 896.565 L 1081.7 896.23 L 966.788 1047.18 Z " fill="rgb(157,153,153)" mask="url(#_mask_PpqXgU2RPHRMd5cFShvwtTfPkHvJ1WaF)" vector-effect="non-scaling-stroke" stroke-width="6" stroke="rgb(121,117,117)" stroke-opacity="100" stroke-linejoin="miter" stroke-linecap="square" stroke-miterlimit="3"/><path d=" M 966.788 1047.18 L 699.361 1047.515 L 814.278 896.565 L 1081.7 896.23 L 966.788 1047.18 Z " fill="rgb(157,153,153)"/><mask id="_mask_YG89DamYPkSS19jG9xwfZ24BHjgbS07A" x="-200%" y="-200%" width="400%" height="400%"><rect x="-200%" y="-200%" width="400%" height="400%" style="fill:white;"/><path d=" M 1237.321 1047.18 L 969.899 1047.515 L 1084.811 896.565 L 1352.238 896.23 L 1237.321 1047.18 Z " fill="black" stroke="none"/></mask><path d=" M 1237.321 1047.18 L 969.899 1047.515 L 1084.811 896.565 L 1352.238 896.23 L 1237.321 1047.18 Z " fill="rgb(157,153,153)" mask="url(#_mask_YG89DamYPkSS19jG9xwfZ24BHjgbS07A)" vector-effect="non-scaling-stroke" stroke-width="6" stroke="rgb(121,117,117)" stroke-opacity="100" stroke-linejoin="miter" stroke-linecap="square" stroke-miterlimit="3"/><path d=" M 1237.321 1047.18 L 969.899 1047.515 L 1084.811 896.565 L 1352.238 896.23 L 1237.321 1047.18 Z " fill="rgb(157,153,153)"/><mask id="_mask_wjVsmaaPrZ55MG7ldYWHF56maOdLU3yN" x="-200%" y="-200%" width="400%" height="400%"><rect x="-200%" y="-200%" width="400%" height="400%" style="fill:white;"/><path d=" M 1507.858 1047.18 L 1240.432 1047.515 L 1355.349 896.565 L 1622.776 896.23 L 1507.858 1047.18 Z " fill="black" stroke="none"/></mask><path d=" M 1507.858 1047.18 L 1240.432 1047.515 L 1355.349 896.565 L 1622.776 896.23 L 1507.858 1047.18 Z " fill="rgb(157,153,153)" mask="url(#_mask_wjVsmaaPrZ55MG7ldYWHF56maOdLU3yN)" vector-effect="non-scaling-stroke" stroke-width="6" stroke="rgb(121,117,117)" stroke-opacity="100" stroke-linejoin="miter" stroke-linecap="square" stroke-miterlimit="3"/><path d=" M 1507.858 1047.18 L 1240.432 1047.515 L 1355.349 896.565 L 1622.776 896.23 L 1507.858 1047.18 Z " fill="rgb(157,153,153)"/><mask id="_mask_DVi1bleCgorX6rtMDrM8aMNZMxfdASKs" x="-200%" y="-200%" width="400%" height="400%"><rect x="-200%" y="-200%" width="400%" height="400%" style="fill:white;"/><path d=" M 1507.858 1047.18 L 1240.432 1047.515 L 1355.349 896.565 L 1622.776 896.23 L 1507.858 1047.18 Z " fill="black" stroke="none"/></mask><path d=" M 1507.858 1047.18 L 1240.432 1047.515 L 1355.349 896.565 L 1622.776 896.23 L 1507.858 1047.18 Z " fill="rgb(157,153,153)" mask="url(#_mask_DVi1bleCgorX6rtMDrM8aMNZMxfdASKs)" vector-effect="non-scaling-stroke" stroke-width="6" stroke="rgb(121,117,117)" stroke-opacity="100" stroke-linejoin="miter" stroke-linecap="square" stroke-miterlimit="3"/><path d=" M 1507.858 1047.18 L 1240.432 1047.515 L 1355.349 896.565 L 1622.776 896.23 L 1507.858 1047.18 Z " fill="rgb(157,153,153)"/></g><g><mask id="_mask_Gx0YBxVcBi1kwEvMW1lUT6f3dB42aUAJ" x="-200%" y="-200%" width="400%" height="400%"><rect x="-200%" y="-200%" width="400%" height="400%" style="fill:white;"/><path d=" M 3971.928 1047.18 L 3701.227 1047.515 L 3817.551 896.565 L 4088.252 896.23 L 3971.928 1047.18 Z " fill="black" stroke="none"/></mask><path d=" M 3971.928 1047.18 L 3701.227 1047.515 L 3817.551 896.565 L 4088.252 896.23 L 3971.928 1047.18 Z " fill="rgb(157,153,153)" mask="url(#_mask_Gx0YBxVcBi1kwEvMW1lUT6f3dB42aUAJ)" vector-effect="non-scaling-stroke" stroke-width="6" stroke="rgb(121,117,117)" stroke-opacity="100" stroke-linejoin="miter" stroke-linecap="square" stroke-miterlimit="3"/><path d=" M 3971.928 1047.18 L 3701.227 1047.515 L 3817.551 896.565 L 4088.252 896.23 L 3971.928 1047.18 Z " fill="rgb(157,153,153)"/><mask id="_mask_LQ4WzTIpvLcQyvcUXJ2OzzS0DZ6a1wHL" x="-200%" y="-200%" width="400%" height="400%"><rect x="-200%" y="-200%" width="400%" height="400%" style="fill:white;"/><path d=" M 4245.779 1047.18 L 3975.078 1047.515 L 4091.402 896.565 L 4362.099 896.23 L 4245.779 1047.18 Z " fill="black" stroke="none"/></mask><path d=" M 4245.779 1047.18 L 3975.078 1047.515 L 4091.402 896.565 L 4362.099 896.23 L 4245.779 1047.18 Z " fill="rgb(157,153,153)" mask="url(#_mask_LQ4WzTIpvLcQyvcUXJ2OzzS0DZ6a1wHL)" vector-effect="non-scaling-stroke" stroke-width="6" stroke="rgb(121,117,117)" stroke-opacity="100" stroke-linejoin="miter" stroke-linecap="square" stroke-miterlimit="3"/><path d=" M 4245.779 1047.18 L 3975.078 1047.515 L 4091.402 896.565 L 4362.099 896.23 L 4245.779 1047.18 Z " fill="rgb(157,153,153)"/><mask id="_mask_TRE1EVLWQa1U4b8sLchp2zAhtYovH49f" x="-200%" y="-200%" width="400%" height="400%"><rect x="-200%" y="-200%" width="400%" height="400%" style="fill:white;"/><path d=" M 4519.625 1047.18 L 4248.924 1047.515 L 4365.248 896.565 L 4635.95 896.23 L 4519.625 1047.18 Z " fill="black" stroke="none"/></mask><path d=" M 4519.625 1047.18 L 4248.924 1047.515 L 4365.248 896.565 L 4635.95 896.23 L 4519.625 1047.18 Z " fill="rgb(157,153,153)" mask="url(#_mask_TRE1EVLWQa1U4b8sLchp2zAhtYovH49f)" vector-effect="non-scaling-stroke" stroke-width="6" stroke="rgb(121,117,117)" stroke-opacity="100" stroke-linejoin="miter" stroke-linecap="square" stroke-miterlimit="3"/><path d=" M 4519.625 1047.18 L 4248.924 1047.515 L 4365.248 896.565 L 4635.95 896.23 L 4519.625 1047.18 Z " fill="rgb(157,153,153)"/><mask id="_mask_79NZezAi2Y2ozAlmMbDeLG0KJ0WBhcYv" x="-200%" y="-200%" width="400%" height="400%"><rect x="-200%" y="-200%" width="400%" height="400%" style="fill:white;"/><path d=" M 4793.476 1047.18 L 4522.774 1047.515 L 4639.098 896.565 L 4909.8 896.23 L 4793.476 1047.18 Z " fill="black" stroke="none"/></mask><path d=" M 4793.476 1047.18 L 4522.774 1047.515 L 4639.098 896.565 L 4909.8 896.23 L 4793.476 1047.18 Z " fill="rgb(157,153,153)" mask="url(#_mask_79NZezAi2Y2ozAlmMbDeLG0KJ0WBhcYv)" vector-effect="non-scaling-stroke" stroke-width="6" stroke="rgb(121,117,117)" stroke-opacity="100" stroke-linejoin="miter" stroke-linecap="square" stroke-miterlimit="3"/><path d=" M 4793.476 1047.18 L 4522.774 1047.515 L 4639.098 896.565 L 4909.8 896.23 L 4793.476 1047.18 Z " fill="rgb(157,153,153)"/><mask id="_mask_Wjo9lzYlKW6VqQMxVprrAJFQeIugQcMf" x="-200%" y="-200%" width="400%" height="400%"><rect x="-200%" y="-200%" width="400%" height="400%" style="fill:white;"/><path d=" M 5067.326 1047.18 L 4796.625 1047.515 L 4912.945 896.565 L 5183.646 896.23 L 5067.326 1047.18 Z " fill="black" stroke="none"/></mask><path d=" M 5067.326 1047.18 L 4796.625 1047.515 L 4912.945 896.565 L 5183.646 896.23 L 5067.326 1047.18 Z " fill="rgb(157,153,153)" mask="url(#_mask_Wjo9lzYlKW6VqQMxVprrAJFQeIugQcMf)" vector-effect="non-scaling-stroke" stroke-width="6" stroke="rgb(121,117,117)" stroke-opacity="100" stroke-linejoin="miter" stroke-linecap="square" stroke-miterlimit="3"/><path d=" M 5067.326 1047.18 L 4796.625 1047.515 L 4912.945 896.565 L 5183.646 896.23 L 5067.326 1047.18 Z " fill="rgb(157,153,153)"/><mask id="_mask_yvhC3WrHbUIXMtdJUI6xXLIByyC7YCGJ" x="-200%" y="-200%" width="400%" height="400%"><rect x="-200%" y="-200%" width="400%" height="400%" style="fill:white;"/><path d=" M 5338.78 1048.177 L 5070.471 1047.515 L 5186.795 896.565 L 5445.329 896.267 L 5338.78 1048.177 Z " fill="black" stroke="none"/></mask><path d=" M 5338.78 1048.177 L 5070.471 1047.515 L 5186.795 896.565 L 5445.329 896.267 L 5338.78 1048.177 Z " fill="rgb(157,153,153)" mask="url(#_mask_yvhC3WrHbUIXMtdJUI6xXLIByyC7YCGJ)" vector-effect="non-scaling-stroke" stroke-width="6" stroke="rgb(121,117,117)" stroke-opacity="100" stroke-linejoin="miter" stroke-linecap="square" stroke-miterlimit="3"/><path d=" M 5338.78 1048.177 L 5070.471 1047.515 L 5186.795 896.565 L 5445.329 896.267 L 5338.78 1048.177 Z " fill="rgb(157,153,153)"/><mask id="_mask_3DgJMuzyNBe5xPxuwTw5zBcT1nqRs43f" x="-200%" y="-200%" width="400%" height="400%"><rect x="-200%" y="-200%" width="400%" height="400%" style="fill:white;"/><path d=" M 5605.451 1048.177 L 5337.142 1047.515 L 5442.667 895.667 L 5712 896.267 L 5605.451 1048.177 Z " fill="black" stroke="none"/></mask><path d=" M 5605.451 1048.177 L 5337.142 1047.515 L 5442.667 895.667 L 5712 896.267 L 5605.451 1048.177 Z " fill="rgb(157,153,153)" mask="url(#_mask_3DgJMuzyNBe5xPxuwTw5zBcT1nqRs43f)" vector-effect="non-scaling-stroke" stroke-width="6" stroke="rgb(121,117,117)" stroke-opacity="100" stroke-linejoin="miter" stroke-linecap="square" stroke-miterlimit="3"/><path d=" M 5605.451 1048.177 L 5337.142 1047.515 L 5442.667 895.667 L 5712 896.267 L 5605.451 1048.177 Z " fill="rgb(157,153,153)"/><mask id="_mask_on4pu6OrQFJrYNbXSgEt2QuQxS6TQpOM" x="-200%" y="-200%" width="400%" height="400%"><rect x="-200%" y="-200%" width="400%" height="400%" style="fill:white;"/><path d=" M 3971.928 1047.18 L 3701.227 1047.515 L 3817.551 896.565 L 4088.252 896.23 L 3971.928 1047.18 Z " fill="black" stroke="none"/></mask><path d=" M 3971.928 1047.18 L 3701.227 1047.515 L 3817.551 896.565 L 4088.252 896.23 L 3971.928 1047.18 Z " fill="rgb(157,153,153)" mask="url(#_mask_on4pu6OrQFJrYNbXSgEt2QuQxS6TQpOM)" vector-effect="non-scaling-stroke" stroke-width="6" stroke="rgb(121,117,117)" stroke-opacity="100" stroke-linejoin="miter" stroke-linecap="square" stroke-miterlimit="3"/><path d=" M 3971.928 1047.18 L 3701.227 1047.515 L 3817.551 896.565 L 4088.252 896.23 L 3971.928 1047.18 Z " fill="rgb(157,153,153)"/></g><g><mask id="_mask_zlG66W5hNOreuSGMuhNpGmptw1fsnVl2" x="-200%" y="-200%" width="400%" height="400%"><rect x="-200%" y="-200%" width="400%" height="400%" style="fill:white;"/><path d=" M 1781.005 1047.18 L 1510.304 1047.515 L 1626.628 896.565 L 1897.325 896.23 L 1781.005 1047.18 Z " fill="black" stroke="none"/></mask><path d=" M 1781.005 1047.18 L 1510.304 1047.515 L 1626.628 896.565 L 1897.325 896.23 L 1781.005 1047.18 Z " fill="rgb(157,153,153)" mask="url(#_mask_zlG66W5hNOreuSGMuhNpGmptw1fsnVl2)" vector-effect="non-scaling-stroke" stroke-width="6" stroke="rgb(121,117,117)" stroke-opacity="100" stroke-linejoin="miter" stroke-linecap="square" stroke-miterlimit="3"/><path d=" M 1781.005 1047.18 L 1510.304 1047.515 L 1626.628 896.565 L 1897.325 896.23 L 1781.005 1047.18 Z " fill="rgb(157,153,153)"/><mask id="_mask_v7n0Svj09gPbjfNcO8wA2hltu8nKbmUk" x="-200%" y="-200%" width="400%" height="400%"><rect x="-200%" y="-200%" width="400%" height="400%" style="fill:white;"/><path d=" M 2054.851 1047.18 L 1784.155 1047.515 L 1900.475 896.565 L 2171.176 896.23 L 2054.851 1047.18 Z " fill="black" stroke="none"/></mask><path d=" M 2054.851 1047.18 L 1784.155 1047.515 L 1900.475 896.565 L 2171.176 896.23 L 2054.851 1047.18 Z " fill="rgb(157,153,153)" mask="url(#_mask_v7n0Svj09gPbjfNcO8wA2hltu8nKbmUk)" vector-effect="non-scaling-stroke" stroke-width="6" stroke="rgb(121,117,117)" stroke-opacity="100" stroke-linejoin="miter" stroke-linecap="square" stroke-miterlimit="3"/><path d=" M 2054.851 1047.18 L 1784.155 1047.515 L 1900.475 896.565 L 2171.176 896.23 L 2054.851 1047.18 Z " fill="rgb(157,153,153)"/><mask id="_mask_4HD1k2oqwLzNkYMJ2dmjaEAX5PpE6Ua9" x="-200%" y="-200%" width="400%" height="400%"><rect x="-200%" y="-200%" width="400%" height="400%" style="fill:white;"/><path d=" M 2328.702 1047.18 L 2058.001 1047.515 L 2174.325 896.565 L 2445.026 896.23 L 2328.702 1047.18 Z " fill="black" stroke="none"/></mask><path d=" M 2328.702 1047.18 L 2058.001 1047.515 L 2174.325 896.565 L 2445.026 896.23 L 2328.702 1047.18 Z " fill="rgb(157,153,153)" mask="url(#_mask_4HD1k2oqwLzNkYMJ2dmjaEAX5PpE6Ua9)" vector-effect="non-scaling-stroke" stroke-width="6" stroke="rgb(121,117,117)" stroke-opacity="100" stroke-linejoin="miter" stroke-linecap="square" stroke-miterlimit="3"/><path d=" M 2328.702 1047.18 L 2058.001 1047.515 L 2174.325 896.565 L 2445.026 896.23 L 2328.702 1047.18 Z " fill="rgb(157,153,153)"/><mask id="_mask_2eaDLc6JMVqpKCxH04U43Yg0Jrnqu3D4" x="-200%" y="-200%" width="400%" height="400%"><rect x="-200%" y="-200%" width="400%" height="400%" style="fill:white;"/><path d=" M 2602.552 1047.18 L 2331.851 1047.515 L 2448.175 896.565 L 2718.872 896.23 L 2602.552 1047.18 Z " fill="black" stroke="none"/></mask><path d=" M 2602.552 1047.18 L 2331.851 1047.515 L 2448.175 896.565 L 2718.872 896.23 L 2602.552 1047.18 Z " fill="rgb(157,153,153)" mask="url(#_mask_2eaDLc6JMVqpKCxH04U43Yg0Jrnqu3D4)" vector-effect="non-scaling-stroke" stroke-width="6" stroke="rgb(121,117,117)" stroke-opacity="100" stroke-linejoin="miter" stroke-linecap="square" stroke-miterlimit="3"/><path d=" M 2602.552 1047.18 L 2331.851 1047.515 L 2448.175 896.565 L 2718.872 896.23 L 2602.552 1047.18 Z " fill="rgb(157,153,153)"/><mask id="_mask_k8xdKqcrqYPl6YsVnKBX5CxzmhUlgk8j" x="-200%" y="-200%" width="400%" height="400%"><rect x="-200%" y="-200%" width="400%" height="400%" style="fill:white;"/><path d=" M 2876.398 1047.18 L 2605.702 1047.515 L 2722.022 896.565 L 2992.723 896.23 L 2876.398 1047.18 Z " fill="black" stroke="none"/></mask><path d=" M 2876.398 1047.18 L 2605.702 1047.515 L 2722.022 896.565 L 2992.723 896.23 L 2876.398 1047.18 Z " fill="rgb(157,153,153)" mask="url(#_mask_k8xdKqcrqYPl6YsVnKBX5CxzmhUlgk8j)" vector-effect="non-scaling-stroke" stroke-width="6" stroke="rgb(121,117,117)" stroke-opacity="100" stroke-linejoin="miter" stroke-linecap="square" stroke-miterlimit="3"/><path d=" M 2876.398 1047.18 L 2605.702 1047.515 L 2722.022 896.565 L 2992.723 896.23 L 2876.398 1047.18 Z " fill="rgb(157,153,153)"/><mask id="_mask_cBXGXGr9MKJK628E6oocxOysnqkWZwcd" x="-200%" y="-200%" width="400%" height="400%"><rect x="-200%" y="-200%" width="400%" height="400%" style="fill:white;"/><path d=" M 3150.249 1047.18 L 2879.548 1047.515 L 2995.872 896.565 L 3266.574 896.23 L 3150.249 1047.18 Z " fill="black" stroke="none"/></mask><path d=" M 3150.249 1047.18 L 2879.548 1047.515 L 2995.872 896.565 L 3266.574 896.23 L 3150.249 1047.18 Z " fill="rgb(157,153,153)" mask="url(#_mask_cBXGXGr9MKJK628E6oocxOysnqkWZwcd)" vector-effect="non-scaling-stroke" stroke-width="6" stroke="rgb(121,117,117)" stroke-opacity="100" stroke-linejoin="miter" stroke-linecap="square" stroke-miterlimit="3"/><path d=" M 3150.249 1047.18 L 2879.548 1047.515 L 2995.872 896.565 L 3266.574 896.23 L 3150.249 1047.18 Z " fill="rgb(157,153,153)"/><mask id="_mask_U4ZYm0uLiMTIXh1FZ9L7BpCkg0cgnG39" x="-200%" y="-200%" width="400%" height="400%"><rect x="-200%" y="-200%" width="400%" height="400%" style="fill:white;"/><path d=" M 3424.1 1047.18 L 3153.398 1047.515 L 3269.722 896.565 L 3540.42 896.23 L 3424.1 1047.18 Z " fill="black" stroke="none"/></mask><path d=" M 3424.1 1047.18 L 3153.398 1047.515 L 3269.722 896.565 L 3540.42 896.23 L 3424.1 1047.18 Z " fill="rgb(157,153,153)" mask="url(#_mask_U4ZYm0uLiMTIXh1FZ9L7BpCkg0cgnG39)" vector-effect="non-scaling-stroke" stroke-width="6" stroke="rgb(121,117,117)" stroke-opacity="100" stroke-linejoin="miter" stroke-linecap="square" stroke-miterlimit="3"/><path d=" M 3424.1 1047.18 L 3153.398 1047.515 L 3269.722 896.565 L 3540.42 896.23 L 3424.1 1047.18 Z " fill="rgb(157,153,153)"/><mask id="_mask_WVheaTzJBOOksa28DrUh4QZczSKyo8W4" x="-200%" y="-200%" width="400%" height="400%"><rect x="-200%" y="-200%" width="400%" height="400%" style="fill:white;"/><path d=" M 3697.946 1047.18 L 3427.244 1047.515 L 3543.569 896.565 L 3814.27 896.23 L 3697.946 1047.18 Z " fill="black" stroke="none"/></mask><path d=" M 3697.946 1047.18 L 3427.244 1047.515 L 3543.569 896.565 L 3814.27 896.23 L 3697.946 1047.18 Z " fill="rgb(157,153,153)" mask="url(#_mask_WVheaTzJBOOksa28DrUh4QZczSKyo8W4)" vector-effect="non-scaling-stroke" stroke-width="6" stroke="rgb(121,117,117)" stroke-opacity="100" stroke-linejoin="miter" stroke-linecap="square" stroke-miterlimit="3"/><path d=" M 3697.946 1047.18 L 3427.244 1047.515 L 3543.569 896.565 L 3814.27 896.23 L 3697.946 1047.18 Z " fill="rgb(157,153,153)"/><mask id="_mask_ADg1vo7VP1q5yBkqF5jMYlfYIdVwtF7O" x="-200%" y="-200%" width="400%" height="400%"><rect x="-200%" y="-200%" width="400%" height="400%" style="fill:white;"/><path d=" M 1781.005 1047.18 L 1510.304 1047.515 L 1626.628 896.565 L 1897.325 896.23 L 1781.005 1047.18 Z " fill="black" stroke="none"/></mask><path d=" M 1781.005 1047.18 L 1510.304 1047.515 L 1626.628 896.565 L 1897.325 896.23 L 1781.005 1047.18 Z " fill="rgb(157,153,153)" mask="url(#_mask_ADg1vo7VP1q5yBkqF5jMYlfYIdVwtF7O)" vector-effect="non-scaling-stroke" stroke-width="6" stroke="rgb(121,117,117)" stroke-opacity="100" stroke-linejoin="miter" stroke-linecap="square" stroke-miterlimit="3"/><path d=" M 1781.005 1047.18 L 1510.304 1047.515 L 1626.628 896.565 L 1897.325 896.23 L 1781.005 1047.18 Z " fill="rgb(157,153,153)"/><mask id="_mask_PFQI8hidpsNAhOqwX2LW5NE5bykOY6Zp" x="-200%" y="-200%" width="400%" height="400%"><rect x="-200%" y="-200%" width="400%" height="400%" style="fill:white;"/><path d=" M 3697.946 1047.18 L 3427.244 1047.515 L 3543.569 896.565 L 3814.27 896.23 L 3697.946 1047.18 Z " fill="black" stroke="none"/></mask><path d=" M 3697.946 1047.18 L 3427.244 1047.515 L 3543.569 896.565 L 3814.27 896.23 L 3697.946 1047.18 Z " fill="rgb(157,153,153)" mask="url(#_mask_PFQI8hidpsNAhOqwX2LW5NE5bykOY6Zp)" vector-effect="non-scaling-stroke" stroke-width="6" stroke="rgb(121,117,117)" stroke-opacity="100" stroke-linejoin="miter" stroke-linecap="square" stroke-miterlimit="3"/><path d=" M 3697.946 1047.18 L 3427.244 1047.515 L 3543.569 896.565 L 3814.27 896.23 L 3697.946 1047.18 Z " fill="rgb(157,153,153)"/></g></g></g></g></g></g><g><rect x="2026" y="188" width="66" height="64.982" transform="matrix(1,0,0,1,0,0)" fill="rgb(235,235,235)"/><rect x="2026" y="278.604" width="66" height="64.982" transform="matrix(1,0,0,1,0,0)" fill="rgb(235,235,235)"/><rect x="2026" y="369.207" width="66" height="64.982" transform="matrix(1,0,0,1,0,0)" fill="rgb(235,235,235)"/><rect x="2026" y="459.811" width="66" height="64.982" transform="matrix(1,0,0,1,0,0)" fill="rgb(235,235,235)"/><rect x="2026" y="550.414" width="66" height="64.982" transform="matrix(1,0,0,1,0,0)" fill="rgb(235,235,235)"/><rect x="2026" y="641.018" width="66" height="64.982" transform="matrix(1,0,0,1,0,0)" fill="rgb(235,235,235)"/></g><g><rect x="2132" y="188" width="66" height="64.982" transform="matrix(1,0,0,1,0,0)" fill="rgb(235,235,235)"/><rect x="2132" y="278.604" width="66" height="64.982" transform="matrix(1,0,0,1,0,0)" fill="rgb(235,235,235)"/><rect x="2132" y="369.207" width="66" height="64.982" transform="matrix(1,0,0,1,0,0)" fill="rgb(235,235,235)"/><rect x="2132" y="459.811" width="66" height="64.982" transform="matrix(1,0,0,1,0,0)" fill="rgb(235,235,235)"/><rect x="2132" y="550.414" width="66" height="64.982" transform="matrix(1,0,0,1,0,0)" fill="rgb(235,235,235)"/><rect x="2132" y="641.018" width="66" height="64.982" transform="matrix(1,0,0,1,0,0)" fill="rgb(235,235,235)"/></g><g><rect x="2238" y="188" width="66" height="64.982" transform="matrix(1,0,0,1,0,0)" fill="rgb(235,235,235)"/><rect x="2238" y="278.604" width="66" height="64.982" transform="matrix(1,0,0,1,0,0)" fill="rgb(235,235,235)"/><rect x="2238" y="369.207" width="66" height="64.982" transform="matrix(1,0,0,1,0,0)" fill="rgb(235,235,235)"/><rect x="2238" y="459.811" width="66" height="64.982" transform="matrix(1,0,0,1,0,0)" fill="rgb(235,235,235)"/><rect x="2238" y="550.414" width="66" height="64.982" transform="matrix(1,0,0,1,0,0)" fill="rgb(235,235,235)"/><rect x="2238" y="641.018" width="66" height="64.982" transform="matrix(1,0,0,1,0,0)" fill="rgb(235,235,235)"/></g><g><rect x="4236" y="202" width="66" height="64.982" transform="matrix(1,0,0,1,0,0)" fill="rgb(235,235,235)"/><rect x="4236" y="292.604" width="66" height="64.982" transform="matrix(1,0,0,1,0,0)" fill="rgb(235,235,235)"/><rect x="4236" y="383.207" width="66" height="64.982" transform="matrix(1,0,0,1,0,0)" fill="rgb(235,235,235)"/><rect x="4236" y="473.811" width="66" height="64.982" transform="matrix(1,0,0,1,0,0)" fill="rgb(235,235,235)"/><rect x="4236" y="564.414" width="66" height="64.982" transform="matrix(1,0,0,1,0,0)" fill="rgb(235,235,235)"/><rect x="4236" y="655.018" width="66" height="64.982" transform="matrix(1,0,0,1,0,0)" fill="rgb(235,235,235)"/></g><g><rect x="4342" y="202" width="66" height="64.982" transform="matrix(1,0,0,1,0,0)" fill="rgb(235,235,235)"/><rect x="4342" y="292.604" width="66" height="64.982" transform="matrix(1,0,0,1,0,0)" fill="rgb(235,235,235)"/><rect x="4342" y="383.207" width="66" height="64.982" transform="matrix(1,0,0,1,0,0)" fill="rgb(235,235,235)"/><rect x="4342" y="473.811" width="66" height="64.982" transform="matrix(1,0,0,1,0,0)" fill="rgb(235,235,235)"/><rect x="4342" y="564.414" width="66" height="64.982" transform="matrix(1,0,0,1,0,0)" fill="rgb(235,235,235)"/><rect x="4342" y="655.018" width="66" height="64.982" transform="matrix(1,0,0,1,0,0)" fill="rgb(235,235,235)"/></g><g><rect x="4448" y="202" width="66" height="64.982" transform="matrix(1,0,0,1,0,0)" fill="rgb(235,235,235)"/><rect x="4448" y="292.604" width="66" height="64.982" transform="matrix(1,0,0,1,0,0)" fill="rgb(235,235,235)"/><rect x="4448" y="383.207" width="66" height="64.982" transform="matrix(1,0,0,1,0,0)" fill="rgb(235,235,235)"/><rect x="4448" y="473.811" width="66" height="64.982" transform="matrix(1,0,0,1,0,0)" fill="rgb(235,235,235)"/><rect x="4448" y="564.414" width="66" height="64.982" transform="matrix(1,0,0,1,0,0)" fill="rgb(235,235,235)"/><rect x="4448" y="655.018" width="66" height="64.982" transform="matrix(1,0,0,1,0,0)" fill="rgb(235,235,235)"/></g></g></svg>