<?xml version="1.0" encoding="UTF-8" standalone="no"?><!-- Generator: Gravit.io --><svg xmlns="http://www.w3.org/2000/svg" xmlns:xlink="http://www.w3.org/1999/xlink" style="isolation:isolate" viewBox="0 0 5470 1250" width="5470pt" height="1250pt"><rect x="0" y="0" width="5470" height="1428.368" transform="matrix(1,0,0,1,0,0)" fill="rgb(135,240,240)"/><g><path d=" M 258.137 58.843 Q 291.761 58.055 304.959 77.694 Q 312.703 86.975 315.296 101.408 Q 322.35 98.125 333.538 98.976 Q 353.594 102.027 363.334 115.394 Q 370.581 125.174 372.455 140.325 Q 391.262 141.585 398.602 154.311 Q 407.373 163.174 405.899 182.282 Q 403.269 196.07 394.346 203.565 Q 384.952 215.454 361.51 213.294 L 318.945 213.294 L 147.468 213.294 Q 125.706 208.909 115.24 193.228 Q 105.833 181.96 106.727 160.392 Q 110.255 140.205 123.145 129.38 Q 131.871 121.688 144.428 117.826 Q 145.271 101.036 155.981 94.112 Q 169.841 78.784 199.762 79.518 Q 212.501 80.157 220.437 85.599 Q 225.475 74.827 235.031 68.572 Q 243.183 60.307 258.137 58.843 Z " fill="rgb(255,255,255)"/><path d=" M 3444.209 503.294 Q 3492.864 501.953 3511.962 535.369 Q 3523.168 551.162 3526.92 575.721 Q 3537.127 570.134 3553.318 571.582 Q 3582.339 576.774 3596.433 599.519 Q 3606.919 616.159 3609.632 641.94 Q 3636.846 644.084 3647.468 665.738 Q 3660.159 680.82 3658.027 713.333 Q 3654.221 736.794 3641.308 749.547 Q 3627.716 769.777 3593.793 766.102 L 3532.2 766.102 L 3284.066 766.102 Q 3252.576 758.64 3237.431 731.957 Q 3223.819 712.785 3225.112 676.085 Q 3230.218 641.736 3248.87 623.316 Q 3261.496 610.227 3279.666 603.657 Q 3280.887 575.087 3296.385 563.305 Q 3316.441 537.224 3359.738 538.473 Q 3378.171 539.56 3389.655 548.819 Q 3396.946 530.491 3410.773 519.848 Q 3422.57 505.784 3444.209 503.294 Z " fill="rgb(255,255,255)"/><path d=" M 878.452 175.709 Q 917.43 174.796 932.729 197.561 Q 941.707 208.321 944.712 225.052 Q 952.889 221.246 965.859 222.232 Q 989.108 225.769 1000.399 241.265 Q 1008.8 252.601 1010.973 270.166 Q 1032.774 271.626 1041.284 286.378 Q 1051.451 296.653 1049.742 318.804 Q 1046.694 334.787 1036.349 343.475 Q 1025.46 357.257 998.285 354.753 L 948.942 354.753 L 750.16 354.753 Q 724.933 349.67 712.801 331.492 Q 701.896 318.43 702.932 293.427 Q 707.022 270.026 721.964 257.477 Q 732.08 248.56 746.636 244.084 Q 747.613 224.62 760.029 216.593 Q 776.096 198.825 810.782 199.676 Q 825.548 200.417 834.748 206.725 Q 840.589 194.238 851.666 186.987 Q 861.116 177.406 878.452 175.709 Z " fill="rgb(255,255,255)"/><path d=" M 1580.039 462.957 C 1603.046 461.472 1629.56 464.525 1645.15 483.562 L 1645.15 483.562 L 1645.974 486.034 L 1673.997 484.386 C 1697.596 486.427 1725.758 499.312 1725.92 526.419 L 1725.92 526.419 L 1719.327 544.551 Q 1734.7 549.783 1744.053 561.035 Q 1750.646 566.804 1748.998 580.816 Q 1747.833 590.366 1741.58 594.827 Q 1719.289 614.569 1679.766 617.08 Q 1678.695 627.547 1670.7 631.091 Q 1650.328 646.983 1611.358 644.278 Q 1608.886 640.157 1599.82 642.63 L 1589.93 654.168 C 1563.61 680.62 1512.119 680.529 1481.434 661.701 C 1476.838 658.881 1472.567 655.528 1468.774 651.696 L 1468.774 651.696 L 1467.95 649.223 L 1463.005 647.575 Q 1449.269 653.619 1426.741 650.871 Q 1395.01 646.338 1378.114 626.97 Q 1362.756 615.129 1364.927 585.761 Q 1369.242 564.526 1383.883 553.617 Q 1405.504 535.678 1440.752 531.364 Q 1441.088 512.745 1453.115 505.815 Q 1467.662 490.691 1499.269 492.628 L 1523.995 500.869 C 1534.381 478.942 1556.653 466.278 1580.039 462.957 L 1580.039 462.957 Z " fill="rgb(255,255,255)"/><path d=" M 5124.611 22.056 C 5152.976 19.643 5185.666 24.604 5204.889 55.538 L 5204.889 55.538 L 5205.905 59.556 L 5240.455 56.877 C 5269.552 60.194 5304.274 81.132 5304.474 125.18 L 5304.474 125.18 L 5296.344 154.644 Q 5315.299 163.145 5326.83 181.43 Q 5334.959 190.805 5332.927 213.572 Q 5331.492 229.091 5323.781 236.34 Q 5296.297 268.42 5247.568 272.5 Q 5246.247 289.509 5236.39 295.268 Q 5211.272 321.092 5163.225 316.696 Q 5160.177 310 5148.999 314.018 L 5136.805 332.767 C 5104.354 375.751 5040.869 375.603 5003.035 345.008 C 4997.368 340.426 4992.103 334.978 4987.427 328.75 L 4987.427 328.75 L 4986.41 324.732 L 4980.313 322.053 Q 4963.377 331.875 4935.602 327.41 Q 4896.479 320.044 4875.647 288.571 Q 4856.712 269.331 4859.388 221.608 Q 4864.708 187.102 4882.76 169.376 Q 4909.418 140.225 4952.877 133.216 Q 4953.292 102.959 4968.119 91.698 Q 4986.055 67.123 5025.025 70.27 L 5055.511 83.663 C 5068.317 48.032 5095.777 27.453 5124.611 22.056 L 5124.611 22.056 Z " fill="rgb(255,255,255)"/><path d=" M 1882.599 39.143 C 1913.094 38.899 1946.289 45.41 1966.994 69.748 L 1966.994 69.748 L 1967.922 72.53 C 2001.4 54.083 2053.903 61.999 2078.285 92.006 L 2078.285 92.006 L 2082.922 100.353 C 2097.508 102.843 2113.896 112.196 2118.265 127.379 C 2123.402 145.227 2116.421 163.707 2101.47 174.547 L 2101.47 174.547 L 2096.833 177.329 Q 2094.822 204.068 2077.357 215.353 Q 2054.951 233.754 2012.438 232.047 Q 2009.192 226.946 2005.946 234.829 L 1995.744 246.886 Q 1975.341 265.434 1932.68 261.724 Q 1909.03 257.551 1893.728 245.031 Q 1879.467 265.085 1841.792 261.724 Q 1822.548 244.799 1785.22 245.958 Q 1745.65 241.012 1725.865 216.281 Q 1716.162 206.507 1718.445 184.748 Q 1722.387 166.432 1736.066 157.853 L 1742.558 153.216 C 1735.523 141.899 1738.192 126.166 1743.207 114.681 C 1755.644 86.197 1790.037 74.204 1818.607 71.603 L 1818.607 71.603 L 1825.099 63.256 C 1841.034 49.099 1861.757 41.998 1882.599 39.143 L 1882.599 39.143 Z " fill="rgb(255,255,255)"/><path d=" M 2734.457 109.237 C 2764.952 108.993 2798.147 115.504 2818.852 139.842 L 2818.852 139.842 L 2819.78 142.624 C 2853.258 124.177 2905.761 132.092 2930.143 162.1 L 2930.143 162.1 L 2934.78 170.447 C 2949.366 172.937 2965.754 182.29 2970.123 197.472 C 2975.26 215.32 2968.279 233.801 2953.328 244.64 L 2953.328 244.64 L 2948.691 247.423 Q 2946.68 274.161 2929.215 285.447 Q 2906.809 303.848 2864.296 302.141 Q 2861.05 297.04 2857.804 304.923 L 2847.602 316.979 Q 2827.199 335.528 2784.538 331.818 Q 2760.888 327.645 2745.586 315.124 Q 2731.325 335.179 2693.65 331.818 Q 2674.406 314.893 2637.078 316.052 Q 2597.508 311.106 2577.723 286.374 Q 2568.02 276.601 2570.303 254.842 Q 2574.245 236.525 2587.924 227.947 L 2594.416 223.31 C 2587.381 211.993 2590.05 196.26 2595.065 184.775 C 2607.502 156.291 2641.895 144.297 2670.465 141.697 L 2670.465 141.697 L 2676.957 133.35 C 2692.892 119.193 2713.615 112.091 2734.457 109.237 L 2734.457 109.237 Z " fill="rgb(255,255,255)"/><path d=" M 2986.77 600.007 C 3024.463 599.762 3065.493 606.299 3091.085 630.734 L 3091.085 630.734 L 3092.232 633.528 C 3133.612 615.007 3198.508 622.954 3228.644 653.082 L 3228.644 653.082 L 3234.376 661.462 C 3252.404 663.963 3272.66 673.353 3278.061 688.597 C 3284.41 706.516 3275.782 725.071 3257.302 735.954 L 3257.302 735.954 L 3251.57 738.748 Q 3249.084 765.594 3227.498 776.925 Q 3199.803 795.399 3147.255 793.685 Q 3143.243 788.564 3139.231 796.479 L 3126.621 808.584 Q 3101.402 827.207 3048.671 823.482 Q 3019.44 819.292 3000.526 806.722 Q 2982.899 826.856 2936.332 823.482 Q 2912.546 806.489 2866.406 807.653 Q 2817.496 802.687 2793.041 777.856 Q 2781.049 768.043 2783.871 746.197 Q 2788.743 727.807 2805.651 719.194 L 2813.675 714.538 C 2804.98 703.175 2808.278 687.379 2814.477 675.848 C 2829.85 647.25 2872.361 635.208 2907.674 632.597 L 2907.674 632.597 L 2915.698 624.216 C 2935.394 610.002 2961.009 602.872 2986.77 600.007 L 2986.77 600.007 Z " fill="rgb(255,255,255)"/><path d=" M 4222.082 452.19 C 4252.577 451.946 4285.772 458.457 4306.477 482.795 L 4306.477 482.795 L 4307.405 485.577 C 4340.883 467.13 4393.386 475.045 4417.768 505.053 L 4417.768 505.053 L 4422.405 513.4 C 4436.991 515.89 4453.379 525.243 4457.748 540.425 C 4462.885 558.273 4455.904 576.754 4440.953 587.593 L 4440.953 587.593 L 4436.316 590.376 Q 4434.305 617.114 4416.84 628.4 Q 4394.434 646.8 4351.921 645.093 Q 4348.675 639.993 4345.429 647.876 L 4335.227 659.932 Q 4314.824 678.481 4272.163 674.771 Q 4248.513 670.597 4233.211 658.077 Q 4218.951 678.131 4181.275 674.771 Q 4162.031 657.845 4124.703 659.005 Q 4085.133 654.058 4065.348 629.327 Q 4055.646 619.554 4057.928 597.795 Q 4061.87 579.478 4075.549 570.9 L 4082.041 566.263 C 4075.006 554.946 4077.675 539.212 4082.69 527.727 C 4095.127 499.244 4129.52 487.25 4158.09 484.65 L 4158.09 484.65 L 4164.582 476.303 C 4180.517 462.146 4201.24 455.044 4222.082 452.19 L 4222.082 452.19 Z " fill="rgb(255,255,255)"/><path d=" M 1031.027 106.778 Q 1076.264 97.833 1101.625 118.703 Q 1108.494 110.88 1124.521 109.163 Q 1138.468 107.621 1148.133 112.502 L 1149.087 114.171 L 1162.444 122.042 C 1177.94 135.317 1180.736 160.007 1171.03 177.375 L 1171.03 177.375 L 1190.587 188.347 C 1193.384 190.485 1195.768 193.136 1197.713 196.067 C 1214.812 221.83 1204.272 259.862 1174.35 269.893 C 1170.399 271.217 1166.318 272.131 1162.205 272.778 L 1162.205 272.778 L 1145.748 271.108 L 1141.694 281.841 L 1140.024 282.795 L 1137.877 287.565 C 1126.663 304.387 1097.642 306.934 1082.783 294.243 L 1082.783 294.243 L 1078.728 289.473 L 1076.104 288.758 C 1064.089 307.031 1032.113 303.931 1018.624 289.712 L 1018.624 289.712 L 1010.754 278.263 L 996.682 282.318 Q 974.625 282.847 961.383 270.154 Q 949.597 261.479 946.596 239.625 Q 946.661 221.065 955.897 208.62 Q 963.595 197.732 979.271 192.163 Q 973.435 150.548 996.92 128.482 Q 1008.646 114.078 1031.027 106.778 Z " fill="rgb(255,255,255)"/><path d=" M 2269.494 474.959 Q 2315.778 473.874 2333.945 500.907 Q 2344.605 513.684 2348.175 533.551 Q 2357.884 529.031 2373.286 530.203 Q 2400.893 534.403 2414.3 552.803 Q 2424.275 566.265 2426.856 587.121 Q 2452.744 588.855 2462.848 606.373 Q 2474.921 618.574 2472.892 644.876 Q 2469.272 663.856 2456.989 674.173 Q 2444.059 690.538 2411.789 687.565 L 2353.197 687.565 L 2117.154 687.565 Q 2087.198 681.529 2072.791 659.943 Q 2059.842 644.433 2061.073 614.743 Q 2065.93 586.956 2083.673 572.055 Q 2095.684 561.466 2112.969 556.151 Q 2114.13 533.038 2128.872 523.507 Q 2147.951 502.408 2189.139 503.418 Q 2206.673 504.298 2217.598 511.788 Q 2224.533 496.961 2237.687 488.352 Q 2248.909 476.974 2269.494 474.959 Z " fill="rgb(255,255,255)"/><path d=" M 2450.669 393.106 Q 2504.385 382.485 2534.5 407.267 Q 2542.656 397.978 2561.688 395.939 Q 2578.249 394.109 2589.726 399.904 L 2590.859 401.886 L 2606.719 411.232 C 2625.12 426.996 2628.44 456.313 2616.915 476.938 L 2616.915 476.938 L 2640.139 489.965 C 2643.46 492.505 2646.29 495.653 2648.6 499.133 C 2668.904 529.725 2656.389 574.887 2620.857 586.797 C 2616.165 588.37 2611.32 589.455 2606.436 590.223 L 2606.436 590.223 L 2586.894 588.241 L 2582.08 600.985 L 2580.097 602.118 L 2577.548 607.782 C 2564.232 627.757 2529.771 630.781 2512.126 615.712 L 2512.126 615.712 L 2507.311 610.048 L 2504.196 609.198 C 2489.928 630.898 2451.959 627.216 2435.941 610.331 L 2435.941 610.331 L 2426.595 596.737 L 2409.886 601.552 Q 2383.694 602.18 2367.97 587.108 Q 2353.975 576.806 2350.411 550.856 Q 2350.488 528.817 2361.456 514.039 Q 2370.597 501.11 2389.211 494.497 Q 2382.281 445.082 2410.169 418.879 Q 2424.092 401.775 2450.669 393.106 Z " fill="rgb(255,255,255)"/><path d=" M 1346.671 486.65 Q 1388.045 489.781 1410.133 512.199 Q 1437.703 534.905 1440.628 582.255 Q 1454.237 587.603 1462.881 597.915 Q 1484.792 617.214 1481.013 662.201 Q 1473.765 692.041 1452.167 707.532 Q 1434.859 723.191 1401.067 722.367 Q 1394.061 717.834 1381.287 719.07 Q 1357.589 754.713 1292.274 748.741 Q 1263.496 742.904 1246.12 725.664 Q 1237.466 737.614 1216.449 737.202 Q 1200.437 734.259 1192.548 723.191 L 1190.075 719.07 Q 1174.464 728.185 1147.218 725.664 Q 1121.03 719.708 1106.833 701.762 Q 1089.426 685.377 1093.646 647.366 Q 1100.533 622.11 1119.195 608.629 Q 1136.943 592.585 1174.416 596.266 Q 1175.419 575.016 1188.427 565.771 L 1190.9 564.947 L 1191.724 562.475 C 1203.658 550.665 1222.098 549.536 1237.878 550.936 L 1237.878 550.936 L 1254.362 557.53 C 1267.231 514.792 1302.713 489.045 1346.671 486.65 L 1346.671 486.65 Z " fill="rgb(255,255,255)"/><path d=" M 3759.108 375.347 C 3736.077 376.397 3709.626 372.844 3694.397 353.517 L 3694.397 353.517 L 3693.62 351.03 L 3665.572 352.149 C 3642.015 349.663 3614.101 336.249 3614.45 309.144 L 3614.45 309.144 L 3621.384 291.139 Q 3606.113 285.619 3596.974 274.192 Q 3590.491 268.299 3592.403 254.322 Q 3593.747 244.795 3600.084 240.453 Q 3622.744 221.135 3662.307 219.37 Q 3663.575 208.925 3671.635 205.532 Q 3692.304 190.027 3731.215 193.467 Q 3733.609 197.634 3742.72 195.333 L 3752.827 183.983 C 3779.641 158.032 3831.12 159.095 3861.445 178.498 C 3865.987 181.404 3870.194 184.837 3873.914 188.74 L 3873.914 188.74 L 3874.691 191.228 L 3879.604 192.969 Q 3893.452 187.186 3915.924 190.357 Q 3947.564 195.488 3964.092 215.172 Q 3979.223 227.3 3976.499 256.623 Q 3971.784 277.772 3956.94 288.403 Q 3934.984 305.931 3899.661 309.579 Q 3898.973 328.189 3886.819 334.891 Q 3871.989 349.738 3840.424 347.205 L 3815.858 338.498 C 3805.059 360.225 3782.552 372.467 3759.108 375.347 L 3759.108 375.347 Z " fill="rgb(255,255,255)"/><path d=" M 3992.882 356.06 Q 3951.574 352.149 3929.913 329.318 Q 3902.776 306.096 3900.745 258.699 Q 3887.239 253.096 3878.791 242.623 Q 3857.249 222.914 3861.875 178.006 Q 3869.685 148.308 3891.572 133.228 Q 3909.172 117.897 3942.942 119.359 Q 3949.861 124.023 3962.657 123.028 Q 3987.023 87.838 4052.213 95.042 Q 4080.876 101.421 4097.924 118.986 Q 4106.802 107.2 4127.807 108.009 Q 4143.761 111.254 4151.44 122.469 L 4153.834 126.635 Q 4169.614 117.817 4196.808 120.852 Q 4222.879 127.3 4236.736 145.511 Q 4253.83 162.221 4248.894 200.146 Q 4241.531 225.267 4222.618 238.394 Q 4204.571 254.1 4167.174 249.713 Q 4165.77 270.94 4152.59 279.938 L 4150.103 280.715 L 4149.232 283.172 C 4137.077 294.755 4118.619 295.536 4102.868 293.838 L 4102.868 293.838 L 4086.512 286.934 C 4072.839 329.421 4036.877 354.494 3992.882 356.06 L 3992.882 356.06 Z " fill="rgb(255,255,255)"/><path d=" M 3014.963 172.956 C 3031.821 172.465 3050.306 176.72 3058.074 193.352 L 3058.074 193.352 L 3063.807 206.245 Q 3074.794 201.14 3092.848 203.364 Q 3122.428 209.174 3135.834 230.578 Q 3144.879 243.628 3148.044 262.347 Q 3174.032 269.946 3187.621 289.499 Q 3205.239 308.517 3201.906 347.736 Q 3195.303 379.099 3174.599 395.836 Q 3155.087 414.679 3116.3 413.53 Q 3084.101 407.734 3065.596 388.733 Q 3048.121 408.82 3007.328 404.723 Q 2984.069 398.679 2970.199 383.584 Q 2949.686 413.546 2898.077 411.257 Q 2864.448 404.327 2848.334 380.509 Q 2830.716 361.491 2834.049 322.273 Q 2839.66 289.882 2861.356 274.172 Q 2877.396 259.544 2905.15 257.066 Q 2901.419 221.065 2922.199 210.484 Q 2935.351 198.072 2963.296 201.002 L 2976.84 206.365 C 2983.004 189.279 2996.188 174.631 3014.963 172.956 L 3014.963 172.956 Z " fill="rgb(255,255,255)"/><path d=" M 4520.533 379.575 C 4541.493 378.964 4564.474 384.254 4574.132 404.932 L 4574.132 404.932 L 4581.26 420.963 Q 4594.921 414.616 4617.366 417.381 Q 4654.143 424.604 4670.811 451.216 Q 4682.056 467.44 4685.991 490.714 Q 4718.301 500.161 4735.197 524.471 Q 4757.101 548.117 4752.957 596.877 Q 4744.749 635.87 4719.006 656.679 Q 4694.748 680.107 4646.524 678.678 Q 4606.491 671.472 4583.484 647.849 Q 4561.758 672.822 4511.04 667.728 Q 4482.123 660.215 4464.878 641.446 Q 4439.375 678.699 4375.209 675.852 Q 4333.398 667.237 4313.364 637.624 Q 4291.46 613.979 4295.604 565.219 Q 4302.581 524.948 4329.555 505.416 Q 4349.497 487.229 4384.004 484.148 Q 4379.365 439.388 4405.2 426.233 Q 4421.552 410.801 4456.296 414.445 L 4473.135 421.112 C 4480.798 399.87 4497.19 381.657 4520.533 379.575 L 4520.533 379.575 Z " fill="rgb(255,255,255)"/><path d=" M 495.646 520.396 C 517.805 519.75 542.101 525.343 552.311 547.204 L 552.311 547.204 L 559.847 564.152 Q 574.289 557.442 598.019 560.365 Q 636.899 568.001 654.521 596.135 Q 666.41 613.288 670.569 637.893 Q 704.728 647.881 722.59 673.582 Q 745.747 698.58 741.367 750.129 Q 732.688 791.353 705.473 813.353 Q 679.827 838.12 628.844 836.61 Q 586.521 828.991 562.198 804.017 Q 539.229 830.419 485.61 825.034 Q 455.038 817.09 436.807 797.248 Q 409.845 836.632 342.008 833.623 Q 297.806 824.514 276.626 793.207 Q 253.469 768.209 257.849 716.66 Q 265.225 674.085 293.742 653.436 Q 314.825 634.209 351.306 630.952 Q 346.402 583.631 373.715 569.724 Q 391.003 553.409 427.734 557.26 L 445.536 564.309 C 453.638 541.852 470.968 522.597 495.646 520.396 L 495.646 520.396 Z " fill="rgb(255,255,255)"/></g></svg>